G04*
G04 #@! TF.GenerationSoftware,Altium Limited,Altium Designer,21.9.2 (33)*
G04*
G04 Layer_Color=8421504*
%FSLAX25Y25*%
%MOIN*%
G70*
G04*
G04 #@! TF.SameCoordinates,7D1BAC6E-B471-4F52-9471-A17197207182*
G04*
G04*
G04 #@! TF.FilePolarity,Positive*
G04*
G01*
G75*
%ADD16R,0.03937X0.04331*%
%ADD17R,0.03740X0.03543*%
%ADD18R,0.03740X0.08465*%
%ADD19R,0.12795X0.08465*%
%ADD20R,0.11024X0.03937*%
%ADD21R,0.04921X0.03543*%
%ADD22R,0.03543X0.07874*%
%ADD23R,0.07874X0.03543*%
%ADD24R,0.05236X0.05236*%
D16*
X444850Y86290D02*
D03*
Y79597D02*
D03*
D17*
X441339Y190256D02*
D03*
Y196358D02*
D03*
X434366Y105362D02*
D03*
Y111465D02*
D03*
X441366Y105362D02*
D03*
Y111465D02*
D03*
X448866Y105362D02*
D03*
Y111465D02*
D03*
X456366Y105362D02*
D03*
Y111465D02*
D03*
X437205Y79823D02*
D03*
Y85925D02*
D03*
D18*
X436024Y121260D02*
D03*
X445079D02*
D03*
X454134D02*
D03*
D19*
X445079Y144095D02*
D03*
D20*
X353249Y162765D02*
D03*
X330415D02*
D03*
X353249Y178513D02*
D03*
X330415D02*
D03*
X198394Y162765D02*
D03*
X175559D02*
D03*
X198394Y178513D02*
D03*
X175559D02*
D03*
X275821Y162765D02*
D03*
X252987D02*
D03*
X275821Y178513D02*
D03*
X252987D02*
D03*
X430677Y162765D02*
D03*
X407842D02*
D03*
X430677Y178513D02*
D03*
X407842D02*
D03*
D21*
X334253Y167686D02*
D03*
X349411D02*
D03*
X334253Y173592D02*
D03*
X349411D02*
D03*
X179398Y167686D02*
D03*
X194555D02*
D03*
X179398Y173592D02*
D03*
X194555D02*
D03*
X256825Y167686D02*
D03*
X271983D02*
D03*
X256825Y173592D02*
D03*
X271983D02*
D03*
X411681Y167686D02*
D03*
X426839D02*
D03*
X411681Y173592D02*
D03*
X426839D02*
D03*
D22*
X70850Y129035D02*
D03*
X75850D02*
D03*
X80850D02*
D03*
X85850D02*
D03*
X90850D02*
D03*
X95850D02*
D03*
X100850D02*
D03*
X105850D02*
D03*
X110850D02*
D03*
X115850D02*
D03*
X120850D02*
D03*
X125850D02*
D03*
X130850D02*
D03*
X135850D02*
D03*
Y195965D02*
D03*
X130850D02*
D03*
X125850D02*
D03*
X120850D02*
D03*
X115850D02*
D03*
X110850D02*
D03*
X105850D02*
D03*
X100850D02*
D03*
X95850D02*
D03*
X90850D02*
D03*
X85850D02*
D03*
X80850D02*
D03*
X75850D02*
D03*
X70850D02*
D03*
D23*
X139787Y140000D02*
D03*
Y145000D02*
D03*
Y150000D02*
D03*
Y155000D02*
D03*
Y160000D02*
D03*
Y165000D02*
D03*
Y170000D02*
D03*
Y175000D02*
D03*
Y180000D02*
D03*
Y185000D02*
D03*
D24*
X93154Y151339D02*
D03*
Y158563D02*
D03*
Y165787D02*
D03*
X100378Y151339D02*
D03*
Y158563D02*
D03*
Y165787D02*
D03*
X107602Y151339D02*
D03*
Y158563D02*
D03*
Y165787D02*
D03*
M02*
