G04*
G04 #@! TF.GenerationSoftware,Altium Limited,Altium Designer,21.9.2 (33)*
G04*
G04 Layer_Physical_Order=2*
G04 Layer_Color=36540*
%FSLAX25Y25*%
%MOIN*%
G70*
G04*
G04 #@! TF.SameCoordinates,7D1BAC6E-B471-4F52-9471-A17197207182*
G04*
G04*
G04 #@! TF.FilePolarity,Positive*
G04*
G01*
G75*
%ADD44C,0.05386*%
%ADD47O,0.08661X0.05512*%
%ADD49C,0.02362*%
G36*
X460907Y202611D02*
X461513Y202490D01*
X462083Y202254D01*
X462596Y201911D01*
X463033Y201474D01*
X463376Y200961D01*
X463612Y200391D01*
X463733Y199785D01*
X463733Y199476D01*
X463733Y149575D01*
X463736Y149555D01*
X463734Y149535D01*
X463757Y149053D01*
X463772Y148995D01*
Y148936D01*
X463960Y147990D01*
X463990Y147917D01*
X464006Y147839D01*
X464375Y146948D01*
X464419Y146882D01*
X464449Y146809D01*
X464985Y146007D01*
X465041Y145951D01*
X465085Y145885D01*
X465767Y145203D01*
X465833Y145159D01*
X465889Y145103D01*
X466691Y144567D01*
X466764Y144537D01*
X466830Y144493D01*
X467721Y144124D01*
X467798Y144108D01*
X467872Y144078D01*
X468818Y143890D01*
X468877D01*
X468935Y143875D01*
X469417Y143852D01*
X469437Y143855D01*
X469457Y143851D01*
X471425D01*
X471831Y143851D01*
X472626Y143693D01*
X473376Y143382D01*
X474051Y142931D01*
X474624Y142358D01*
X475075Y141683D01*
X475385Y140934D01*
X475544Y140138D01*
Y139732D01*
X475544Y42587D01*
Y42278D01*
X475423Y41672D01*
X475187Y41102D01*
X474844Y40589D01*
X474407Y40152D01*
X473894Y39809D01*
X473324Y39573D01*
X472718Y39452D01*
X164227D01*
X163621Y39573D01*
X163051Y39809D01*
X162538Y40152D01*
X162101Y40589D01*
X161758Y41102D01*
X161522Y41672D01*
X161401Y42278D01*
X161401Y42587D01*
Y101051D01*
X161399Y101064D01*
X161401Y101077D01*
X161359Y102365D01*
X161350Y102404D01*
X161352Y102443D01*
X161016Y104996D01*
X160999Y105046D01*
X160996Y105099D01*
X160329Y107587D01*
X160306Y107634D01*
X160295Y107686D01*
X159310Y110065D01*
X159281Y110109D01*
X159264Y110159D01*
X157976Y112389D01*
X157941Y112429D01*
X157918Y112476D01*
X156350Y114519D01*
X156310Y114554D01*
X156281Y114598D01*
X154460Y116419D01*
X154416Y116448D01*
X154381Y116488D01*
X152339Y118056D01*
X152291Y118079D01*
X152251Y118114D01*
X150021Y119401D01*
X149971Y119418D01*
X149927Y119448D01*
X147548Y120433D01*
X147496Y120443D01*
X147449Y120467D01*
X144962Y121133D01*
X144909Y121137D01*
X144859Y121154D01*
X142306Y121490D01*
X142266Y121487D01*
X142227Y121496D01*
X140940Y121539D01*
X140927Y121536D01*
X140913Y121539D01*
X70047Y121539D01*
X69739D01*
X69133Y121659D01*
X68563Y121896D01*
X68049Y122239D01*
X67613Y122675D01*
X67270Y123189D01*
X67033Y123759D01*
X66913Y124365D01*
Y124673D01*
Y199476D01*
Y199785D01*
X67033Y200391D01*
X67270Y200961D01*
X67613Y201474D01*
X68049Y201911D01*
X68563Y202254D01*
X69133Y202490D01*
X69739Y202611D01*
X134826D01*
X134978Y202111D01*
X134812Y201999D01*
X134440Y201443D01*
X134310Y200787D01*
X134440Y200132D01*
X134812Y199575D01*
X135368Y199204D01*
X136024Y199073D01*
X136679Y199204D01*
X137236Y199575D01*
X137607Y200132D01*
X137738Y200787D01*
X137607Y201443D01*
X137236Y201999D01*
X137069Y202111D01*
X137221Y202611D01*
X460598D01*
X460907Y202611D01*
D02*
G37*
%LPC*%
G36*
X441339Y202108D02*
X440683Y201977D01*
X440127Y201606D01*
X439755Y201050D01*
X439625Y200394D01*
X439755Y199738D01*
X440127Y199182D01*
X440683Y198810D01*
X441339Y198680D01*
X441994Y198810D01*
X442551Y199182D01*
X442922Y199738D01*
X443053Y200394D01*
X442922Y201050D01*
X442551Y201606D01*
X441994Y201977D01*
X441339Y202108D01*
D02*
G37*
G36*
X184479Y201911D02*
X183823Y201780D01*
X183267Y201409D01*
X182896Y200853D01*
X182765Y200197D01*
X182896Y199541D01*
X183267Y198985D01*
X183823Y198613D01*
X184479Y198483D01*
X185135Y198613D01*
X185691Y198985D01*
X186063Y199541D01*
X186193Y200197D01*
X186063Y200853D01*
X185691Y201409D01*
X185135Y201780D01*
X184479Y201911D01*
D02*
G37*
G36*
X189245Y198564D02*
X188589Y198434D01*
X188033Y198062D01*
X187662Y197506D01*
X187531Y196850D01*
X187662Y196195D01*
X188033Y195638D01*
X188589Y195267D01*
X189245Y195136D01*
X189901Y195267D01*
X190457Y195638D01*
X190829Y196195D01*
X190959Y196850D01*
X190829Y197506D01*
X190457Y198062D01*
X189901Y198434D01*
X189245Y198564D01*
D02*
G37*
G36*
X275984Y194234D02*
X275328Y194103D01*
X274772Y193732D01*
X274401Y193176D01*
X274270Y192520D01*
X274401Y191864D01*
X274772Y191308D01*
X275328Y190936D01*
X275984Y190806D01*
X276640Y190936D01*
X277196Y191308D01*
X277568Y191864D01*
X277698Y192520D01*
X277568Y193176D01*
X277196Y193732D01*
X276640Y194103D01*
X275984Y194234D01*
D02*
G37*
G36*
X75984Y192050D02*
X75328Y191920D01*
X74772Y191548D01*
X74401Y190992D01*
X74270Y190336D01*
X74401Y189680D01*
X74772Y189124D01*
X75328Y188753D01*
X75984Y188622D01*
X76640Y188753D01*
X77196Y189124D01*
X77568Y189680D01*
X77698Y190336D01*
X77568Y190992D01*
X77196Y191548D01*
X76640Y191920D01*
X75984Y192050D01*
D02*
G37*
G36*
X109449Y191933D02*
X108793Y191802D01*
X108237Y191431D01*
X107865Y190875D01*
X107735Y190219D01*
X107865Y189563D01*
X108237Y189007D01*
X108793Y188635D01*
X109449Y188505D01*
X110105Y188635D01*
X110661Y189007D01*
X111032Y189563D01*
X111163Y190219D01*
X111032Y190875D01*
X110661Y191431D01*
X110105Y191802D01*
X109449Y191933D01*
D02*
G37*
G36*
X80850Y191533D02*
X80194Y191402D01*
X79638Y191031D01*
X79267Y190475D01*
X79136Y189819D01*
X79267Y189163D01*
X79638Y188607D01*
X80194Y188235D01*
X80850Y188105D01*
X81506Y188235D01*
X82062Y188607D01*
X82434Y189163D01*
X82564Y189819D01*
X82434Y190475D01*
X82062Y191031D01*
X81506Y191402D01*
X80850Y191533D01*
D02*
G37*
G36*
X105118Y191478D02*
X104462Y191347D01*
X103906Y190976D01*
X103534Y190420D01*
X103404Y189764D01*
X103534Y189108D01*
X103906Y188552D01*
X104462Y188180D01*
X105118Y188050D01*
X105774Y188180D01*
X106330Y188552D01*
X106702Y189108D01*
X106832Y189764D01*
X106702Y190420D01*
X106330Y190976D01*
X105774Y191347D01*
X105118Y191478D01*
D02*
G37*
G36*
X125468Y191356D02*
X124812Y191225D01*
X124256Y190854D01*
X123885Y190297D01*
X123754Y189642D01*
X123885Y188986D01*
X124256Y188430D01*
X124812Y188058D01*
X125468Y187927D01*
X126124Y188058D01*
X126680Y188430D01*
X127052Y188986D01*
X127182Y189642D01*
X127052Y190297D01*
X126680Y190854D01*
X126124Y191225D01*
X125468Y191356D01*
D02*
G37*
G36*
X200189Y191281D02*
X199533Y191150D01*
X198977Y190779D01*
X198605Y190223D01*
X198475Y189567D01*
X198605Y188911D01*
X198977Y188355D01*
X199533Y187983D01*
X200189Y187853D01*
X200845Y187983D01*
X201401Y188355D01*
X201772Y188911D01*
X201903Y189567D01*
X201772Y190223D01*
X201401Y190779D01*
X200845Y191150D01*
X200189Y191281D01*
D02*
G37*
G36*
X95669Y187147D02*
X95013Y187017D01*
X94457Y186645D01*
X94086Y186089D01*
X93955Y185433D01*
X94086Y184777D01*
X94457Y184221D01*
X95013Y183850D01*
X95669Y183719D01*
X96325Y183850D01*
X96881Y184221D01*
X97253Y184777D01*
X97383Y185433D01*
X97253Y186089D01*
X96881Y186645D01*
X96325Y187017D01*
X95669Y187147D01*
D02*
G37*
G36*
X162008Y185375D02*
X161352Y185245D01*
X160796Y184873D01*
X160424Y184317D01*
X160294Y183661D01*
X160424Y183005D01*
X160796Y182449D01*
X161352Y182078D01*
X162008Y181947D01*
X162664Y182078D01*
X163220Y182449D01*
X163591Y183005D01*
X163722Y183661D01*
X163591Y184317D01*
X163220Y184873D01*
X162664Y185245D01*
X162008Y185375D01*
D02*
G37*
G36*
X181299Y185179D02*
X180643Y185048D01*
X180087Y184677D01*
X179716Y184121D01*
X179585Y183465D01*
X179716Y182809D01*
X180087Y182253D01*
X180643Y181881D01*
X181299Y181751D01*
X181955Y181881D01*
X182511Y182253D01*
X182883Y182809D01*
X183013Y183465D01*
X182883Y184121D01*
X182511Y184677D01*
X181955Y185048D01*
X181299Y185179D01*
D02*
G37*
G36*
X435992Y182681D02*
X434617D01*
Y179698D01*
X439149D01*
X439067Y180321D01*
X438749Y181089D01*
X438243Y181748D01*
X437584Y182254D01*
X436816Y182572D01*
X435992Y182681D01*
D02*
G37*
G36*
X434217D02*
X432842D01*
X432019Y182572D01*
X431251Y182254D01*
X430592Y181748D01*
X430086Y181089D01*
X429768Y180321D01*
X429686Y179698D01*
X434217D01*
Y182681D01*
D02*
G37*
G36*
X405677D02*
X404302D01*
Y179698D01*
X408834D01*
X408752Y180321D01*
X408434Y181089D01*
X407928Y181748D01*
X407269Y182254D01*
X406501Y182572D01*
X405677Y182681D01*
D02*
G37*
G36*
X403902D02*
X402528D01*
X401704Y182572D01*
X400936Y182254D01*
X400277Y181748D01*
X399771Y181089D01*
X399453Y180321D01*
X399371Y179698D01*
X403902D01*
Y182681D01*
D02*
G37*
G36*
X358564D02*
X357189D01*
Y179698D01*
X361721D01*
X361639Y180321D01*
X361321Y181089D01*
X360815Y181748D01*
X360156Y182254D01*
X359388Y182572D01*
X358564Y182681D01*
D02*
G37*
G36*
X356789D02*
X355415D01*
X354591Y182572D01*
X353823Y182254D01*
X353164Y181748D01*
X352658Y181089D01*
X352340Y180321D01*
X352258Y179698D01*
X356789D01*
Y182681D01*
D02*
G37*
G36*
X328249D02*
X326874D01*
Y179698D01*
X331406D01*
X331324Y180321D01*
X331006Y181089D01*
X330500Y181748D01*
X329841Y182254D01*
X329073Y182572D01*
X328249Y182681D01*
D02*
G37*
G36*
X326474D02*
X325100D01*
X324276Y182572D01*
X323508Y182254D01*
X322849Y181748D01*
X322343Y181089D01*
X322025Y180321D01*
X321943Y179698D01*
X326474D01*
Y182681D01*
D02*
G37*
G36*
X281136D02*
X279762D01*
Y179698D01*
X284293D01*
X284211Y180321D01*
X283893Y181089D01*
X283387Y181748D01*
X282728Y182254D01*
X281960Y182572D01*
X281136Y182681D01*
D02*
G37*
G36*
X279362D02*
X277987D01*
X277163Y182572D01*
X276395Y182254D01*
X275736Y181748D01*
X275230Y181089D01*
X274912Y180321D01*
X274830Y179698D01*
X279362D01*
Y182681D01*
D02*
G37*
G36*
X250821D02*
X249447D01*
Y179698D01*
X253978D01*
X253896Y180321D01*
X253578Y181089D01*
X253072Y181748D01*
X252413Y182254D01*
X251645Y182572D01*
X250821Y182681D01*
D02*
G37*
G36*
X249047D02*
X247672D01*
X246848Y182572D01*
X246080Y182254D01*
X245421Y181748D01*
X244915Y181089D01*
X244597Y180321D01*
X244515Y179698D01*
X249047D01*
Y182681D01*
D02*
G37*
G36*
X203709D02*
X202334D01*
Y179698D01*
X206866D01*
X206783Y180321D01*
X206465Y181089D01*
X205960Y181748D01*
X205300Y182254D01*
X204533Y182572D01*
X203709Y182681D01*
D02*
G37*
G36*
X201934D02*
X200559D01*
X199735Y182572D01*
X198968Y182254D01*
X198308Y181748D01*
X197802Y181089D01*
X197484Y180321D01*
X197402Y179698D01*
X201934D01*
Y182681D01*
D02*
G37*
G36*
X173394D02*
X172019D01*
Y179698D01*
X176550D01*
X176468Y180321D01*
X176150Y181089D01*
X175645Y181748D01*
X174985Y182254D01*
X174218Y182572D01*
X173394Y182681D01*
D02*
G37*
G36*
X171619D02*
X170244D01*
X169420Y182572D01*
X168652Y182254D01*
X167993Y181748D01*
X167487Y181089D01*
X167169Y180321D01*
X167087Y179698D01*
X171619D01*
Y182681D01*
D02*
G37*
G36*
X395079Y182168D02*
X394423Y182038D01*
X393867Y181666D01*
X393495Y181110D01*
X393365Y180454D01*
X393495Y179798D01*
X393867Y179242D01*
X394423Y178871D01*
X395079Y178740D01*
X395735Y178871D01*
X396291Y179242D01*
X396662Y179798D01*
X396793Y180454D01*
X396662Y181110D01*
X396291Y181666D01*
X395735Y182038D01*
X395079Y182168D01*
D02*
G37*
G36*
X128150Y181438D02*
X127494Y181308D01*
X126938Y180936D01*
X126566Y180380D01*
X126436Y179724D01*
X126566Y179069D01*
X126938Y178512D01*
X127494Y178141D01*
X128150Y178010D01*
X128805Y178141D01*
X129362Y178512D01*
X129733Y179069D01*
X129864Y179724D01*
X129733Y180380D01*
X129362Y180936D01*
X128805Y181308D01*
X128150Y181438D01*
D02*
G37*
G36*
X132283Y181242D02*
X131628Y181111D01*
X131071Y180740D01*
X130700Y180183D01*
X130569Y179528D01*
X130700Y178872D01*
X131071Y178316D01*
X131628Y177944D01*
X132283Y177813D01*
X132939Y177944D01*
X133495Y178316D01*
X133867Y178872D01*
X133997Y179528D01*
X133867Y180183D01*
X133495Y180740D01*
X132939Y181111D01*
X132283Y181242D01*
D02*
G37*
G36*
X447441Y180848D02*
X446785Y180717D01*
X446229Y180346D01*
X445857Y179790D01*
X445727Y179134D01*
X445857Y178478D01*
X446229Y177922D01*
X446785Y177550D01*
X447441Y177420D01*
X448097Y177550D01*
X448653Y177922D01*
X449024Y178478D01*
X449155Y179134D01*
X449024Y179790D01*
X448653Y180346D01*
X448097Y180717D01*
X447441Y180848D01*
D02*
G37*
G36*
X439149Y179298D02*
X434617D01*
Y176314D01*
X435992D01*
X436816Y176423D01*
X437584Y176741D01*
X438243Y177247D01*
X438749Y177906D01*
X439067Y178674D01*
X439149Y179298D01*
D02*
G37*
G36*
X434217D02*
X429686D01*
X429768Y178674D01*
X430086Y177906D01*
X430592Y177247D01*
X431251Y176741D01*
X432019Y176423D01*
X432842Y176314D01*
X434217D01*
Y179298D01*
D02*
G37*
G36*
X408834D02*
X404302D01*
Y176314D01*
X405677D01*
X406501Y176423D01*
X407269Y176741D01*
X407928Y177247D01*
X408434Y177906D01*
X408752Y178674D01*
X408834Y179298D01*
D02*
G37*
G36*
X403902D02*
X399371D01*
X399453Y178674D01*
X399771Y177906D01*
X400277Y177247D01*
X400936Y176741D01*
X401704Y176423D01*
X402528Y176314D01*
X403902D01*
Y179298D01*
D02*
G37*
G36*
X361721D02*
X357189D01*
Y176314D01*
X358564D01*
X359388Y176423D01*
X360156Y176741D01*
X360815Y177247D01*
X361321Y177906D01*
X361639Y178674D01*
X361721Y179298D01*
D02*
G37*
G36*
X356789D02*
X352258D01*
X352340Y178674D01*
X352658Y177906D01*
X353164Y177247D01*
X353823Y176741D01*
X354591Y176423D01*
X355415Y176314D01*
X356789D01*
Y179298D01*
D02*
G37*
G36*
X331406D02*
X326874D01*
Y176314D01*
X328249D01*
X329073Y176423D01*
X329841Y176741D01*
X330500Y177247D01*
X331006Y177906D01*
X331324Y178674D01*
X331406Y179298D01*
D02*
G37*
G36*
X326474D02*
X321943D01*
X322025Y178674D01*
X322343Y177906D01*
X322849Y177247D01*
X323508Y176741D01*
X324276Y176423D01*
X325100Y176314D01*
X326474D01*
Y179298D01*
D02*
G37*
G36*
X284293D02*
X279762D01*
Y176314D01*
X281136D01*
X281960Y176423D01*
X282728Y176741D01*
X283387Y177247D01*
X283893Y177906D01*
X284211Y178674D01*
X284293Y179298D01*
D02*
G37*
G36*
X279362D02*
X274830D01*
X274912Y178674D01*
X275230Y177906D01*
X275736Y177247D01*
X276395Y176741D01*
X277163Y176423D01*
X277987Y176314D01*
X279362D01*
Y179298D01*
D02*
G37*
G36*
X253978D02*
X249447D01*
Y176314D01*
X250821D01*
X251645Y176423D01*
X252413Y176741D01*
X253072Y177247D01*
X253578Y177906D01*
X253896Y178674D01*
X253978Y179298D01*
D02*
G37*
G36*
X249047D02*
X244515D01*
X244597Y178674D01*
X244915Y177906D01*
X245421Y177247D01*
X246080Y176741D01*
X246848Y176423D01*
X247672Y176314D01*
X249047D01*
Y179298D01*
D02*
G37*
G36*
X206866D02*
X202334D01*
Y176314D01*
X203709D01*
X204533Y176423D01*
X205300Y176741D01*
X205960Y177247D01*
X206465Y177906D01*
X206783Y178674D01*
X206866Y179298D01*
D02*
G37*
G36*
X201934D02*
X197402D01*
X197484Y178674D01*
X197802Y177906D01*
X198308Y177247D01*
X198968Y176741D01*
X199735Y176423D01*
X200559Y176314D01*
X201934D01*
Y179298D01*
D02*
G37*
G36*
X176550D02*
X172019D01*
Y176314D01*
X173394D01*
X174218Y176423D01*
X174985Y176741D01*
X175645Y177247D01*
X176150Y177906D01*
X176468Y178674D01*
X176550Y179298D01*
D02*
G37*
G36*
X171619D02*
X167087D01*
X167169Y178674D01*
X167487Y177906D01*
X167993Y177247D01*
X168652Y176741D01*
X169420Y176423D01*
X170244Y176314D01*
X171619D01*
Y179298D01*
D02*
G37*
G36*
X104190Y167360D02*
Y165987D01*
X105562D01*
X105480Y166404D01*
X105130Y166927D01*
X104607Y167277D01*
X104190Y167360D01*
D02*
G37*
G36*
X96966D02*
Y165987D01*
X98338D01*
X98255Y166404D01*
X97906Y166927D01*
X97383Y167277D01*
X96966Y167360D01*
D02*
G37*
G36*
X96566D02*
X96149Y167277D01*
X95626Y166927D01*
X95276Y166404D01*
X95193Y165987D01*
X96566D01*
Y167360D01*
D02*
G37*
G36*
X103790D02*
X103373Y167277D01*
X102850Y166927D01*
X102501Y166404D01*
X102418Y165987D01*
X103790D01*
Y167360D01*
D02*
G37*
G36*
X381050Y176559D02*
X380042D01*
X379964Y176543D01*
X379885D01*
X378896Y176347D01*
X378823Y176316D01*
X378746Y176301D01*
X377814Y175915D01*
X377749Y175871D01*
X377676Y175841D01*
X376837Y175281D01*
X376781Y175225D01*
X376716Y175181D01*
X376003Y174468D01*
X375959Y174402D01*
X375903Y174346D01*
X375343Y173508D01*
X375312Y173435D01*
X375269Y173369D01*
X374883Y172438D01*
X374867Y172360D01*
X374837Y172287D01*
X374640Y171299D01*
Y171220D01*
X374625Y171142D01*
Y170134D01*
X374640Y170056D01*
Y169977D01*
X374837Y168988D01*
X374867Y168915D01*
X374883Y168838D01*
X375269Y167906D01*
X375312Y167841D01*
X375343Y167767D01*
X375903Y166929D01*
X375959Y166873D01*
X376003Y166807D01*
X376716Y166095D01*
X376781Y166051D01*
X376837Y165995D01*
X377676Y165435D01*
X377749Y165404D01*
X377814Y165360D01*
X378746Y164975D01*
X378823Y164959D01*
X378896Y164929D01*
X379885Y164732D01*
X379964D01*
X380042Y164717D01*
X381050D01*
X381128Y164732D01*
X381207D01*
X382195Y164929D01*
X382269Y164959D01*
X382346Y164975D01*
X383278Y165360D01*
X383343Y165404D01*
X383416Y165435D01*
X384255Y165995D01*
X384310Y166051D01*
X384376Y166095D01*
X385089Y166807D01*
X385133Y166873D01*
X385189Y166929D01*
X385749Y167767D01*
X385779Y167841D01*
X385823Y167906D01*
X386209Y168838D01*
X386225Y168915D01*
X386255Y168988D01*
X386451Y169977D01*
Y170056D01*
X386467Y170134D01*
Y171142D01*
X386451Y171219D01*
Y171299D01*
X386255Y172287D01*
X386225Y172360D01*
X386209Y172438D01*
X385823Y173369D01*
X385779Y173435D01*
X385749Y173508D01*
X385189Y174346D01*
X385133Y174402D01*
X385089Y174468D01*
X384376Y175181D01*
X384310Y175225D01*
X384255Y175281D01*
X383416Y175841D01*
X383343Y175871D01*
X383278Y175915D01*
X382346Y176301D01*
X382269Y176316D01*
X382195Y176347D01*
X381207Y176543D01*
X381128D01*
X381050Y176559D01*
D02*
G37*
G36*
X303622D02*
X302614D01*
X302537Y176543D01*
X302457D01*
X301469Y176347D01*
X301396Y176316D01*
X301318Y176301D01*
X300387Y175915D01*
X300321Y175871D01*
X300248Y175841D01*
X299410Y175281D01*
X299354Y175225D01*
X299288Y175181D01*
X298575Y174468D01*
X298531Y174402D01*
X298475Y174346D01*
X297915Y173508D01*
X297885Y173435D01*
X297841Y173369D01*
X297455Y172438D01*
X297440Y172360D01*
X297409Y172287D01*
X297213Y171299D01*
Y171220D01*
X297197Y171142D01*
Y170134D01*
X297213Y170056D01*
Y169977D01*
X297409Y168988D01*
X297440Y168915D01*
X297455Y168838D01*
X297841Y167906D01*
X297885Y167841D01*
X297915Y167767D01*
X298475Y166929D01*
X298531Y166873D01*
X298575Y166807D01*
X299288Y166095D01*
X299354Y166051D01*
X299410Y165995D01*
X300248Y165435D01*
X300321Y165404D01*
X300387Y165360D01*
X301318Y164975D01*
X301396Y164959D01*
X301469Y164929D01*
X302457Y164732D01*
X302536D01*
X302614Y164717D01*
X303622D01*
X303700Y164732D01*
X303779D01*
X304768Y164929D01*
X304841Y164959D01*
X304918Y164975D01*
X305850Y165360D01*
X305915Y165404D01*
X305989Y165435D01*
X306827Y165995D01*
X306883Y166051D01*
X306948Y166095D01*
X307661Y166807D01*
X307705Y166873D01*
X307761Y166929D01*
X308321Y167767D01*
X308351Y167841D01*
X308395Y167906D01*
X308781Y168838D01*
X308797Y168915D01*
X308827Y168988D01*
X309024Y169977D01*
Y170056D01*
X309039Y170134D01*
Y171142D01*
X309024Y171219D01*
Y171299D01*
X308827Y172287D01*
X308797Y172360D01*
X308781Y172438D01*
X308395Y173369D01*
X308351Y173435D01*
X308321Y173508D01*
X307761Y174346D01*
X307705Y174402D01*
X307661Y174468D01*
X306948Y175181D01*
X306883Y175225D01*
X306827Y175281D01*
X305989Y175841D01*
X305915Y175871D01*
X305850Y175915D01*
X304918Y176301D01*
X304841Y176316D01*
X304768Y176347D01*
X303779Y176543D01*
X303700D01*
X303622Y176559D01*
D02*
G37*
G36*
X226194D02*
X225186D01*
X225109Y176543D01*
X225030D01*
X224041Y176347D01*
X223968Y176316D01*
X223890Y176301D01*
X222959Y175915D01*
X222893Y175871D01*
X222820Y175841D01*
X221982Y175281D01*
X221926Y175225D01*
X221860Y175181D01*
X221147Y174468D01*
X221103Y174402D01*
X221047Y174346D01*
X220487Y173508D01*
X220457Y173435D01*
X220413Y173369D01*
X220027Y172438D01*
X220012Y172360D01*
X219981Y172287D01*
X219785Y171299D01*
Y171220D01*
X219769Y171142D01*
Y170134D01*
X219785Y170056D01*
Y169977D01*
X219981Y168988D01*
X220012Y168915D01*
X220027Y168838D01*
X220413Y167906D01*
X220457Y167841D01*
X220487Y167767D01*
X221047Y166929D01*
X221103Y166873D01*
X221147Y166807D01*
X221860Y166095D01*
X221926Y166051D01*
X221982Y165995D01*
X222820Y165435D01*
X222893Y165404D01*
X222959Y165360D01*
X223890Y164975D01*
X223968Y164959D01*
X224041Y164929D01*
X225030Y164732D01*
X225109D01*
X225186Y164717D01*
X226194D01*
X226272Y164732D01*
X226351D01*
X227340Y164929D01*
X227413Y164959D01*
X227490Y164975D01*
X228422Y165360D01*
X228488Y165404D01*
X228561Y165435D01*
X229399Y165995D01*
X229455Y166051D01*
X229521Y166095D01*
X230234Y166807D01*
X230277Y166873D01*
X230333Y166929D01*
X230893Y167767D01*
X230924Y167841D01*
X230968Y167906D01*
X231353Y168838D01*
X231369Y168915D01*
X231399Y168988D01*
X231596Y169977D01*
Y170056D01*
X231611Y170134D01*
Y171142D01*
X231596Y171219D01*
Y171299D01*
X231399Y172287D01*
X231369Y172360D01*
X231353Y172438D01*
X230968Y173369D01*
X230924Y173435D01*
X230893Y173508D01*
X230333Y174346D01*
X230277Y174402D01*
X230234Y174468D01*
X229521Y175181D01*
X229455Y175225D01*
X229399Y175281D01*
X228561Y175841D01*
X228488Y175871D01*
X228422Y175915D01*
X227490Y176301D01*
X227413Y176316D01*
X227340Y176347D01*
X226351Y176543D01*
X226272D01*
X226194Y176559D01*
D02*
G37*
G36*
X105562Y165587D02*
X104190D01*
Y164215D01*
X104607Y164298D01*
X105130Y164647D01*
X105480Y165171D01*
X105562Y165587D01*
D02*
G37*
G36*
X98338D02*
X96966D01*
Y164215D01*
X97383Y164298D01*
X97906Y164647D01*
X98255Y165171D01*
X98338Y165587D01*
D02*
G37*
G36*
X96566D02*
X95193D01*
X95276Y165171D01*
X95626Y164647D01*
X96149Y164298D01*
X96566Y164215D01*
Y165587D01*
D02*
G37*
G36*
X103790D02*
X102418D01*
X102501Y165171D01*
X102850Y164647D01*
X103373Y164298D01*
X103790Y164215D01*
Y165587D01*
D02*
G37*
G36*
X148228Y166281D02*
X147572Y166150D01*
X147016Y165779D01*
X146645Y165223D01*
X146514Y164567D01*
X146645Y163911D01*
X147016Y163355D01*
X147572Y162983D01*
X148228Y162853D01*
X148884Y162983D01*
X149440Y163355D01*
X149812Y163911D01*
X149942Y164567D01*
X149812Y165223D01*
X149440Y165779D01*
X148884Y166150D01*
X148228Y166281D01*
D02*
G37*
G36*
X128150Y165887D02*
X127494Y165757D01*
X126938Y165385D01*
X126566Y164829D01*
X126436Y164173D01*
X126566Y163517D01*
X126938Y162961D01*
X127494Y162590D01*
X128150Y162459D01*
X128805Y162590D01*
X129362Y162961D01*
X129733Y163517D01*
X129864Y164173D01*
X129733Y164829D01*
X129362Y165385D01*
X128805Y165757D01*
X128150Y165887D01*
D02*
G37*
G36*
X107802Y163748D02*
Y162375D01*
X109175D01*
X109092Y162792D01*
X108742Y163315D01*
X108219Y163665D01*
X107802Y163748D01*
D02*
G37*
G36*
X100578D02*
Y162375D01*
X101950D01*
X101867Y162792D01*
X101518Y163315D01*
X100995Y163665D01*
X100578Y163748D01*
D02*
G37*
G36*
X93353D02*
Y162375D01*
X94726D01*
X94643Y162792D01*
X94293Y163315D01*
X93770Y163665D01*
X93353Y163748D01*
D02*
G37*
G36*
X100178D02*
X99761Y163665D01*
X99238Y163315D01*
X98889Y162792D01*
X98806Y162375D01*
X100178D01*
Y163748D01*
D02*
G37*
G36*
X92953D02*
X92537Y163665D01*
X92014Y163315D01*
X91664Y162792D01*
X91581Y162375D01*
X92953D01*
Y163748D01*
D02*
G37*
G36*
X107402D02*
X106985Y163665D01*
X106462Y163315D01*
X106113Y162792D01*
X106030Y162375D01*
X107402D01*
Y163748D01*
D02*
G37*
G36*
X109175Y161975D02*
X107802D01*
Y160603D01*
X108219Y160686D01*
X108742Y161035D01*
X109092Y161558D01*
X109175Y161975D01*
D02*
G37*
G36*
X101950D02*
X100578D01*
Y160603D01*
X100995Y160686D01*
X101518Y161035D01*
X101867Y161558D01*
X101950Y161975D01*
D02*
G37*
G36*
X94726D02*
X93353D01*
Y160603D01*
X93770Y160686D01*
X94293Y161035D01*
X94643Y161558D01*
X94726Y161975D01*
D02*
G37*
G36*
X100178D02*
X98806D01*
X98889Y161558D01*
X99238Y161035D01*
X99761Y160686D01*
X100178Y160603D01*
Y161975D01*
D02*
G37*
G36*
X92953D02*
X91581D01*
X91664Y161558D01*
X92014Y161035D01*
X92537Y160686D01*
X92953Y160603D01*
Y161975D01*
D02*
G37*
G36*
X107402D02*
X106030D01*
X106113Y161558D01*
X106462Y161035D01*
X106985Y160686D01*
X107402Y160603D01*
Y161975D01*
D02*
G37*
G36*
X455061Y166479D02*
X448876D01*
Y160293D01*
X455061D01*
Y166479D01*
D02*
G37*
G36*
X104190Y160135D02*
Y158763D01*
X105562D01*
X105480Y159180D01*
X105130Y159703D01*
X104607Y160052D01*
X104190Y160135D01*
D02*
G37*
G36*
X96966D02*
Y158763D01*
X98338D01*
X98255Y159180D01*
X97906Y159703D01*
X97383Y160052D01*
X96966Y160135D01*
D02*
G37*
G36*
X96566D02*
X96149Y160052D01*
X95626Y159703D01*
X95276Y159180D01*
X95193Y158763D01*
X96566D01*
Y160135D01*
D02*
G37*
G36*
X103790D02*
X103373Y160052D01*
X102850Y159703D01*
X102501Y159180D01*
X102418Y158763D01*
X103790D01*
Y160135D01*
D02*
G37*
G36*
X435992Y164964D02*
X432842D01*
X432019Y164856D01*
X431251Y164538D01*
X430592Y164032D01*
X430086Y163373D01*
X429768Y162605D01*
X429659Y161781D01*
X429768Y160957D01*
X430086Y160189D01*
X430592Y159530D01*
X431251Y159024D01*
X432019Y158706D01*
X432842Y158598D01*
X435992D01*
X436816Y158706D01*
X437584Y159024D01*
X438243Y159530D01*
X438749Y160189D01*
X439067Y160957D01*
X439175Y161781D01*
X439067Y162605D01*
X438749Y163373D01*
X438243Y164032D01*
X437584Y164538D01*
X436816Y164856D01*
X435992Y164964D01*
D02*
G37*
G36*
X405677D02*
X402528D01*
X401704Y164856D01*
X400936Y164538D01*
X400277Y164032D01*
X399771Y163373D01*
X399453Y162605D01*
X399344Y161781D01*
X399453Y160957D01*
X399771Y160189D01*
X400277Y159530D01*
X400936Y159024D01*
X401704Y158706D01*
X402528Y158598D01*
X405677D01*
X406501Y158706D01*
X407269Y159024D01*
X407928Y159530D01*
X408434Y160189D01*
X408752Y160957D01*
X408860Y161781D01*
X408752Y162605D01*
X408434Y163373D01*
X407928Y164032D01*
X407269Y164538D01*
X406501Y164856D01*
X405677Y164964D01*
D02*
G37*
G36*
X358564D02*
X355415D01*
X354591Y164856D01*
X353823Y164538D01*
X353164Y164032D01*
X352658Y163373D01*
X352340Y162605D01*
X352232Y161781D01*
X352340Y160957D01*
X352658Y160189D01*
X353164Y159530D01*
X353823Y159024D01*
X354591Y158706D01*
X355415Y158598D01*
X358564D01*
X359388Y158706D01*
X360156Y159024D01*
X360815Y159530D01*
X361321Y160189D01*
X361639Y160957D01*
X361747Y161781D01*
X361639Y162605D01*
X361321Y163373D01*
X360815Y164032D01*
X360156Y164538D01*
X359388Y164856D01*
X358564Y164964D01*
D02*
G37*
G36*
X328249D02*
X325100D01*
X324276Y164856D01*
X323508Y164538D01*
X322849Y164032D01*
X322343Y163373D01*
X322025Y162605D01*
X321917Y161781D01*
X322025Y160957D01*
X322343Y160189D01*
X322849Y159530D01*
X323508Y159024D01*
X324276Y158706D01*
X325100Y158598D01*
X328249D01*
X329073Y158706D01*
X329841Y159024D01*
X330500Y159530D01*
X331006Y160189D01*
X331324Y160957D01*
X331433Y161781D01*
X331324Y162605D01*
X331006Y163373D01*
X330500Y164032D01*
X329841Y164538D01*
X329073Y164856D01*
X328249Y164964D01*
D02*
G37*
G36*
X281136D02*
X277987D01*
X277163Y164856D01*
X276395Y164538D01*
X275736Y164032D01*
X275230Y163373D01*
X274912Y162605D01*
X274804Y161781D01*
X274912Y160957D01*
X275230Y160189D01*
X275736Y159530D01*
X276395Y159024D01*
X277163Y158706D01*
X277987Y158598D01*
X281136D01*
X281960Y158706D01*
X282728Y159024D01*
X283387Y159530D01*
X283893Y160189D01*
X284211Y160957D01*
X284320Y161781D01*
X284211Y162605D01*
X283893Y163373D01*
X283387Y164032D01*
X282728Y164538D01*
X281960Y164856D01*
X281136Y164964D01*
D02*
G37*
G36*
X250821D02*
X247672D01*
X246848Y164856D01*
X246080Y164538D01*
X245421Y164032D01*
X244915Y163373D01*
X244597Y162605D01*
X244489Y161781D01*
X244597Y160957D01*
X244915Y160189D01*
X245421Y159530D01*
X246080Y159024D01*
X246848Y158706D01*
X247672Y158598D01*
X250821D01*
X251645Y158706D01*
X252413Y159024D01*
X253072Y159530D01*
X253578Y160189D01*
X253896Y160957D01*
X254005Y161781D01*
X253896Y162605D01*
X253578Y163373D01*
X253072Y164032D01*
X252413Y164538D01*
X251645Y164856D01*
X250821Y164964D01*
D02*
G37*
G36*
X203709D02*
X200559D01*
X199735Y164856D01*
X198968Y164538D01*
X198308Y164032D01*
X197802Y163373D01*
X197484Y162605D01*
X197376Y161781D01*
X197484Y160957D01*
X197802Y160189D01*
X198308Y159530D01*
X198968Y159024D01*
X199735Y158706D01*
X200559Y158598D01*
X203709D01*
X204533Y158706D01*
X205300Y159024D01*
X205960Y159530D01*
X206465Y160189D01*
X206783Y160957D01*
X206892Y161781D01*
X206783Y162605D01*
X206465Y163373D01*
X205960Y164032D01*
X205300Y164538D01*
X204533Y164856D01*
X203709Y164964D01*
D02*
G37*
G36*
X173394D02*
X170244D01*
X169420Y164856D01*
X168652Y164538D01*
X167993Y164032D01*
X167487Y163373D01*
X167169Y162605D01*
X167061Y161781D01*
X167169Y160957D01*
X167487Y160189D01*
X167993Y159530D01*
X168652Y159024D01*
X169420Y158706D01*
X170244Y158598D01*
X173394D01*
X174218Y158706D01*
X174985Y159024D01*
X175645Y159530D01*
X176150Y160189D01*
X176468Y160957D01*
X176577Y161781D01*
X176468Y162605D01*
X176150Y163373D01*
X175645Y164032D01*
X174985Y164538D01*
X174218Y164856D01*
X173394Y164964D01*
D02*
G37*
G36*
X105562Y158363D02*
X104190D01*
Y156991D01*
X104607Y157074D01*
X105130Y157423D01*
X105480Y157946D01*
X105562Y158363D01*
D02*
G37*
G36*
X98338D02*
X96966D01*
Y156991D01*
X97383Y157074D01*
X97906Y157423D01*
X98255Y157946D01*
X98338Y158363D01*
D02*
G37*
G36*
X96566D02*
X95193D01*
X95276Y157946D01*
X95626Y157423D01*
X96149Y157074D01*
X96566Y156991D01*
Y158363D01*
D02*
G37*
G36*
X103790D02*
X102418D01*
X102501Y157946D01*
X102850Y157423D01*
X103373Y157074D01*
X103790Y156991D01*
Y158363D01*
D02*
G37*
G36*
X119601Y159816D02*
X118945Y159685D01*
X118389Y159314D01*
X118017Y158758D01*
X117887Y158102D01*
X118017Y157446D01*
X118389Y156890D01*
X118945Y156518D01*
X119601Y156388D01*
X120257Y156518D01*
X120813Y156890D01*
X121184Y157446D01*
X121315Y158102D01*
X121184Y158758D01*
X120813Y159314D01*
X120257Y159685D01*
X119601Y159816D01*
D02*
G37*
G36*
X452169Y158605D02*
Y155712D01*
X455062D01*
X454982Y156319D01*
X454670Y157072D01*
X454174Y157718D01*
X453528Y158213D01*
X452776Y158525D01*
X452169Y158605D01*
D02*
G37*
G36*
X451768D02*
X451161Y158525D01*
X450409Y158213D01*
X449763Y157718D01*
X449267Y157072D01*
X448955Y156319D01*
X448875Y155712D01*
X451768D01*
Y158605D01*
D02*
G37*
G36*
X107802Y156523D02*
Y155151D01*
X109175D01*
X109092Y155568D01*
X108742Y156091D01*
X108219Y156440D01*
X107802Y156523D01*
D02*
G37*
G36*
X100578D02*
Y155151D01*
X101950D01*
X101867Y155568D01*
X101518Y156091D01*
X100995Y156440D01*
X100578Y156523D01*
D02*
G37*
G36*
X93353D02*
Y155151D01*
X94726D01*
X94643Y155568D01*
X94293Y156091D01*
X93770Y156440D01*
X93353Y156523D01*
D02*
G37*
G36*
X100178D02*
X99761Y156440D01*
X99238Y156091D01*
X98889Y155568D01*
X98806Y155151D01*
X100178D01*
Y156523D01*
D02*
G37*
G36*
X92953D02*
X92537Y156440D01*
X92014Y156091D01*
X91664Y155568D01*
X91581Y155151D01*
X92953D01*
Y156523D01*
D02*
G37*
G36*
X107402D02*
X106985Y156440D01*
X106462Y156091D01*
X106113Y155568D01*
X106030Y155151D01*
X107402D01*
Y156523D01*
D02*
G37*
G36*
X109175Y154751D02*
X107802D01*
Y153378D01*
X108219Y153461D01*
X108742Y153811D01*
X109092Y154334D01*
X109175Y154751D01*
D02*
G37*
G36*
X101950D02*
X100578D01*
Y153378D01*
X100995Y153461D01*
X101518Y153811D01*
X101867Y154334D01*
X101950Y154751D01*
D02*
G37*
G36*
X94726D02*
X93353D01*
Y153378D01*
X93770Y153461D01*
X94293Y153811D01*
X94643Y154334D01*
X94726Y154751D01*
D02*
G37*
G36*
X100178D02*
X98806D01*
X98889Y154334D01*
X99238Y153811D01*
X99761Y153461D01*
X100178Y153378D01*
Y154751D01*
D02*
G37*
G36*
X92953D02*
X91581D01*
X91664Y154334D01*
X92014Y153811D01*
X92537Y153461D01*
X92953Y153378D01*
Y154751D01*
D02*
G37*
G36*
X107402D02*
X106030D01*
X106113Y154334D01*
X106462Y153811D01*
X106985Y153461D01*
X107402Y153378D01*
Y154751D01*
D02*
G37*
G36*
X455062Y155312D02*
X452169D01*
Y152418D01*
X452776Y152498D01*
X453528Y152810D01*
X454174Y153306D01*
X454670Y153952D01*
X454982Y154704D01*
X455062Y155312D01*
D02*
G37*
G36*
X451768D02*
X448875D01*
X448955Y154704D01*
X449267Y153952D01*
X449763Y153306D01*
X450409Y152810D01*
X451161Y152498D01*
X451768Y152418D01*
Y155312D01*
D02*
G37*
G36*
X104190Y152911D02*
Y151539D01*
X105562D01*
X105480Y151955D01*
X105130Y152479D01*
X104607Y152828D01*
X104190Y152911D01*
D02*
G37*
G36*
X96966D02*
Y151539D01*
X98338D01*
X98255Y151955D01*
X97906Y152479D01*
X97383Y152828D01*
X96966Y152911D01*
D02*
G37*
G36*
X96566D02*
X96149Y152828D01*
X95626Y152479D01*
X95276Y151955D01*
X95193Y151539D01*
X96566D01*
Y152911D01*
D02*
G37*
G36*
X103790D02*
X103373Y152828D01*
X102850Y152479D01*
X102501Y151955D01*
X102418Y151539D01*
X103790D01*
Y152911D01*
D02*
G37*
G36*
X105562Y151139D02*
X104190D01*
Y149766D01*
X104607Y149849D01*
X105130Y150199D01*
X105480Y150722D01*
X105562Y151139D01*
D02*
G37*
G36*
X98338D02*
X96966D01*
Y149766D01*
X97383Y149849D01*
X97906Y150199D01*
X98255Y150722D01*
X98338Y151139D01*
D02*
G37*
G36*
X96566D02*
X95193D01*
X95276Y150722D01*
X95626Y150199D01*
X96149Y149849D01*
X96566Y149766D01*
Y151139D01*
D02*
G37*
G36*
X103790D02*
X102418D01*
X102501Y150722D01*
X102850Y150199D01*
X103373Y149849D01*
X103790Y149766D01*
Y151139D01*
D02*
G37*
G36*
X126969Y152895D02*
X126313Y152765D01*
X125757Y152393D01*
X125385Y151837D01*
X125254Y151181D01*
X125385Y150525D01*
X125757Y149969D01*
X126313Y149598D01*
X126969Y149467D01*
X127624Y149598D01*
X128181Y149969D01*
X128552Y150525D01*
X128682Y151181D01*
X128552Y151837D01*
X128181Y152393D01*
X127624Y152765D01*
X126969Y152895D01*
D02*
G37*
G36*
X152165Y151911D02*
X151509Y151780D01*
X150953Y151409D01*
X150582Y150853D01*
X150451Y150197D01*
X150582Y149541D01*
X150953Y148985D01*
X151509Y148613D01*
X152165Y148483D01*
X152821Y148613D01*
X153377Y148985D01*
X153749Y149541D01*
X153879Y150197D01*
X153749Y150853D01*
X153377Y151409D01*
X152821Y151780D01*
X152165Y151911D01*
D02*
G37*
G36*
X131890D02*
X131234Y151780D01*
X130678Y151409D01*
X130306Y150853D01*
X130176Y150197D01*
X130306Y149541D01*
X130678Y148985D01*
X131234Y148613D01*
X131890Y148483D01*
X132546Y148613D01*
X133102Y148985D01*
X133473Y149541D01*
X133604Y150197D01*
X133473Y150853D01*
X133102Y151409D01*
X132546Y151780D01*
X131890Y151911D01*
D02*
G37*
G36*
X380512Y146932D02*
X379856Y146801D01*
X379300Y146430D01*
X378928Y145874D01*
X378798Y145218D01*
X378928Y144562D01*
X379300Y144006D01*
X379856Y143634D01*
X380512Y143504D01*
X381168Y143634D01*
X381724Y144006D01*
X382095Y144562D01*
X382226Y145218D01*
X382095Y145874D01*
X381724Y146430D01*
X381168Y146801D01*
X380512Y146932D01*
D02*
G37*
G36*
X156890Y146596D02*
X156234Y146466D01*
X155678Y146094D01*
X155306Y145538D01*
X155176Y144882D01*
X155306Y144226D01*
X155678Y143670D01*
X156234Y143298D01*
X156890Y143168D01*
X157546Y143298D01*
X158102Y143670D01*
X158473Y144226D01*
X158604Y144882D01*
X158473Y145538D01*
X158102Y146094D01*
X157546Y146466D01*
X156890Y146596D01*
D02*
G37*
G36*
X331260Y154943D02*
X274979D01*
X274901Y154928D01*
X274822D01*
X273681Y154701D01*
X273608Y154671D01*
X273531Y154655D01*
X272456Y154210D01*
X272390Y154166D01*
X272317Y154136D01*
X271350Y153489D01*
X271294Y153434D01*
X271228Y153390D01*
X270406Y152567D01*
X270362Y152501D01*
X270306Y152445D01*
X269659Y151478D01*
X269629Y151405D01*
X269585Y151339D01*
X269140Y150265D01*
X269125Y150187D01*
X269094Y150114D01*
X268867Y148973D01*
Y148894D01*
X268852Y148816D01*
Y147653D01*
X268867Y147576D01*
Y147496D01*
X269094Y146356D01*
X269125Y146283D01*
X269140Y146205D01*
X269585Y145130D01*
X269629Y145064D01*
X269659Y144992D01*
X270306Y144024D01*
X270362Y143968D01*
X270406Y143903D01*
X271228Y143080D01*
X271294Y143036D01*
X271350Y142980D01*
X272317Y142334D01*
X272390Y142304D01*
X272456Y142260D01*
X273531Y141814D01*
X273608Y141799D01*
X273681Y141769D01*
X274822Y141542D01*
X274901D01*
X274979Y141526D01*
X331260D01*
X331338Y141542D01*
X331417D01*
X332558Y141769D01*
X332631Y141799D01*
X332708Y141814D01*
X333783Y142260D01*
X333849Y142304D01*
X333922Y142334D01*
X334889Y142980D01*
X334945Y143036D01*
X335011Y143080D01*
X335833Y143903D01*
X335877Y143968D01*
X335933Y144024D01*
X336579Y144992D01*
X336610Y145064D01*
X336654Y145130D01*
X337099Y146205D01*
X337114Y146283D01*
X337144Y146356D01*
X337371Y147496D01*
Y147576D01*
X337387Y147653D01*
Y148816D01*
X337371Y148894D01*
Y148973D01*
X337144Y150114D01*
X337114Y150187D01*
X337099Y150265D01*
X336654Y151339D01*
X336610Y151405D01*
X336579Y151478D01*
X335933Y152445D01*
X335877Y152501D01*
X335833Y152567D01*
X335011Y153390D01*
X334945Y153434D01*
X334889Y153489D01*
X333922Y154136D01*
X333849Y154166D01*
X333783Y154210D01*
X332708Y154655D01*
X332631Y154671D01*
X332558Y154701D01*
X331417Y154928D01*
X331338D01*
X331260Y154943D01*
D02*
G37*
G36*
X118862Y143746D02*
X118206Y143616D01*
X117650Y143244D01*
X117278Y142688D01*
X117148Y142032D01*
X117278Y141376D01*
X117650Y140820D01*
X118206Y140449D01*
X118862Y140318D01*
X119518Y140449D01*
X120074Y140820D01*
X120445Y141376D01*
X120576Y142032D01*
X120445Y142688D01*
X120074Y143244D01*
X119518Y143616D01*
X118862Y143746D01*
D02*
G37*
G36*
X376575Y143053D02*
X375919Y142922D01*
X375363Y142551D01*
X374991Y141995D01*
X374861Y141339D01*
X374991Y140683D01*
X375363Y140127D01*
X375919Y139755D01*
X376575Y139625D01*
X377231Y139755D01*
X377787Y140127D01*
X378158Y140683D01*
X378289Y141339D01*
X378158Y141995D01*
X377787Y142551D01*
X377231Y142922D01*
X376575Y143053D01*
D02*
G37*
G36*
X374494Y139790D02*
X373838Y139660D01*
X373282Y139288D01*
X372910Y138732D01*
X372780Y138076D01*
X372910Y137420D01*
X373282Y136864D01*
X373838Y136493D01*
X374494Y136362D01*
X375150Y136493D01*
X375706Y136864D01*
X376077Y137420D01*
X376208Y138076D01*
X376077Y138732D01*
X375706Y139288D01*
X375150Y139660D01*
X374494Y139790D01*
D02*
G37*
G36*
X445079Y139509D02*
X444423Y139379D01*
X443867Y139007D01*
X443495Y138451D01*
X443365Y137795D01*
X443495Y137139D01*
X443867Y136583D01*
X444423Y136212D01*
X445079Y136081D01*
X445735Y136212D01*
X446291Y136583D01*
X446662Y137139D01*
X446793Y137795D01*
X446662Y138451D01*
X446291Y139007D01*
X445735Y139379D01*
X445079Y139509D01*
D02*
G37*
G36*
X429724D02*
X429069Y139379D01*
X428512Y139007D01*
X428141Y138451D01*
X428010Y137795D01*
X428141Y137139D01*
X428512Y136583D01*
X429069Y136212D01*
X429724Y136081D01*
X430380Y136212D01*
X430936Y136583D01*
X431308Y137139D01*
X431438Y137795D01*
X431308Y138451D01*
X430936Y139007D01*
X430380Y139379D01*
X429724Y139509D01*
D02*
G37*
G36*
X120669Y136753D02*
X120013Y136623D01*
X119457Y136251D01*
X119086Y135695D01*
X118955Y135039D01*
X119086Y134383D01*
X119457Y133827D01*
X120013Y133456D01*
X120669Y133325D01*
X121325Y133456D01*
X121881Y133827D01*
X122253Y134383D01*
X122383Y135039D01*
X122253Y135695D01*
X121881Y136251D01*
X121325Y136623D01*
X120669Y136753D01*
D02*
G37*
G36*
X111024Y136556D02*
X110368Y136426D01*
X109812Y136055D01*
X109440Y135498D01*
X109310Y134843D01*
X109440Y134187D01*
X109812Y133631D01*
X110368Y133259D01*
X111024Y133128D01*
X111679Y133259D01*
X112236Y133631D01*
X112607Y134187D01*
X112738Y134843D01*
X112607Y135498D01*
X112236Y136055D01*
X111679Y136426D01*
X111024Y136556D01*
D02*
G37*
G36*
X75984Y135375D02*
X75328Y135245D01*
X74772Y134873D01*
X74401Y134317D01*
X74270Y133661D01*
X74401Y133005D01*
X74772Y132449D01*
X75328Y132078D01*
X75984Y131947D01*
X76640Y132078D01*
X77196Y132449D01*
X77568Y133005D01*
X77698Y133661D01*
X77568Y134317D01*
X77196Y134873D01*
X76640Y135245D01*
X75984Y135375D01*
D02*
G37*
G36*
X471760Y134569D02*
X469004D01*
X468080Y134385D01*
X467296Y133861D01*
X466773Y133078D01*
X466589Y132153D01*
X466773Y131229D01*
X467296Y130446D01*
X468080Y129922D01*
X469004Y129739D01*
X471760D01*
X472684Y129922D01*
X473467Y130446D01*
X473991Y131229D01*
X474175Y132153D01*
X473991Y133078D01*
X473467Y133861D01*
X472684Y134385D01*
X471760Y134569D01*
D02*
G37*
G36*
X346063Y132620D02*
X345407Y132489D01*
X344851Y132117D01*
X344479Y131561D01*
X344349Y130905D01*
X344479Y130250D01*
X344851Y129693D01*
X345407Y129322D01*
X346063Y129192D01*
X346719Y129322D01*
X347275Y129693D01*
X347646Y130250D01*
X347777Y130905D01*
X347646Y131561D01*
X347275Y132117D01*
X346719Y132489D01*
X346063Y132620D01*
D02*
G37*
G36*
X461839Y130913D02*
X461070Y130760D01*
X460419Y130325D01*
X459984Y129674D01*
X459831Y128905D01*
X459984Y128137D01*
X460419Y127486D01*
X461070Y127051D01*
X461839Y126899D01*
X462607Y127051D01*
X463258Y127486D01*
X463693Y128137D01*
X463846Y128905D01*
X463693Y129674D01*
X463258Y130325D01*
X462607Y130760D01*
X461839Y130913D01*
D02*
G37*
G36*
X417891Y129237D02*
X417235Y129107D01*
X416679Y128735D01*
X416308Y128179D01*
X416177Y127524D01*
X416308Y126868D01*
X416679Y126312D01*
X417235Y125940D01*
X417891Y125809D01*
X418547Y125940D01*
X419103Y126312D01*
X419475Y126868D01*
X419605Y127524D01*
X419475Y128179D01*
X419103Y128735D01*
X418547Y129107D01*
X417891Y129237D01*
D02*
G37*
G36*
X388976Y125927D02*
X388320Y125796D01*
X387764Y125425D01*
X387393Y124869D01*
X387262Y124213D01*
X387393Y123557D01*
X387764Y123001D01*
X388320Y122629D01*
X388976Y122499D01*
X389632Y122629D01*
X390188Y123001D01*
X390560Y123557D01*
X390690Y124213D01*
X390560Y124869D01*
X390188Y125425D01*
X389632Y125796D01*
X388976Y125927D01*
D02*
G37*
G36*
X115756Y125860D02*
X115100Y125730D01*
X114544Y125358D01*
X114172Y124802D01*
X114042Y124146D01*
X114172Y123490D01*
X114544Y122934D01*
X115100Y122563D01*
X115756Y122432D01*
X116412Y122563D01*
X116968Y122934D01*
X117340Y123490D01*
X117470Y124146D01*
X117340Y124802D01*
X116968Y125358D01*
X116412Y125730D01*
X115756Y125860D01*
D02*
G37*
G36*
X131059Y125714D02*
X130403Y125584D01*
X129847Y125212D01*
X129475Y124656D01*
X129345Y124000D01*
X129475Y123344D01*
X129847Y122788D01*
X130403Y122416D01*
X131059Y122286D01*
X131715Y122416D01*
X132271Y122788D01*
X132643Y123344D01*
X132773Y124000D01*
X132643Y124656D01*
X132271Y125212D01*
X131715Y125584D01*
X131059Y125714D01*
D02*
G37*
G36*
X121059D02*
X120403Y125584D01*
X119847Y125212D01*
X119475Y124656D01*
X119345Y124000D01*
X119475Y123344D01*
X119847Y122788D01*
X120403Y122416D01*
X121059Y122286D01*
X121715Y122416D01*
X122271Y122788D01*
X122643Y123344D01*
X122773Y124000D01*
X122643Y124656D01*
X122271Y125212D01*
X121715Y125584D01*
X121059Y125714D01*
D02*
G37*
G36*
X388976Y121483D02*
X388320Y121353D01*
X387764Y120981D01*
X387393Y120425D01*
X387262Y119769D01*
X387393Y119113D01*
X387764Y118557D01*
X388320Y118186D01*
X388976Y118055D01*
X389632Y118186D01*
X390188Y118557D01*
X390560Y119113D01*
X390690Y119769D01*
X390560Y120425D01*
X390188Y120981D01*
X389632Y121353D01*
X388976Y121483D01*
D02*
G37*
G36*
X420276Y118643D02*
X419620Y118513D01*
X419064Y118141D01*
X418692Y117585D01*
X418562Y116929D01*
X418692Y116273D01*
X419064Y115717D01*
X419620Y115346D01*
X420276Y115215D01*
X420931Y115346D01*
X421488Y115717D01*
X421859Y116273D01*
X421990Y116929D01*
X421859Y117585D01*
X421488Y118141D01*
X420931Y118513D01*
X420276Y118643D01*
D02*
G37*
G36*
X397835Y118053D02*
X397179Y117922D01*
X396623Y117551D01*
X396251Y116995D01*
X396121Y116339D01*
X396251Y115683D01*
X396623Y115127D01*
X397179Y114755D01*
X397835Y114625D01*
X398491Y114755D01*
X399047Y115127D01*
X399418Y115683D01*
X399549Y116339D01*
X399418Y116995D01*
X399047Y117551D01*
X398491Y117922D01*
X397835Y118053D01*
D02*
G37*
G36*
X445079Y115690D02*
X444423Y115560D01*
X443867Y115188D01*
X443495Y114632D01*
X443365Y113976D01*
X443495Y113321D01*
X443867Y112764D01*
X444423Y112393D01*
X445079Y112262D01*
X445735Y112393D01*
X446291Y112764D01*
X446662Y113321D01*
X446793Y113976D01*
X446662Y114632D01*
X446291Y115188D01*
X445735Y115560D01*
X445079Y115690D01*
D02*
G37*
G36*
X461839Y115165D02*
X461070Y115012D01*
X460419Y114577D01*
X459984Y113926D01*
X459831Y113157D01*
X459984Y112389D01*
X460419Y111738D01*
X461070Y111303D01*
X461839Y111150D01*
X462607Y111303D01*
X463258Y111738D01*
X463693Y112389D01*
X463846Y113157D01*
X463693Y113926D01*
X463258Y114577D01*
X462607Y115012D01*
X461839Y115165D01*
D02*
G37*
G36*
X404856Y113525D02*
X404200Y113395D01*
X403644Y113023D01*
X403272Y112467D01*
X403142Y111811D01*
X403272Y111155D01*
X403644Y110599D01*
X404200Y110228D01*
X404856Y110097D01*
X405512Y110228D01*
X406068Y110599D01*
X406439Y111155D01*
X406570Y111811D01*
X406439Y112467D01*
X406068Y113023D01*
X405512Y113395D01*
X404856Y113525D01*
D02*
G37*
G36*
X382438Y111950D02*
X381783Y111820D01*
X381226Y111448D01*
X380855Y110892D01*
X380724Y110236D01*
X380855Y109580D01*
X381226Y109024D01*
X381783Y108653D01*
X382438Y108522D01*
X383094Y108653D01*
X383650Y109024D01*
X384022Y109580D01*
X384153Y110236D01*
X384022Y110892D01*
X383650Y111448D01*
X383094Y111820D01*
X382438Y111950D01*
D02*
G37*
G36*
X471760Y112324D02*
X469004D01*
X468080Y112141D01*
X467296Y111617D01*
X466773Y110834D01*
X466589Y109909D01*
X466773Y108985D01*
X467296Y108202D01*
X468080Y107678D01*
X469004Y107495D01*
X471760D01*
X472684Y107678D01*
X473467Y108202D01*
X473991Y108985D01*
X474175Y109909D01*
X473991Y110834D01*
X473467Y111617D01*
X472684Y112141D01*
X471760Y112324D01*
D02*
G37*
G36*
X253870Y105714D02*
X253214Y105584D01*
X252658Y105212D01*
X252287Y104656D01*
X252156Y104000D01*
X252287Y103344D01*
X252658Y102788D01*
X253214Y102416D01*
X253870Y102286D01*
X254526Y102416D01*
X255082Y102788D01*
X255454Y103344D01*
X255584Y104000D01*
X255454Y104656D01*
X255082Y105212D01*
X254526Y105584D01*
X253870Y105714D01*
D02*
G37*
G36*
X378740Y90251D02*
X378084Y90120D01*
X377528Y89749D01*
X377157Y89192D01*
X377026Y88537D01*
X377157Y87881D01*
X377528Y87325D01*
X378084Y86953D01*
X378740Y86822D01*
X379396Y86953D01*
X379952Y87325D01*
X380324Y87881D01*
X380454Y88537D01*
X380324Y89192D01*
X379952Y89749D01*
X379396Y90120D01*
X378740Y90251D01*
D02*
G37*
G36*
X465071Y98441D02*
X464063D01*
X463985Y98425D01*
X463906D01*
X462917Y98229D01*
X462844Y98198D01*
X462767Y98183D01*
X461835Y97797D01*
X461770Y97753D01*
X461697Y97723D01*
X460858Y97163D01*
X460802Y97107D01*
X460737Y97063D01*
X460024Y96350D01*
X459980Y96284D01*
X459924Y96228D01*
X459364Y95390D01*
X459334Y95317D01*
X459290Y95251D01*
X458904Y94320D01*
X458888Y94242D01*
X458858Y94169D01*
X458661Y93180D01*
Y93101D01*
X458646Y93024D01*
Y92016D01*
X458661Y91938D01*
Y91859D01*
X458858Y90870D01*
X458888Y90797D01*
X458904Y90720D01*
X459290Y89788D01*
X459334Y89722D01*
X459364Y89649D01*
X459924Y88811D01*
X459980Y88755D01*
X460024Y88689D01*
X460737Y87976D01*
X460802Y87933D01*
X460858Y87877D01*
X461697Y87317D01*
X461770Y87286D01*
X461835Y87242D01*
X462767Y86857D01*
X462844Y86841D01*
X462917Y86811D01*
X463906Y86614D01*
X463985D01*
X464063Y86599D01*
X465071D01*
X465149Y86614D01*
X465228D01*
X466216Y86811D01*
X466290Y86841D01*
X466367Y86857D01*
X467299Y87242D01*
X467364Y87286D01*
X467437Y87317D01*
X468276Y87877D01*
X468331Y87933D01*
X468397Y87976D01*
X469110Y88689D01*
X469154Y88755D01*
X469210Y88811D01*
X469770Y89649D01*
X469800Y89722D01*
X469844Y89788D01*
X470230Y90720D01*
X470246Y90797D01*
X470276Y90870D01*
X470472Y91859D01*
Y91938D01*
X470488Y92016D01*
Y93024D01*
X470472Y93101D01*
Y93180D01*
X470276Y94169D01*
X470246Y94242D01*
X470230Y94320D01*
X469844Y95251D01*
X469800Y95317D01*
X469770Y95390D01*
X469210Y96228D01*
X469154Y96284D01*
X469110Y96350D01*
X468397Y97063D01*
X468331Y97107D01*
X468276Y97163D01*
X467437Y97723D01*
X467364Y97753D01*
X467299Y97797D01*
X466367Y98183D01*
X466290Y98198D01*
X466216Y98229D01*
X465228Y98425D01*
X465149D01*
X465071Y98441D01*
D02*
G37*
G36*
X334253Y76074D02*
X333597Y75943D01*
X333041Y75572D01*
X332669Y75016D01*
X332539Y74360D01*
X332669Y73704D01*
X333041Y73148D01*
X333597Y72776D01*
X334253Y72646D01*
X334909Y72776D01*
X335465Y73148D01*
X335837Y73704D01*
X335967Y74360D01*
X335837Y75016D01*
X335465Y75572D01*
X334909Y75943D01*
X334253Y76074D01*
D02*
G37*
G36*
X380500Y72214D02*
X379844Y72084D01*
X379288Y71712D01*
X378916Y71156D01*
X378786Y70500D01*
X378916Y69844D01*
X379288Y69288D01*
X379844Y68916D01*
X380500Y68786D01*
X381156Y68916D01*
X381712Y69288D01*
X382084Y69844D01*
X382214Y70500D01*
X382084Y71156D01*
X381712Y71712D01*
X381156Y72084D01*
X380500Y72214D01*
D02*
G37*
G36*
X349500Y71714D02*
X348844Y71584D01*
X348288Y71212D01*
X347916Y70656D01*
X347786Y70000D01*
X347916Y69344D01*
X348288Y68788D01*
X348844Y68416D01*
X349500Y68286D01*
X350156Y68416D01*
X350712Y68788D01*
X351084Y69344D01*
X351214Y70000D01*
X351084Y70656D01*
X350712Y71212D01*
X350156Y71584D01*
X349500Y71714D01*
D02*
G37*
G36*
X459987Y72595D02*
X459211Y72493D01*
X458487Y72193D01*
X457866Y71716D01*
X457389Y71095D01*
X457089Y70371D01*
X456987Y69595D01*
X457089Y68818D01*
X457389Y68094D01*
X457866Y67473D01*
X458487Y66996D01*
X459211Y66696D01*
X459987Y66594D01*
X460764Y66696D01*
X461487Y66996D01*
X462109Y67473D01*
X462586Y68094D01*
X462886Y68818D01*
X462988Y69595D01*
X462886Y70371D01*
X462586Y71095D01*
X462109Y71716D01*
X461487Y72193D01*
X460764Y72493D01*
X459987Y72595D01*
D02*
G37*
G36*
X439987D02*
X439211Y72493D01*
X438487Y72193D01*
X437866Y71716D01*
X437389Y71095D01*
X437089Y70371D01*
X436987Y69595D01*
X437089Y68818D01*
X437389Y68094D01*
X437866Y67473D01*
X438487Y66996D01*
X439211Y66696D01*
X439987Y66594D01*
X440764Y66696D01*
X441488Y66996D01*
X442109Y67473D01*
X442586Y68094D01*
X442885Y68818D01*
X442988Y69595D01*
X442885Y70371D01*
X442586Y71095D01*
X442109Y71716D01*
X441488Y72193D01*
X440764Y72493D01*
X439987Y72595D01*
D02*
G37*
G36*
X313310Y66517D02*
X312654Y66387D01*
X312098Y66015D01*
X311726Y65459D01*
X311596Y64803D01*
X311726Y64147D01*
X312098Y63591D01*
X312654Y63220D01*
X313310Y63089D01*
X313966Y63220D01*
X314522Y63591D01*
X314893Y64147D01*
X315024Y64803D01*
X314893Y65459D01*
X314522Y66015D01*
X313966Y66387D01*
X313310Y66517D01*
D02*
G37*
G36*
X439987Y62595D02*
X439211Y62493D01*
X438487Y62193D01*
X437866Y61716D01*
X437389Y61095D01*
X437089Y60371D01*
X436987Y59595D01*
X437089Y58818D01*
X437389Y58094D01*
X437866Y57473D01*
X438487Y56996D01*
X439211Y56696D01*
X439987Y56594D01*
X440764Y56696D01*
X441488Y56996D01*
X442109Y57473D01*
X442586Y58094D01*
X442885Y58818D01*
X442988Y59595D01*
X442885Y60371D01*
X442586Y61095D01*
X442109Y61716D01*
X441488Y62193D01*
X440764Y62493D01*
X439987Y62595D01*
D02*
G37*
G36*
X459987Y52595D02*
X459211Y52493D01*
X458487Y52193D01*
X457866Y51716D01*
X457389Y51095D01*
X457089Y50371D01*
X456987Y49595D01*
X457089Y48818D01*
X457389Y48094D01*
X457866Y47473D01*
X458487Y46996D01*
X459211Y46696D01*
X459987Y46594D01*
X460764Y46696D01*
X461487Y46996D01*
X462109Y47473D01*
X462586Y48094D01*
X462886Y48818D01*
X462988Y49595D01*
X462886Y50371D01*
X462586Y51095D01*
X462109Y51716D01*
X461487Y52193D01*
X460764Y52493D01*
X459987Y52595D01*
D02*
G37*
G36*
X439987D02*
X439211Y52493D01*
X438487Y52193D01*
X437866Y51716D01*
X437389Y51095D01*
X437089Y50371D01*
X436987Y49595D01*
X437089Y48818D01*
X437389Y48094D01*
X437866Y47473D01*
X438487Y46996D01*
X439211Y46696D01*
X439987Y46594D01*
X440764Y46696D01*
X441488Y46996D01*
X442109Y47473D01*
X442586Y48094D01*
X442885Y48818D01*
X442988Y49595D01*
X442885Y50371D01*
X442586Y51095D01*
X442109Y51716D01*
X441488Y52193D01*
X440764Y52493D01*
X439987Y52595D01*
D02*
G37*
%LPD*%
D44*
X451968Y155512D02*
D03*
D47*
X356990Y179498D02*
D03*
X326675D02*
D03*
X202134D02*
D03*
X171819D02*
D03*
X279562D02*
D03*
X249247D02*
D03*
X434417D02*
D03*
X404102D02*
D03*
D49*
X93154Y154951D02*
D03*
Y162175D02*
D03*
X96766Y151339D02*
D03*
Y158563D02*
D03*
Y165787D02*
D03*
X100378Y154951D02*
D03*
Y162175D02*
D03*
X103990Y151339D02*
D03*
Y158563D02*
D03*
Y165787D02*
D03*
X107602Y154951D02*
D03*
Y162175D02*
D03*
X336221Y124409D02*
D03*
X210630Y147244D02*
D03*
X268504Y124606D02*
D03*
X437205Y193898D02*
D03*
X464764Y115945D02*
D03*
X269291Y80905D02*
D03*
X270866Y101378D02*
D03*
X314764Y81299D02*
D03*
X291732Y78937D02*
D03*
X299213Y81496D02*
D03*
X287598Y131102D02*
D03*
X305906Y131496D02*
D03*
X312992Y131299D02*
D03*
X359842Y107677D02*
D03*
X361614Y90748D02*
D03*
X428543Y61221D02*
D03*
X439961Y182677D02*
D03*
X448032Y191929D02*
D03*
X446850Y156693D02*
D03*
X457480Y158268D02*
D03*
X446697Y151307D02*
D03*
X457677Y152953D02*
D03*
X454134Y182087D02*
D03*
X212795Y165157D02*
D03*
X449606Y115945D02*
D03*
X428937Y108661D02*
D03*
X439567Y117717D02*
D03*
X436024Y129134D02*
D03*
X428937Y117323D02*
D03*
X309121Y77953D02*
D03*
X332677Y104921D02*
D03*
X434646Y174409D02*
D03*
X320276Y182283D02*
D03*
X421654Y134055D02*
D03*
X422441Y120472D02*
D03*
X445472Y133465D02*
D03*
X471260Y102559D02*
D03*
X194488Y184449D02*
D03*
X274606Y183858D02*
D03*
X122244Y173819D02*
D03*
X169291Y167717D02*
D03*
X294291Y160236D02*
D03*
X318504Y175394D02*
D03*
X403150Y168307D02*
D03*
X156102Y155905D02*
D03*
X361417Y135236D02*
D03*
X248228Y148228D02*
D03*
X248425Y131693D02*
D03*
X208858Y121653D02*
D03*
X403150Y132874D02*
D03*
X347638Y151378D02*
D03*
X264567Y96653D02*
D03*
X342520Y95079D02*
D03*
X165945Y43898D02*
D03*
X316142Y43701D02*
D03*
X274410D02*
D03*
X233858Y43504D02*
D03*
X197244Y42520D02*
D03*
X368504Y43307D02*
D03*
X399410Y73032D02*
D03*
X418898Y80315D02*
D03*
X405905Y42520D02*
D03*
X452953Y43307D02*
D03*
X469291Y62205D02*
D03*
X469685Y140157D02*
D03*
X415945Y156299D02*
D03*
Y176575D02*
D03*
X359252Y190551D02*
D03*
X327756Y200591D02*
D03*
X293504Y188189D02*
D03*
X232677Y160630D02*
D03*
X189370Y153150D02*
D03*
X139961Y193701D02*
D03*
X115157Y189961D02*
D03*
X131890Y164567D02*
D03*
X115354Y144685D02*
D03*
X123425Y153543D02*
D03*
X88779Y137008D02*
D03*
X78150Y162992D02*
D03*
X88189Y184055D02*
D03*
X181496Y141732D02*
D03*
X163779Y100197D02*
D03*
X170079Y128150D02*
D03*
X165551Y124213D02*
D03*
X186614Y96260D02*
D03*
X216535Y106299D02*
D03*
X230906Y130905D02*
D03*
X215945Y130315D02*
D03*
X229592Y141891D02*
D03*
X323819Y131299D02*
D03*
X341929Y119488D02*
D03*
X328740Y52559D02*
D03*
X347835D02*
D03*
X354331Y57480D02*
D03*
X369094Y60039D02*
D03*
X387992Y48622D02*
D03*
X408071Y96653D02*
D03*
X393898Y101378D02*
D03*
X455118Y66535D02*
D03*
X445472Y98819D02*
D03*
X428346Y86811D02*
D03*
X429724Y155118D02*
D03*
X425591Y198622D02*
D03*
X390354Y194685D02*
D03*
X389961Y177953D02*
D03*
X229134Y182874D02*
D03*
X238386Y173031D02*
D03*
X148031Y182677D02*
D03*
X71063Y188976D02*
D03*
X147835Y175394D02*
D03*
X147441Y140748D02*
D03*
X73425Y123228D02*
D03*
X75984Y147441D02*
D03*
X173819Y113583D02*
D03*
X191929Y85630D02*
D03*
X191732Y65354D02*
D03*
X163779Y68504D02*
D03*
X178347Y68110D02*
D03*
X244685Y114567D02*
D03*
X236614Y79724D02*
D03*
X255118Y79331D02*
D03*
X220079Y66929D02*
D03*
X324081Y63976D02*
D03*
X295932D02*
D03*
X281758Y63189D02*
D03*
X323688Y82677D02*
D03*
X374606Y123819D02*
D03*
M02*
