G04*
G04 #@! TF.GenerationSoftware,Altium Limited,Altium Designer,21.9.2 (33)*
G04*
G04 Layer_Color=8388736*
%FSLAX25Y25*%
%MOIN*%
G70*
G04*
G04 #@! TF.SameCoordinates,7D1BAC6E-B471-4F52-9471-A17197207182*
G04*
G04*
G04 #@! TF.FilePolarity,Negative*
G04*
G01*
G75*
%ADD25R,0.04528X0.04921*%
%ADD26R,0.04331X0.04134*%
%ADD27R,0.04331X0.09055*%
%ADD28R,0.13386X0.09055*%
%ADD29R,0.11614X0.04528*%
%ADD30R,0.05512X0.04134*%
%ADD31R,0.04134X0.08465*%
%ADD32R,0.08465X0.04134*%
%ADD33R,0.05827X0.05827*%
%ADD34C,0.05976*%
%ADD35R,0.05976X0.05976*%
%ADD36C,0.05740*%
%ADD37O,0.09252X0.06102*%
%ADD38C,0.00591*%
%ADD39O,0.07284X0.04528*%
%ADD40C,0.02953*%
D25*
X444850Y86290D02*
D03*
Y79597D02*
D03*
D26*
X441339Y190256D02*
D03*
Y196358D02*
D03*
X434366Y105362D02*
D03*
Y111465D02*
D03*
X441366Y105362D02*
D03*
Y111465D02*
D03*
X448866Y105362D02*
D03*
Y111465D02*
D03*
X456366Y105362D02*
D03*
Y111465D02*
D03*
X437205Y79823D02*
D03*
Y85925D02*
D03*
D27*
X436024Y121260D02*
D03*
X445079D02*
D03*
X454134D02*
D03*
D28*
X445079Y144095D02*
D03*
D29*
X353249Y162765D02*
D03*
X330415D02*
D03*
X353249Y178513D02*
D03*
X330415D02*
D03*
X198394Y162765D02*
D03*
X175559D02*
D03*
X198394Y178513D02*
D03*
X175559D02*
D03*
X275821Y162765D02*
D03*
X252987D02*
D03*
X275821Y178513D02*
D03*
X252987D02*
D03*
X430677Y162765D02*
D03*
X407842D02*
D03*
X430677Y178513D02*
D03*
X407842D02*
D03*
D30*
X334253Y167686D02*
D03*
X349411D02*
D03*
X334253Y173592D02*
D03*
X349411D02*
D03*
X179398Y167686D02*
D03*
X194555D02*
D03*
X179398Y173592D02*
D03*
X194555D02*
D03*
X256825Y167686D02*
D03*
X271983D02*
D03*
X256825Y173592D02*
D03*
X271983D02*
D03*
X411681Y167686D02*
D03*
X426839D02*
D03*
X411681Y173592D02*
D03*
X426839D02*
D03*
D31*
X70850Y129035D02*
D03*
X75850D02*
D03*
X80850D02*
D03*
X85850D02*
D03*
X90850D02*
D03*
X95850D02*
D03*
X100850D02*
D03*
X105850D02*
D03*
X110850D02*
D03*
X115850D02*
D03*
X120850D02*
D03*
X125850D02*
D03*
X130850D02*
D03*
X135850D02*
D03*
Y195965D02*
D03*
X130850D02*
D03*
X125850D02*
D03*
X120850D02*
D03*
X115850D02*
D03*
X110850D02*
D03*
X105850D02*
D03*
X100850D02*
D03*
X95850D02*
D03*
X90850D02*
D03*
X85850D02*
D03*
X80850D02*
D03*
X75850D02*
D03*
X70850D02*
D03*
D32*
X139787Y140000D02*
D03*
Y145000D02*
D03*
Y150000D02*
D03*
Y155000D02*
D03*
Y160000D02*
D03*
Y165000D02*
D03*
Y170000D02*
D03*
Y175000D02*
D03*
Y180000D02*
D03*
Y185000D02*
D03*
D33*
X93154Y151339D02*
D03*
Y158563D02*
D03*
Y165787D02*
D03*
X100378Y151339D02*
D03*
Y158563D02*
D03*
Y165787D02*
D03*
X107602Y151339D02*
D03*
Y158563D02*
D03*
Y165787D02*
D03*
D34*
X451968Y155512D02*
D03*
D35*
Y163386D02*
D03*
D36*
X459987Y49595D02*
D03*
Y69595D02*
D03*
X439987Y49595D02*
D03*
Y59595D02*
D03*
Y69595D02*
D03*
D37*
X326675Y161781D02*
D03*
X356990D02*
D03*
Y179498D02*
D03*
X326675D02*
D03*
X171819Y161781D02*
D03*
X202134D02*
D03*
Y179498D02*
D03*
X171819D02*
D03*
X249247Y161781D02*
D03*
X279562D02*
D03*
Y179498D02*
D03*
X249247D02*
D03*
X404102Y161781D02*
D03*
X434417D02*
D03*
Y179498D02*
D03*
X404102D02*
D03*
D38*
X461839Y113157D02*
D03*
Y128905D02*
D03*
D39*
X470382Y132153D02*
D03*
Y109909D02*
D03*
D40*
X93154Y154951D02*
D03*
Y162175D02*
D03*
X96766Y151339D02*
D03*
Y158563D02*
D03*
Y165787D02*
D03*
X100378Y154951D02*
D03*
Y162175D02*
D03*
X103990Y151339D02*
D03*
Y158563D02*
D03*
Y165787D02*
D03*
X107602Y154951D02*
D03*
Y162175D02*
D03*
M02*
