G04*
G04 #@! TF.GenerationSoftware,Altium Limited,Altium Designer,21.9.2 (33)*
G04*
G04 Layer_Physical_Order=4*
G04 Layer_Color=16711680*
%FSLAX25Y25*%
%MOIN*%
G70*
G04*
G04 #@! TF.SameCoordinates,7D1BAC6E-B471-4F52-9471-A17197207182*
G04*
G04*
G04 #@! TF.FilePolarity,Positive*
G04*
G01*
G75*
%ADD15C,0.01000*%
%ADD16R,0.03937X0.04331*%
%ADD17R,0.03740X0.03543*%
%ADD21R,0.04921X0.03543*%
%ADD41C,0.00800*%
%ADD42C,0.01800*%
%ADD43C,0.02000*%
%ADD44C,0.05386*%
%ADD45R,0.05386X0.05386*%
%ADD46C,0.05150*%
%ADD47O,0.08661X0.05512*%
%ADD48O,0.06693X0.03937*%
%ADD49C,0.02362*%
%ADD50R,0.03150X0.04409*%
%ADD51R,0.01181X0.39370*%
%ADD52R,0.00984X0.39370*%
G04:AMPARAMS|DCode=53|XSize=48.03mil|YSize=23.62mil|CornerRadius=5.91mil|HoleSize=0mil|Usage=FLASHONLY|Rotation=90.000|XOffset=0mil|YOffset=0mil|HoleType=Round|Shape=RoundedRectangle|*
%AMROUNDEDRECTD53*
21,1,0.04803,0.01181,0,0,90.0*
21,1,0.03622,0.02362,0,0,90.0*
1,1,0.01181,0.00591,0.01811*
1,1,0.01181,0.00591,-0.01811*
1,1,0.01181,-0.00591,-0.01811*
1,1,0.01181,-0.00591,0.01811*
%
%ADD53ROUNDEDRECTD53*%
%ADD54R,0.03937X0.05512*%
%ADD55R,0.05512X0.01575*%
%ADD56R,0.06299X0.08268*%
%ADD57R,0.07480X0.06890*%
%ADD58C,0.05906*%
%ADD59R,0.05800X0.02200*%
G04:AMPARAMS|DCode=60|XSize=23.23mil|YSize=51.18mil|CornerRadius=1.74mil|HoleSize=0mil|Usage=FLASHONLY|Rotation=90.000|XOffset=0mil|YOffset=0mil|HoleType=Round|Shape=RoundedRectangle|*
%AMROUNDEDRECTD60*
21,1,0.02323,0.04770,0,0,90.0*
21,1,0.01974,0.05118,0,0,90.0*
1,1,0.00348,0.02385,0.00987*
1,1,0.00348,0.02385,-0.00987*
1,1,0.00348,-0.02385,-0.00987*
1,1,0.00348,-0.02385,0.00987*
%
%ADD60ROUNDEDRECTD60*%
G04:AMPARAMS|DCode=61|XSize=38.98mil|YSize=51.18mil|CornerRadius=2.92mil|HoleSize=0mil|Usage=FLASHONLY|Rotation=90.000|XOffset=0mil|YOffset=0mil|HoleType=Round|Shape=RoundedRectangle|*
%AMROUNDEDRECTD61*
21,1,0.03898,0.04534,0,0,90.0*
21,1,0.03313,0.05118,0,0,90.0*
1,1,0.00585,0.02267,0.01657*
1,1,0.00585,0.02267,-0.01657*
1,1,0.00585,-0.02267,-0.01657*
1,1,0.00585,-0.02267,0.01657*
%
%ADD61ROUNDEDRECTD61*%
%ADD62R,0.12402X0.12402*%
G04:AMPARAMS|DCode=63|XSize=10.24mil|YSize=38.19mil|CornerRadius=2.56mil|HoleSize=0mil|Usage=FLASHONLY|Rotation=180.000|XOffset=0mil|YOffset=0mil|HoleType=Round|Shape=RoundedRectangle|*
%AMROUNDEDRECTD63*
21,1,0.01024,0.03307,0,0,180.0*
21,1,0.00512,0.03819,0,0,180.0*
1,1,0.00512,-0.00256,0.01654*
1,1,0.00512,0.00256,0.01654*
1,1,0.00512,0.00256,-0.01654*
1,1,0.00512,-0.00256,-0.01654*
%
%ADD63ROUNDEDRECTD63*%
G04:AMPARAMS|DCode=64|XSize=10.24mil|YSize=38.19mil|CornerRadius=2.56mil|HoleSize=0mil|Usage=FLASHONLY|Rotation=270.000|XOffset=0mil|YOffset=0mil|HoleType=Round|Shape=RoundedRectangle|*
%AMROUNDEDRECTD64*
21,1,0.01024,0.03307,0,0,270.0*
21,1,0.00512,0.03819,0,0,270.0*
1,1,0.00512,-0.01654,-0.00256*
1,1,0.00512,-0.01654,0.00256*
1,1,0.00512,0.01654,0.00256*
1,1,0.00512,0.01654,-0.00256*
%
%ADD64ROUNDEDRECTD64*%
G04:AMPARAMS|DCode=65|XSize=49.61mil|YSize=23.23mil|CornerRadius=2.9mil|HoleSize=0mil|Usage=FLASHONLY|Rotation=180.000|XOffset=0mil|YOffset=0mil|HoleType=Round|Shape=RoundedRectangle|*
%AMROUNDEDRECTD65*
21,1,0.04961,0.01742,0,0,180.0*
21,1,0.04380,0.02323,0,0,180.0*
1,1,0.00581,-0.02190,0.00871*
1,1,0.00581,0.02190,0.00871*
1,1,0.00581,0.02190,-0.00871*
1,1,0.00581,-0.02190,-0.00871*
%
%ADD65ROUNDEDRECTD65*%
%ADD66R,0.03543X0.03740*%
G04:AMPARAMS|DCode=67|XSize=47.64mil|YSize=23.23mil|CornerRadius=5.81mil|HoleSize=0mil|Usage=FLASHONLY|Rotation=90.000|XOffset=0mil|YOffset=0mil|HoleType=Round|Shape=RoundedRectangle|*
%AMROUNDEDRECTD67*
21,1,0.04764,0.01161,0,0,90.0*
21,1,0.03602,0.02323,0,0,90.0*
1,1,0.01161,0.00581,0.01801*
1,1,0.01161,0.00581,-0.01801*
1,1,0.01161,-0.00581,-0.01801*
1,1,0.01161,-0.00581,0.01801*
%
%ADD67ROUNDEDRECTD67*%
%ADD68R,0.10630X0.03150*%
%ADD69O,0.13780X0.07087*%
%ADD70C,0.01200*%
G36*
X460907Y202611D02*
X461513Y202490D01*
X462083Y202254D01*
X462596Y201911D01*
X463033Y201474D01*
X463376Y200961D01*
X463612Y200391D01*
X463733Y199785D01*
X463733Y199476D01*
X463733Y149575D01*
X463736Y149555D01*
X463734Y149535D01*
X463757Y149053D01*
X463772Y148995D01*
Y148936D01*
X463960Y147990D01*
X463990Y147917D01*
X464006Y147839D01*
X464375Y146948D01*
X464419Y146882D01*
X464449Y146809D01*
X464985Y146007D01*
X465041Y145951D01*
X465085Y145885D01*
X465767Y145203D01*
X465833Y145159D01*
X465889Y145103D01*
X466691Y144567D01*
X466764Y144537D01*
X466830Y144493D01*
X467721Y144124D01*
X467798Y144108D01*
X467872Y144078D01*
X468818Y143890D01*
X468877D01*
X468935Y143875D01*
X469417Y143852D01*
X469437Y143855D01*
X469457Y143851D01*
X471425D01*
X471831Y143851D01*
X472626Y143693D01*
X473376Y143382D01*
X474051Y142931D01*
X474624Y142358D01*
X475075Y141683D01*
X475385Y140934D01*
X475544Y140138D01*
Y139732D01*
X475544Y42587D01*
Y42278D01*
X475423Y41672D01*
X475187Y41102D01*
X474844Y40589D01*
X474407Y40152D01*
X473894Y39809D01*
X473324Y39573D01*
X472718Y39452D01*
X164227D01*
X163621Y39573D01*
X163051Y39809D01*
X162538Y40152D01*
X162101Y40589D01*
X161758Y41102D01*
X161522Y41672D01*
X161401Y42278D01*
X161401Y42587D01*
Y101051D01*
X161399Y101064D01*
X161401Y101077D01*
X161359Y102365D01*
X161350Y102404D01*
X161352Y102443D01*
X161016Y104996D01*
X160999Y105046D01*
X160996Y105099D01*
X160329Y107587D01*
X160306Y107634D01*
X160295Y107686D01*
X159310Y110065D01*
X159281Y110109D01*
X159264Y110159D01*
X157976Y112389D01*
X157941Y112429D01*
X157918Y112476D01*
X156350Y114519D01*
X156310Y114554D01*
X156281Y114598D01*
X154460Y116419D01*
X154416Y116448D01*
X154381Y116488D01*
X152339Y118056D01*
X152291Y118079D01*
X152251Y118114D01*
X150021Y119401D01*
X149971Y119418D01*
X149927Y119448D01*
X147548Y120433D01*
X147496Y120443D01*
X147449Y120467D01*
X144962Y121133D01*
X144909Y121137D01*
X144859Y121154D01*
X142306Y121490D01*
X142266Y121487D01*
X142227Y121496D01*
X140940Y121539D01*
X140927Y121536D01*
X140913Y121539D01*
X70047Y121539D01*
X69739D01*
X69133Y121659D01*
X68563Y121896D01*
X68049Y122239D01*
X67613Y122675D01*
X67270Y123189D01*
X67033Y123759D01*
X66913Y124365D01*
Y124673D01*
Y199476D01*
Y199785D01*
X67033Y200391D01*
X67270Y200961D01*
X67613Y201474D01*
X68049Y201911D01*
X68563Y202254D01*
X69133Y202490D01*
X69739Y202611D01*
X134826D01*
X134978Y202111D01*
X134812Y201999D01*
X134629Y201726D01*
X134599Y201716D01*
X134483Y201690D01*
X134347Y201667D01*
X133736Y201623D01*
X133490Y201620D01*
X133449Y201603D01*
X129528D01*
X129528Y201603D01*
X129215Y201541D01*
X128951Y201364D01*
X128951Y201364D01*
X127573Y199986D01*
X127396Y199722D01*
X127334Y199409D01*
X127334Y199409D01*
Y190775D01*
X126834Y190624D01*
X126680Y190854D01*
X126124Y191225D01*
X125468Y191356D01*
X124812Y191225D01*
X124256Y190854D01*
X124074Y190580D01*
X124044Y190570D01*
X123928Y190544D01*
X123792Y190521D01*
X123181Y190477D01*
X122935Y190474D01*
X122881Y190452D01*
X122597Y190395D01*
X122333Y190218D01*
X122333Y190218D01*
X119815Y187701D01*
X119211Y188165D01*
X118395Y188503D01*
X117520Y188618D01*
X116645Y188503D01*
X115829Y188165D01*
X115129Y187627D01*
X114591Y186927D01*
X114253Y186111D01*
X114138Y185236D01*
X114253Y184361D01*
X114591Y183545D01*
X115129Y182845D01*
X115829Y182308D01*
X116645Y181970D01*
X117520Y181854D01*
X118395Y181970D01*
X119211Y182308D01*
X119911Y182845D01*
X120448Y183545D01*
X120786Y184361D01*
X120901Y185236D01*
X120786Y186111D01*
X120712Y186291D01*
X123223Y188801D01*
X123411Y188797D01*
X123787Y188762D01*
X123928Y188739D01*
X124044Y188713D01*
X124074Y188703D01*
X124256Y188430D01*
X124812Y188058D01*
X125468Y187927D01*
X126124Y188058D01*
X126680Y188430D01*
X126834Y188659D01*
X127334Y188508D01*
Y182302D01*
X127317Y182264D01*
X127305Y181782D01*
X127270Y181405D01*
X127247Y181265D01*
X127221Y181149D01*
X127211Y181119D01*
X126938Y180936D01*
X126566Y180380D01*
X126436Y179724D01*
X126566Y179069D01*
X126938Y178512D01*
X127494Y178141D01*
X128150Y178010D01*
X128805Y178141D01*
X129362Y178512D01*
X129733Y179069D01*
X129864Y179724D01*
X129733Y180380D01*
X129362Y180936D01*
X129088Y181119D01*
X129078Y181149D01*
X129052Y181265D01*
X129029Y181401D01*
X128986Y182012D01*
X128982Y182258D01*
X128965Y182299D01*
Y188735D01*
X129324Y189076D01*
X129465Y189076D01*
X131985D01*
Y191247D01*
Y193419D01*
X129465D01*
X129324Y193419D01*
X128965Y193759D01*
Y194641D01*
X129324Y194981D01*
X129465Y194981D01*
X135046D01*
Y196337D01*
X144083D01*
X144290Y195837D01*
X142238Y193785D01*
X142061Y193521D01*
X141999Y193209D01*
X141999Y193209D01*
Y185470D01*
X140643D01*
Y180930D01*
X141999D01*
Y177970D01*
X140643D01*
Y173430D01*
X141340D01*
X141531Y172968D01*
X141032Y172469D01*
X129134D01*
X129134Y172469D01*
X128822Y172407D01*
X128557Y172230D01*
X128557Y172230D01*
X118880Y162554D01*
X118704Y162289D01*
X118642Y161977D01*
X118642Y161977D01*
Y160616D01*
X118624Y160577D01*
X118614Y160093D01*
X118583Y159709D01*
X118562Y159562D01*
X118537Y159439D01*
X118528Y159407D01*
X118389Y159314D01*
X118017Y158758D01*
X117887Y158102D01*
X118017Y157446D01*
X118389Y156890D01*
X118945Y156518D01*
X119601Y156388D01*
X120257Y156518D01*
X120813Y156890D01*
X121184Y157446D01*
X121315Y158102D01*
X121184Y158758D01*
X120813Y159314D01*
X120390Y159596D01*
X120364Y159700D01*
X120340Y159829D01*
X120293Y160432D01*
X120290Y160678D01*
X120280Y160702D01*
X120287Y160728D01*
X120273Y160752D01*
Y161639D01*
X129472Y170838D01*
X134222D01*
X134541Y170470D01*
X134541Y170338D01*
Y165930D01*
X137685D01*
X139697Y163918D01*
X139995Y163719D01*
X140346Y163649D01*
X145701D01*
X145738Y163634D01*
X145996Y163632D01*
X146434Y163616D01*
X146765Y163585D01*
X146874Y163567D01*
X147016Y163355D01*
X147572Y162983D01*
X148228Y162853D01*
X148884Y162983D01*
X149440Y163355D01*
X149812Y163911D01*
X149942Y164567D01*
X149812Y165223D01*
X149440Y165779D01*
X148884Y166150D01*
X148228Y166281D01*
X147572Y166150D01*
X147016Y165779D01*
X146874Y165567D01*
X146772Y165550D01*
X145991Y165502D01*
X145738Y165500D01*
X145701Y165485D01*
X145118D01*
X144987Y165930D01*
X144987Y165985D01*
Y167384D01*
X149769D01*
X153909Y163245D01*
Y161775D01*
X153020D01*
X152751Y161721D01*
X152523Y161569D01*
X152370Y161340D01*
X152316Y161071D01*
Y160968D01*
X150203D01*
Y162324D01*
X144482D01*
Y160968D01*
X135046D01*
Y162324D01*
X130915D01*
X130878Y162511D01*
X130701Y162775D01*
X130701Y162775D01*
X130549Y162927D01*
X130534Y162967D01*
X130202Y163316D01*
X129960Y163606D01*
X129877Y163722D01*
X129814Y163823D01*
X129799Y163851D01*
X129864Y164173D01*
X129733Y164829D01*
X129362Y165385D01*
X128805Y165757D01*
X128150Y165887D01*
X127494Y165757D01*
X126938Y165385D01*
X126566Y164829D01*
X126436Y164173D01*
X126566Y163517D01*
X126938Y162961D01*
X127494Y162590D01*
X128150Y162459D01*
X128472Y162523D01*
X128500Y162509D01*
X128601Y162446D01*
X128713Y162365D01*
X129176Y161965D01*
X129309Y161835D01*
Y161524D01*
X129309Y161524D01*
X129324Y161446D01*
Y157981D01*
X135046D01*
Y159337D01*
X144482D01*
Y157981D01*
X150203D01*
Y159337D01*
X152316D01*
Y159329D01*
X152370Y159060D01*
X152523Y158831D01*
X152751Y158679D01*
X153020Y158625D01*
X157400D01*
X157670Y158679D01*
X157898Y158831D01*
X158051Y159060D01*
X158104Y159329D01*
Y161071D01*
X158051Y161340D01*
X157898Y161569D01*
X157670Y161721D01*
X157400Y161775D01*
X155540D01*
Y163583D01*
X155540Y163583D01*
X155478Y163895D01*
X155301Y164159D01*
X155301Y164160D01*
X150684Y168777D01*
X150419Y168954D01*
X150107Y169016D01*
X150107Y169016D01*
X144987D01*
Y170470D01*
X141889D01*
X141787Y170970D01*
X141947Y171077D01*
X143392Y172522D01*
X143392Y172522D01*
X143569Y172786D01*
X143631Y173099D01*
Y173430D01*
X144987D01*
Y177970D01*
X143631D01*
Y180930D01*
X144987D01*
Y185470D01*
X143631D01*
Y192871D01*
X143982Y193222D01*
X144482Y193015D01*
Y191447D01*
X147143D01*
Y193419D01*
X144886D01*
X144679Y193919D01*
X145741Y194981D01*
X150203D01*
Y196337D01*
X151131D01*
X153895Y193574D01*
Y192775D01*
X152520D01*
X152251Y192721D01*
X152023Y192569D01*
X151870Y192340D01*
X151816Y192071D01*
Y190329D01*
X151870Y190060D01*
X152023Y189831D01*
X152251Y189679D01*
X152520Y189625D01*
X156900D01*
X157170Y189679D01*
X157398Y189831D01*
X157551Y190060D01*
X157604Y190329D01*
Y192071D01*
X157551Y192340D01*
X157398Y192569D01*
X157170Y192721D01*
X156900Y192775D01*
X155526D01*
Y193912D01*
X155526Y193912D01*
X155464Y194224D01*
X155287Y194489D01*
X155287Y194489D01*
X152046Y197730D01*
X151781Y197906D01*
X151469Y197968D01*
X151469Y197968D01*
X150203D01*
Y199324D01*
X144482D01*
Y197968D01*
X135046D01*
Y198818D01*
X135123Y198911D01*
X135546Y199168D01*
X136024Y199073D01*
X136679Y199204D01*
X137236Y199575D01*
X137607Y200132D01*
X137738Y200787D01*
X137607Y201443D01*
X137236Y201999D01*
X137069Y202111D01*
X137221Y202611D01*
X460598D01*
X460907Y202611D01*
D02*
G37*
G36*
X135079Y200079D02*
X135021Y200137D01*
X134941Y200190D01*
X134839Y200236D01*
X134714Y200276D01*
X134567Y200310D01*
X134397Y200338D01*
X133991Y200375D01*
X133495Y200387D01*
Y201187D01*
X133754Y201190D01*
X134397Y201237D01*
X134567Y201265D01*
X134714Y201298D01*
X134839Y201339D01*
X134941Y201385D01*
X135021Y201437D01*
X135079Y201496D01*
Y200079D01*
D02*
G37*
G36*
X124523Y188933D02*
X124466Y188992D01*
X124386Y189044D01*
X124284Y189090D01*
X124159Y189130D01*
X124012Y189164D01*
X123842Y189192D01*
X123436Y189229D01*
X122940Y189242D01*
Y190042D01*
X123199Y190045D01*
X123842Y190091D01*
X124012Y190119D01*
X124159Y190153D01*
X124284Y190193D01*
X124386Y190239D01*
X124466Y190292D01*
X124523Y190350D01*
Y188933D01*
D02*
G37*
G36*
X128553Y181994D02*
X128599Y181351D01*
X128627Y181181D01*
X128661Y181034D01*
X128701Y180909D01*
X128747Y180807D01*
X128800Y180727D01*
X128858Y180669D01*
X127441D01*
X127500Y180727D01*
X127552Y180807D01*
X127598Y180909D01*
X127638Y181034D01*
X127672Y181181D01*
X127700Y181351D01*
X127737Y181757D01*
X127750Y182253D01*
X128550D01*
X128553Y181994D01*
D02*
G37*
G36*
X147283Y163858D02*
X147240Y163898D01*
X147172Y163933D01*
X147079Y163965D01*
X146962Y163992D01*
X146820Y164015D01*
X146462Y164048D01*
X146006Y164065D01*
X145741Y164067D01*
Y165067D01*
X146006Y165069D01*
X146820Y165119D01*
X146962Y165142D01*
X147079Y165169D01*
X147172Y165200D01*
X147240Y165236D01*
X147283Y165276D01*
Y163858D01*
D02*
G37*
G36*
X129318Y163924D02*
X129337Y163830D01*
X129377Y163725D01*
X129437Y163609D01*
X129517Y163481D01*
X129617Y163341D01*
X129878Y163028D01*
X130220Y162668D01*
X129655Y162102D01*
X129469Y162284D01*
X128982Y162706D01*
X128842Y162806D01*
X128714Y162886D01*
X128597Y162946D01*
X128492Y162985D01*
X128399Y163005D01*
X128317Y163004D01*
X129319Y164006D01*
X129318Y163924D01*
D02*
G37*
G36*
X119861Y160413D02*
X119910Y159774D01*
X119940Y159608D01*
X119977Y159465D01*
X120020Y159345D01*
X120070Y159249D01*
X120126Y159176D01*
X120189Y159126D01*
X118783Y158953D01*
X118835Y159017D01*
X118881Y159102D01*
X118923Y159210D01*
X118958Y159338D01*
X118989Y159489D01*
X119013Y159661D01*
X119046Y160071D01*
X119057Y160568D01*
X119857Y160672D01*
X119861Y160413D01*
D02*
G37*
%LPC*%
G36*
X435144Y198136D02*
X433074D01*
Y196165D01*
X435144D01*
Y198136D01*
D02*
G37*
G36*
X432674D02*
X430604D01*
Y196165D01*
X432674D01*
Y198136D01*
D02*
G37*
G36*
X441339Y202108D02*
X440683Y201977D01*
X440127Y201606D01*
X439755Y201050D01*
X439625Y200394D01*
X439755Y199738D01*
X439789Y199687D01*
X439738Y199429D01*
Y195807D01*
X439815Y195421D01*
X440034Y195093D01*
X440361Y194874D01*
X440748Y194797D01*
X441929D01*
X442316Y194874D01*
X442643Y195093D01*
X442862Y195421D01*
X442939Y195807D01*
Y199429D01*
X442888Y199687D01*
X442922Y199738D01*
X443053Y200394D01*
X442922Y201050D01*
X442551Y201606D01*
X441994Y201977D01*
X441339Y202108D01*
D02*
G37*
G36*
X402467Y196168D02*
X400397D01*
Y194196D01*
X402467D01*
Y196168D01*
D02*
G37*
G36*
X399997D02*
X397927D01*
Y194196D01*
X399997D01*
Y196168D01*
D02*
G37*
G36*
X435144Y195765D02*
X433074D01*
Y193793D01*
X435144D01*
Y195765D01*
D02*
G37*
G36*
X432674D02*
X430604D01*
Y193793D01*
X432674D01*
Y195765D01*
D02*
G37*
G36*
X449409Y200439D02*
X448228D01*
X447842Y200362D01*
X447514Y200143D01*
X447295Y199816D01*
X447218Y199429D01*
Y195807D01*
X447295Y195421D01*
X447514Y195093D01*
X447842Y194874D01*
X448228Y194797D01*
X449409D01*
X449796Y194874D01*
X450124Y195093D01*
X450343Y195421D01*
X450419Y195807D01*
Y196666D01*
X450919Y196746D01*
X452671Y194994D01*
X452671Y194994D01*
X452936Y194817D01*
X453248Y194755D01*
X456194D01*
Y193399D01*
X460735D01*
Y197742D01*
X456194D01*
Y196387D01*
X453586D01*
X451778Y198195D01*
X451513Y198372D01*
X451201Y198434D01*
X451201Y198434D01*
X450419D01*
Y199429D01*
X450343Y199816D01*
X450124Y200143D01*
X449796Y200362D01*
X449409Y200439D01*
D02*
G37*
G36*
X402467Y193796D02*
X400397D01*
Y191824D01*
X402467D01*
Y193796D01*
D02*
G37*
G36*
X399997D02*
X397927D01*
Y191824D01*
X399997D01*
Y193796D01*
D02*
G37*
G36*
X184479Y201911D02*
X183823Y201780D01*
X183267Y201409D01*
X182896Y200853D01*
X182765Y200197D01*
X182896Y199541D01*
X183267Y198985D01*
X183823Y198613D01*
X184479Y198483D01*
X185135Y198613D01*
X185691Y198985D01*
X185874Y199258D01*
X185904Y199268D01*
X186020Y199295D01*
X186156Y199317D01*
X186767Y199361D01*
X187013Y199364D01*
X187053Y199381D01*
X319150D01*
X322066Y196466D01*
X321942Y196168D01*
X321942D01*
Y191824D01*
X326483D01*
Y193180D01*
X329226D01*
Y191824D01*
X333766D01*
Y196168D01*
X329226D01*
Y194812D01*
X326483D01*
Y196168D01*
X324671D01*
X320065Y200774D01*
X319800Y200950D01*
X319488Y201012D01*
X319488Y201012D01*
X187057D01*
X187019Y201030D01*
X186537Y201042D01*
X186160Y201076D01*
X186020Y201099D01*
X185904Y201126D01*
X185874Y201135D01*
X185691Y201409D01*
X185135Y201780D01*
X184479Y201911D01*
D02*
G37*
G36*
X189245Y198564D02*
X188589Y198434D01*
X188033Y198062D01*
X187662Y197506D01*
X187531Y196850D01*
X187662Y196195D01*
X188033Y195638D01*
X188589Y195267D01*
X189245Y195136D01*
X189901Y195267D01*
X190457Y195638D01*
X190549Y195776D01*
X190581Y195785D01*
X190705Y195810D01*
X190848Y195831D01*
X191467Y195870D01*
X191715Y195873D01*
X191755Y195890D01*
X240446D01*
Y194812D01*
X217815D01*
X217815Y194812D01*
X217503Y194750D01*
X217238Y194573D01*
X217238Y194573D01*
X213048Y190383D01*
X202767D01*
X202728Y190400D01*
X202246Y190412D01*
X201870Y190446D01*
X201729Y190469D01*
X201613Y190496D01*
X201584Y190505D01*
X201401Y190779D01*
X200845Y191150D01*
X200189Y191281D01*
X199533Y191150D01*
X198977Y190779D01*
X198605Y190223D01*
X198475Y189567D01*
X198605Y188911D01*
X198977Y188355D01*
X199533Y187983D01*
X200189Y187853D01*
X200845Y187983D01*
X201401Y188355D01*
X201584Y188628D01*
X201613Y188638D01*
X201729Y188665D01*
X201866Y188687D01*
X202476Y188731D01*
X202723Y188734D01*
X202763Y188751D01*
X213386D01*
X213386Y188751D01*
X213698Y188813D01*
X213963Y188990D01*
X218153Y193180D01*
X240446D01*
Y191824D01*
X244987D01*
Y193180D01*
X247730D01*
Y191824D01*
X252270D01*
Y195890D01*
X255013D01*
Y191824D01*
X259554D01*
Y193180D01*
X262297D01*
Y191824D01*
X266837D01*
Y193180D01*
X273892D01*
X274302Y192680D01*
X274270Y192520D01*
X274401Y191864D01*
X274772Y191308D01*
X275328Y190936D01*
X275984Y190806D01*
X276640Y190936D01*
X277196Y191308D01*
X277568Y191864D01*
X277698Y192520D01*
X277568Y193176D01*
X277196Y193732D01*
X276640Y194103D01*
X275984Y194234D01*
X275819Y194201D01*
X275789Y194218D01*
X275715Y194266D01*
X275637Y194324D01*
X275444Y194490D01*
X275340Y194590D01*
X275259Y194622D01*
X275068Y194750D01*
X274756Y194812D01*
X274756Y194812D01*
X266837D01*
Y195890D01*
X306598D01*
X307376Y195113D01*
Y191824D01*
X311916D01*
Y193180D01*
X314659D01*
Y191824D01*
X319199D01*
Y196168D01*
X314659D01*
Y194812D01*
X311916D01*
Y196168D01*
X308628D01*
X307513Y197282D01*
X307248Y197459D01*
X306936Y197521D01*
X306936Y197521D01*
X191896D01*
X191872Y197535D01*
X191846Y197528D01*
X191821Y197538D01*
X191572Y197542D01*
X191147Y197567D01*
X190982Y197587D01*
X190844Y197612D01*
X190741Y197638D01*
X190457Y198062D01*
X189901Y198434D01*
X189245Y198564D01*
D02*
G37*
G36*
X150203Y193419D02*
X147543D01*
Y191447D01*
X150203D01*
Y193419D01*
D02*
G37*
G36*
X132385D02*
Y191447D01*
X135046D01*
Y193419D01*
X132385D01*
D02*
G37*
G36*
X460735Y191640D02*
X458665D01*
Y189669D01*
X460735D01*
Y191640D01*
D02*
G37*
G36*
X458264D02*
X456194D01*
Y189669D01*
X458264D01*
Y191640D01*
D02*
G37*
G36*
X150203Y191047D02*
X147543D01*
Y189076D01*
X150203D01*
Y191047D01*
D02*
G37*
G36*
X147143D02*
X144482D01*
Y189076D01*
X147143D01*
Y191047D01*
D02*
G37*
G36*
X135046D02*
X132385D01*
Y189076D01*
X135046D01*
Y191047D01*
D02*
G37*
G36*
X410341Y190065D02*
X405801D01*
Y188709D01*
X402467D01*
Y190065D01*
X397927D01*
Y186777D01*
X394502Y183352D01*
X394325Y183088D01*
X394280Y182861D01*
X394246Y182782D01*
X394243Y182572D01*
X394220Y182213D01*
X394202Y182074D01*
X394179Y181955D01*
X394154Y181860D01*
X394153Y181858D01*
X393867Y181666D01*
X393495Y181110D01*
X393365Y180454D01*
X393495Y179798D01*
X393867Y179242D01*
X394423Y178871D01*
X395079Y178740D01*
X395735Y178871D01*
X396291Y179242D01*
X396662Y179798D01*
X396793Y180454D01*
X396662Y181110D01*
X396291Y181666D01*
X396004Y181858D01*
X396003Y181860D01*
X395978Y181955D01*
X395958Y182064D01*
X395924Y182467D01*
X399179Y185722D01*
X402467D01*
Y187078D01*
X405801D01*
Y185722D01*
X410341D01*
Y190065D01*
D02*
G37*
G36*
X326483D02*
X324413D01*
Y188094D01*
X326483D01*
Y190065D01*
D02*
G37*
G36*
X252270D02*
X250200D01*
Y188094D01*
X252270D01*
Y190065D01*
D02*
G37*
G36*
X319199D02*
X317129D01*
Y188094D01*
X319199D01*
Y190065D01*
D02*
G37*
G36*
X266837D02*
X264767D01*
Y188094D01*
X266837D01*
Y190065D01*
D02*
G37*
G36*
X316729D02*
X314659D01*
Y188094D01*
X316729D01*
Y190065D01*
D02*
G37*
G36*
X264367D02*
X262297D01*
Y188094D01*
X264367D01*
Y190065D01*
D02*
G37*
G36*
X324013D02*
X321942D01*
Y188094D01*
X324013D01*
Y190065D01*
D02*
G37*
G36*
X249800D02*
X247730D01*
Y188094D01*
X249800D01*
Y190065D01*
D02*
G37*
G36*
X445669Y190636D02*
X445279D01*
Y188015D01*
X446679D01*
Y189626D01*
X446602Y190013D01*
X446383Y190340D01*
X446056Y190559D01*
X445669Y190636D01*
D02*
G37*
G36*
X444879D02*
X444488D01*
X444102Y190559D01*
X443774Y190340D01*
X443555Y190013D01*
X443478Y189626D01*
Y188015D01*
X444879D01*
Y190636D01*
D02*
G37*
G36*
X460735Y189269D02*
X458665D01*
Y187297D01*
X460735D01*
Y189269D01*
D02*
G37*
G36*
X458264D02*
X456194D01*
Y187297D01*
X458264D01*
Y189269D01*
D02*
G37*
G36*
X326483Y187694D02*
X324413D01*
Y185722D01*
X326483D01*
Y187694D01*
D02*
G37*
G36*
X324013D02*
X321942D01*
Y185722D01*
X324013D01*
Y187694D01*
D02*
G37*
G36*
X319199D02*
X317129D01*
Y185722D01*
X319199D01*
Y187694D01*
D02*
G37*
G36*
X316729D02*
X314659D01*
Y185722D01*
X316729D01*
Y187694D01*
D02*
G37*
G36*
X266837D02*
X264767D01*
Y185722D01*
X266837D01*
Y187694D01*
D02*
G37*
G36*
X264367D02*
X262297D01*
Y185722D01*
X264367D01*
Y187694D01*
D02*
G37*
G36*
X252270D02*
X250200D01*
Y185722D01*
X252270D01*
Y187694D01*
D02*
G37*
G36*
X249800D02*
X247730D01*
Y185722D01*
X249800D01*
Y187694D01*
D02*
G37*
G36*
X244987Y190065D02*
X240446D01*
Y188709D01*
X220177D01*
X219865Y188647D01*
X219600Y188470D01*
X219600Y188470D01*
X201557Y170427D01*
X201380Y170162D01*
X201318Y169850D01*
X201318Y169850D01*
Y164964D01*
X200559D01*
X199735Y164856D01*
X198968Y164538D01*
X198308Y164032D01*
X197802Y163373D01*
X197484Y162605D01*
X197376Y161781D01*
X197484Y160957D01*
X197802Y160189D01*
X198308Y159530D01*
X198968Y159024D01*
X199735Y158706D01*
X200559Y158598D01*
X203709D01*
X204533Y158706D01*
X205300Y159024D01*
X205960Y159530D01*
X206465Y160189D01*
X206783Y160957D01*
X206892Y161781D01*
X206783Y162605D01*
X206465Y163373D01*
X205960Y164032D01*
X205300Y164538D01*
X204533Y164856D01*
X203709Y164964D01*
X202950D01*
Y169512D01*
X220515Y187078D01*
X240446D01*
Y185722D01*
X244987D01*
Y190065D01*
D02*
G37*
G36*
X446679Y187615D02*
X445279D01*
Y184994D01*
X445669D01*
X446056Y185071D01*
X446383Y185290D01*
X446602Y185617D01*
X446679Y186004D01*
Y187615D01*
D02*
G37*
G36*
X444879D02*
X443478D01*
Y186004D01*
X443555Y185617D01*
X443774Y185290D01*
X444102Y185071D01*
X444488Y184994D01*
X444879D01*
Y187615D01*
D02*
G37*
G36*
X410341Y196168D02*
X405801D01*
Y191824D01*
X410341D01*
Y193180D01*
X411375D01*
X414974Y189581D01*
X414974Y189581D01*
X415239Y189404D01*
X415551Y189342D01*
X429583D01*
X429775Y188880D01*
X420841Y179946D01*
X420532Y179483D01*
X420423Y178937D01*
X420423Y178937D01*
Y149416D01*
X419482D01*
Y143357D01*
X418702D01*
X413468Y148590D01*
X413005Y148900D01*
X412458Y149009D01*
X412458Y149008D01*
X411030D01*
Y150557D01*
X407080D01*
Y145348D01*
X407544D01*
X407593Y144848D01*
X403247Y140502D01*
X400498D01*
Y141246D01*
X395958D01*
Y136903D01*
X400498D01*
Y137647D01*
X403838D01*
X403839Y137647D01*
X404385Y137756D01*
X404848Y138066D01*
X410064Y143282D01*
X410065Y143282D01*
X410374Y143745D01*
X410483Y144291D01*
X410483Y144291D01*
Y145348D01*
X411030D01*
Y146154D01*
X411867D01*
X416766Y141254D01*
X416559Y140754D01*
X415742D01*
Y138924D01*
X414708D01*
X414200Y138823D01*
X413770Y138536D01*
X411492Y136257D01*
X411030Y136449D01*
Y136935D01*
X407080D01*
Y131726D01*
X411030D01*
Y133110D01*
X411544D01*
X412051Y133211D01*
X412481Y133498D01*
X415242Y136258D01*
X415742Y136237D01*
Y134442D01*
X416566D01*
Y128566D01*
X416308Y128179D01*
X416177Y127524D01*
X416308Y126868D01*
X416679Y126312D01*
X417235Y125940D01*
X417891Y125809D01*
X418547Y125940D01*
X419103Y126312D01*
X419475Y126868D01*
X419605Y127524D01*
X419475Y128179D01*
X419217Y128566D01*
Y134442D01*
X420479D01*
Y139262D01*
X420941Y139454D01*
X422049Y138345D01*
X422049Y138345D01*
X422512Y138036D01*
X423059Y137927D01*
X423222Y137480D01*
Y134442D01*
X423966D01*
Y128363D01*
X423961Y128350D01*
X423961Y127577D01*
X423394D01*
X423394Y127577D01*
X422848Y127468D01*
X422384Y127159D01*
X422384Y127159D01*
X416215Y120990D01*
X416215Y120990D01*
X407861Y112635D01*
X407551Y112172D01*
X407496Y111896D01*
X406954Y111732D01*
X406494Y112191D01*
X406439Y112467D01*
X406068Y113023D01*
X405512Y113395D01*
X404856Y113525D01*
X404200Y113395D01*
X404090Y113321D01*
X403590Y113589D01*
Y119198D01*
X403572Y119293D01*
Y119488D01*
X403572Y119488D01*
X403510Y119800D01*
X403333Y120065D01*
X400971Y122427D01*
X400706Y122604D01*
X400394Y122666D01*
X400394Y122666D01*
X390519D01*
X390299Y123166D01*
X390560Y123557D01*
X390690Y124213D01*
X390560Y124869D01*
X390188Y125425D01*
X389632Y125796D01*
X388976Y125927D01*
X388320Y125796D01*
X387764Y125425D01*
X387393Y124869D01*
X387346Y124635D01*
X386329D01*
X386200Y124840D01*
X386114Y125135D01*
X386208Y125276D01*
X386259Y125531D01*
Y125587D01*
X383937D01*
Y125987D01*
X386259D01*
Y126043D01*
X386208Y126299D01*
X386100Y126462D01*
X386063Y126522D01*
Y127021D01*
X386100Y127082D01*
X386208Y127244D01*
X386259Y127500D01*
Y128012D01*
X386208Y128268D01*
X386100Y128430D01*
X386063Y128491D01*
Y128990D01*
X386100Y129050D01*
X386208Y129213D01*
X386259Y129469D01*
Y129980D01*
X386208Y130236D01*
X386063Y130453D01*
X385846Y130598D01*
X385591Y130649D01*
X382283D01*
X382028Y130598D01*
X381811Y130453D01*
X381707Y130298D01*
X381469Y130299D01*
X381207Y130382D01*
Y130420D01*
X381169D01*
X381086Y130682D01*
X381086Y130920D01*
X381241Y131023D01*
X381386Y131240D01*
X381436Y131496D01*
Y134803D01*
X381386Y135059D01*
X381328Y135146D01*
Y142640D01*
X381345Y142679D01*
X381357Y143160D01*
X381391Y143537D01*
X381414Y143678D01*
X381441Y143793D01*
X381450Y143823D01*
X381724Y144006D01*
X382095Y144562D01*
X382226Y145218D01*
X382095Y145874D01*
X381724Y146430D01*
X381168Y146801D01*
X380512Y146932D01*
X379856Y146801D01*
X379300Y146430D01*
X378928Y145874D01*
X378798Y145218D01*
X378928Y144562D01*
X379300Y144006D01*
X379573Y143823D01*
X379583Y143793D01*
X379610Y143678D01*
X379632Y143541D01*
X379676Y142930D01*
X379679Y142684D01*
X379696Y142644D01*
Y135541D01*
X379491Y135413D01*
X379196Y135327D01*
X379055Y135421D01*
X378799Y135472D01*
X378287D01*
X378031Y135421D01*
X377890Y135327D01*
X377596Y135413D01*
X377391Y135541D01*
Y138760D01*
X377408Y138799D01*
X377420Y139281D01*
X377454Y139658D01*
X377477Y139798D01*
X377504Y139914D01*
X377513Y139944D01*
X377787Y140127D01*
X378158Y140683D01*
X378289Y141339D01*
X378158Y141995D01*
X377787Y142551D01*
X377231Y142922D01*
X376575Y143053D01*
X375919Y142922D01*
X375363Y142551D01*
X374991Y141995D01*
X374861Y141339D01*
X374991Y140683D01*
X375339Y140162D01*
X375327Y140097D01*
X374867Y139716D01*
X374494Y139790D01*
X373838Y139660D01*
X373282Y139288D01*
X372910Y138732D01*
X372780Y138076D01*
X372910Y137420D01*
X373120Y137106D01*
X372732Y136787D01*
X351856Y157663D01*
X351591Y157840D01*
X351279Y157902D01*
X351279Y157902D01*
X191480D01*
X186839Y162543D01*
Y178740D01*
X186839Y178740D01*
X186777Y179052D01*
X186600Y179317D01*
X183699Y182218D01*
X183684Y182258D01*
X183352Y182607D01*
X183109Y182898D01*
X183026Y183013D01*
X182963Y183114D01*
X182949Y183142D01*
X183013Y183465D01*
X182883Y184121D01*
X182511Y184677D01*
X181955Y185048D01*
X181299Y185179D01*
X180643Y185048D01*
X180087Y184677D01*
X179716Y184121D01*
X179585Y183465D01*
X179716Y182809D01*
X180087Y182253D01*
X180643Y181881D01*
X181299Y181751D01*
X181622Y181815D01*
X181650Y181800D01*
X181750Y181737D01*
X181863Y181657D01*
X182326Y181256D01*
X182502Y181084D01*
X182543Y181068D01*
X185208Y178402D01*
Y162205D01*
X185208Y162205D01*
X185270Y161893D01*
X185447Y161628D01*
X190565Y156510D01*
X190565Y156510D01*
X190830Y156333D01*
X191142Y156271D01*
X350941D01*
X371345Y135867D01*
X371060Y135445D01*
X370925Y135472D01*
X370413D01*
X370158Y135421D01*
X369995Y135312D01*
X369935Y135276D01*
X369436D01*
X369375Y135312D01*
X369213Y135421D01*
X368957Y135472D01*
X368445D01*
X368189Y135421D01*
X367972Y135276D01*
X367827Y135059D01*
X367776Y134803D01*
Y131496D01*
X367827Y131240D01*
X367972Y131023D01*
X368127Y130920D01*
X368127Y130682D01*
X368044Y130420D01*
X368005D01*
Y130382D01*
X367744Y130299D01*
X367506Y130298D01*
X367402Y130453D01*
X367185Y130598D01*
X366929Y130649D01*
X363622D01*
X363366Y130598D01*
X363149Y130453D01*
X363004Y130236D01*
X362953Y129980D01*
Y129469D01*
X363004Y129213D01*
X363113Y129050D01*
X363149Y128990D01*
Y128491D01*
X363113Y128430D01*
X363004Y128268D01*
X362953Y128012D01*
Y127500D01*
X363004Y127244D01*
X363113Y127082D01*
X363149Y127021D01*
Y126522D01*
X363113Y126462D01*
X363004Y126299D01*
X362953Y126043D01*
Y125531D01*
X363004Y125276D01*
X363113Y125113D01*
X363149Y125053D01*
Y124554D01*
X363113Y124493D01*
X363004Y124331D01*
X362953Y124075D01*
Y123563D01*
X363004Y123307D01*
X363113Y123145D01*
X363149Y123084D01*
Y122585D01*
X363113Y122525D01*
X363004Y122362D01*
X362953Y122106D01*
Y121595D01*
X363004Y121339D01*
X363113Y121176D01*
X363149Y121116D01*
Y120617D01*
X363113Y120556D01*
X363004Y120394D01*
X362953Y120138D01*
Y119626D01*
X363004Y119370D01*
X363113Y119208D01*
X363149Y119147D01*
Y118648D01*
X363113Y118588D01*
X363004Y118425D01*
X362953Y118169D01*
Y117657D01*
X363004Y117402D01*
X363149Y117185D01*
X363366Y117040D01*
X363622Y116989D01*
X366929D01*
X367185Y117040D01*
X367402Y117185D01*
X367506Y117340D01*
X367744Y117339D01*
X368005Y117256D01*
Y117218D01*
X368044D01*
X368127Y116956D01*
X368127Y116718D01*
X367972Y116615D01*
X367827Y116398D01*
X367776Y116142D01*
Y112835D01*
X367827Y112579D01*
X367972Y112362D01*
X368189Y112217D01*
X368445Y112166D01*
X368957D01*
X369213Y112217D01*
X369375Y112325D01*
X369436Y112362D01*
X369935D01*
X369995Y112325D01*
X370158Y112217D01*
X370413Y112166D01*
X370925D01*
X371181Y112217D01*
X371343Y112325D01*
X371404Y112362D01*
X371903D01*
X371964Y112325D01*
X372126Y112217D01*
X372382Y112166D01*
X372894D01*
X373150Y112217D01*
X373312Y112325D01*
X373373Y112362D01*
X373872D01*
X373932Y112325D01*
X374095Y112217D01*
X374350Y112166D01*
X374862D01*
X375118Y112217D01*
X375280Y112325D01*
X375341Y112362D01*
X375840D01*
X375901Y112325D01*
X376063Y112217D01*
X376319Y112166D01*
X376831D01*
X377087Y112217D01*
X377126Y112243D01*
X377626Y112012D01*
Y100892D01*
X376470D01*
Y96549D01*
X381010D01*
Y100892D01*
X379461D01*
Y111227D01*
X379540Y111284D01*
X380017Y111338D01*
X380199Y111153D01*
X380497Y110833D01*
X380709Y110577D01*
X380774Y110487D01*
X380724Y110236D01*
X380855Y109580D01*
X381226Y109024D01*
X381783Y108653D01*
X382438Y108522D01*
X383094Y108653D01*
X383650Y109024D01*
X384022Y109580D01*
X384153Y110236D01*
X384022Y110892D01*
X383650Y111448D01*
X383094Y111820D01*
X382438Y111950D01*
X382188Y111900D01*
X382103Y111961D01*
X381517Y112479D01*
X381429Y112566D01*
Y112799D01*
X381436Y112835D01*
Y116142D01*
X381386Y116398D01*
X381241Y116615D01*
X381086Y116718D01*
X381086Y116956D01*
X381169Y117218D01*
X381207D01*
Y117256D01*
X381469Y117339D01*
X381707Y117340D01*
X381811Y117185D01*
X382028Y117040D01*
X382283Y116989D01*
X384216D01*
Y116717D01*
X384286Y116366D01*
X384485Y116068D01*
X387568Y112985D01*
Y109830D01*
X392108D01*
Y111084D01*
X395568D01*
Y109830D01*
X400108D01*
Y114173D01*
X399135D01*
X399076Y114235D01*
X398801Y114673D01*
X398820Y114877D01*
X398837Y114987D01*
X399047Y115127D01*
X399418Y115683D01*
X399549Y116339D01*
X399418Y116995D01*
X399047Y117551D01*
X398491Y117922D01*
X397835Y118053D01*
X397179Y117922D01*
X396623Y117551D01*
X396251Y116995D01*
X396121Y116339D01*
X396251Y115683D01*
X396623Y115127D01*
X396798Y115009D01*
X396846Y114544D01*
X396506Y114173D01*
X395568D01*
Y112919D01*
X392108D01*
Y114173D01*
X388975D01*
X386356Y116792D01*
X386063Y117185D01*
X386208Y117402D01*
X386259Y117657D01*
Y118169D01*
X386208Y118425D01*
X386084Y118611D01*
X386063Y118646D01*
Y119149D01*
X386084Y119184D01*
X386208Y119370D01*
X386259Y119626D01*
Y120138D01*
X386208Y120394D01*
X386114Y120535D01*
X386200Y120829D01*
X386329Y121035D01*
X387199D01*
X387466Y120535D01*
X387393Y120425D01*
X387262Y119769D01*
X387393Y119113D01*
X387764Y118557D01*
X388320Y118186D01*
X388976Y118055D01*
X389632Y118186D01*
X390188Y118557D01*
X390371Y118831D01*
X390401Y118840D01*
X390517Y118867D01*
X390653Y118889D01*
X391264Y118933D01*
X391510Y118936D01*
X391550Y118954D01*
X400168D01*
X400759Y118363D01*
Y108858D01*
X400759Y108858D01*
X400821Y108546D01*
X400998Y108282D01*
X404013Y105266D01*
X404013Y105266D01*
X404278Y105090D01*
X404590Y105027D01*
X404590Y105027D01*
X405797D01*
X405857Y104955D01*
X406019Y104527D01*
X405951Y104427D01*
X405898Y104156D01*
Y102700D01*
X408870D01*
X411843D01*
Y104156D01*
X411789Y104427D01*
X411722Y104527D01*
X411884Y104955D01*
X411943Y105027D01*
X412472D01*
X413912Y103588D01*
X414117Y103139D01*
X413935Y102700D01*
Y100725D01*
X414117Y100286D01*
X414556Y100104D01*
X419326D01*
X419765Y100286D01*
X419947Y100725D01*
Y102700D01*
X419874Y102876D01*
Y102973D01*
X437117Y120216D01*
X456361D01*
X456714Y119862D01*
X456714Y119344D01*
Y117601D01*
X456714Y117285D01*
X456714Y116785D01*
Y116113D01*
X459870D01*
X463026D01*
Y116785D01*
X463026Y117101D01*
X463026Y117601D01*
Y119344D01*
X463026Y119660D01*
X463026Y120160D01*
Y122219D01*
X463026D01*
Y122403D01*
X463026D01*
Y124778D01*
X463026Y124778D01*
Y124962D01*
X463026D01*
X463026Y125278D01*
Y127331D01*
X463258Y127486D01*
X463693Y128137D01*
X463805Y128702D01*
X463912D01*
Y137770D01*
X456813D01*
Y128702D01*
X459872D01*
X459984Y128137D01*
X460041Y128053D01*
X459963Y127836D01*
X459757Y127577D01*
X426827D01*
X426827Y128350D01*
X426821Y128363D01*
Y134442D01*
X427959D01*
Y136287D01*
X428956D01*
X429069Y136212D01*
X429724Y136081D01*
X430380Y136212D01*
X430936Y136583D01*
X431308Y137139D01*
X431438Y137795D01*
X431308Y138451D01*
X430936Y139007D01*
X430380Y139379D01*
X429724Y139509D01*
X429069Y139379D01*
X428714Y139142D01*
X427959D01*
Y140754D01*
X424760D01*
X424622Y140782D01*
X424622Y140782D01*
X423650D01*
X421828Y142604D01*
X422035Y143104D01*
X424219D01*
Y144832D01*
X430118D01*
X430118Y144832D01*
X430664Y144941D01*
X431128Y145250D01*
X447639Y161762D01*
X448876D01*
Y160293D01*
X455061D01*
Y166479D01*
X448876D01*
Y164616D01*
X447047D01*
X447047Y164616D01*
X446501Y164508D01*
X446038Y164198D01*
X446038Y164198D01*
X429527Y147687D01*
X424219D01*
Y149416D01*
X423278D01*
Y178346D01*
X432623Y187691D01*
X433027D01*
X433912Y186806D01*
X433912Y186806D01*
X434375Y186496D01*
X434921Y186388D01*
X434921Y186388D01*
X439738D01*
Y186004D01*
X439815Y185617D01*
X440034Y185290D01*
X440361Y185071D01*
X440748Y184994D01*
X441929D01*
X442316Y185071D01*
X442643Y185290D01*
X442862Y185617D01*
X442939Y186004D01*
Y189626D01*
X442862Y190013D01*
X442643Y190340D01*
X442316Y190559D01*
X441929Y190636D01*
X440748D01*
X440361Y190559D01*
X440034Y190340D01*
X439815Y190013D01*
X439738Y189626D01*
Y189242D01*
X435512D01*
X435144Y189611D01*
Y192034D01*
X430604D01*
Y190973D01*
X415889D01*
X412289Y194573D01*
X412025Y194750D01*
X411713Y194812D01*
X411713Y194812D01*
X410341D01*
Y196168D01*
D02*
G37*
G36*
X333766Y190065D02*
X329226D01*
Y185722D01*
X333766D01*
Y187078D01*
X356060D01*
X360575Y182563D01*
X360244Y182186D01*
X360156Y182254D01*
X359388Y182572D01*
X358564Y182681D01*
X357189D01*
Y179698D01*
X361721D01*
X361639Y180321D01*
X361321Y181089D01*
X361253Y181177D01*
X361630Y181508D01*
X368180Y174957D01*
Y166240D01*
X368180Y166240D01*
X368243Y165928D01*
X368419Y165663D01*
X375408Y158675D01*
X375672Y158498D01*
X375984Y158436D01*
X375984Y158436D01*
X400125D01*
X400125Y158436D01*
X400437Y158498D01*
X400702Y158675D01*
X401017Y158991D01*
X401704Y158706D01*
X402528Y158598D01*
X405677D01*
X406501Y158706D01*
X407269Y159024D01*
X407928Y159530D01*
X408434Y160189D01*
X408752Y160957D01*
X408860Y161781D01*
X408752Y162605D01*
X408434Y163373D01*
X407928Y164032D01*
X407269Y164538D01*
X406501Y164856D01*
X405677Y164964D01*
X402528D01*
X401704Y164856D01*
X400936Y164538D01*
X400277Y164032D01*
X399771Y163373D01*
X399453Y162605D01*
X399344Y161781D01*
X399453Y160957D01*
X399614Y160568D01*
X399280Y160068D01*
X376322D01*
X369812Y166578D01*
Y175295D01*
X369812Y175295D01*
X369750Y175607D01*
X369573Y175872D01*
X369573Y175872D01*
X356974Y188470D01*
X356710Y188647D01*
X356398Y188709D01*
X356398Y188709D01*
X333766D01*
Y190065D01*
D02*
G37*
G36*
X75984Y192050D02*
X75328Y191920D01*
X74772Y191548D01*
X74401Y190992D01*
X74270Y190336D01*
X74401Y189680D01*
X74772Y189124D01*
X75046Y188941D01*
X75055Y188912D01*
X75082Y188796D01*
X75109Y188306D01*
X74293Y187968D01*
X73593Y187431D01*
X73056Y186730D01*
X72718Y185915D01*
X72603Y185039D01*
X72718Y184164D01*
X73056Y183349D01*
X73593Y182648D01*
X74293Y182111D01*
X75109Y181773D01*
X75984Y181658D01*
X76859Y181773D01*
X77675Y182111D01*
X78376Y182648D01*
X78913Y183349D01*
X79251Y184164D01*
X79366Y185039D01*
X79251Y185915D01*
X78913Y186730D01*
X78376Y187431D01*
X77675Y187968D01*
X76859Y188306D01*
X76886Y188796D01*
X76913Y188912D01*
X76923Y188941D01*
X77196Y189124D01*
X77568Y189680D01*
X77698Y190336D01*
X77568Y190992D01*
X77196Y191548D01*
X76640Y191920D01*
X75984Y192050D01*
D02*
G37*
G36*
X109449Y191933D02*
X108793Y191802D01*
X108237Y191431D01*
X107865Y190875D01*
X107735Y190219D01*
X107865Y189563D01*
X108237Y189007D01*
X108510Y188824D01*
X108520Y188794D01*
X108547Y188678D01*
X108559Y188602D01*
X108574Y188109D01*
X107758Y187771D01*
X107058Y187234D01*
X106520Y186533D01*
X106182Y185718D01*
X106067Y184843D01*
X106182Y183967D01*
X106520Y183152D01*
X107058Y182451D01*
X107758Y181914D01*
X108574Y181576D01*
X109449Y181461D01*
X110324Y181576D01*
X111140Y181914D01*
X111840Y182451D01*
X112377Y183152D01*
X112715Y183967D01*
X112830Y184843D01*
X112715Y185718D01*
X112377Y186533D01*
X111840Y187234D01*
X111140Y187771D01*
X110324Y188109D01*
X110339Y188604D01*
X110351Y188678D01*
X110378Y188794D01*
X110387Y188824D01*
X110661Y189007D01*
X111032Y189563D01*
X111163Y190219D01*
X111032Y190875D01*
X110661Y191431D01*
X110105Y191802D01*
X109449Y191933D01*
D02*
G37*
G36*
X138884Y185470D02*
X134541D01*
Y182739D01*
X134235Y182678D01*
X133937Y182479D01*
X133421Y181963D01*
X133385Y181948D01*
X133201Y181767D01*
X132880Y181469D01*
X132624Y181257D01*
X132534Y181192D01*
X132283Y181242D01*
X131628Y181111D01*
X131071Y180740D01*
X130700Y180183D01*
X130569Y179528D01*
X130700Y178872D01*
X131071Y178316D01*
X131628Y177944D01*
X132283Y177813D01*
X132939Y177944D01*
X133495Y178316D01*
X133867Y178872D01*
X133997Y179528D01*
X133948Y179778D01*
X134009Y179862D01*
X134527Y180449D01*
X134704Y180629D01*
X134719Y180666D01*
X134966Y180912D01*
X135441D01*
X135530Y180930D01*
X138884D01*
Y185470D01*
D02*
G37*
G36*
X435992Y182681D02*
X434617D01*
Y179698D01*
X439149D01*
X439067Y180321D01*
X438749Y181089D01*
X438243Y181748D01*
X437584Y182254D01*
X436816Y182572D01*
X435992Y182681D01*
D02*
G37*
G36*
X434217D02*
X432842D01*
X432019Y182572D01*
X431251Y182254D01*
X430592Y181748D01*
X430086Y181089D01*
X429768Y180321D01*
X429686Y179698D01*
X434217D01*
Y182681D01*
D02*
G37*
G36*
X405677D02*
X404302D01*
Y179698D01*
X408834D01*
X408752Y180321D01*
X408434Y181089D01*
X407928Y181748D01*
X407269Y182254D01*
X406501Y182572D01*
X405677Y182681D01*
D02*
G37*
G36*
X403902D02*
X402528D01*
X401704Y182572D01*
X400936Y182254D01*
X400277Y181748D01*
X399771Y181089D01*
X399453Y180321D01*
X399371Y179698D01*
X403902D01*
Y182681D01*
D02*
G37*
G36*
X356789D02*
X355415D01*
X354591Y182572D01*
X353823Y182254D01*
X353164Y181748D01*
X352658Y181089D01*
X352340Y180321D01*
X352258Y179698D01*
X356789D01*
Y182681D01*
D02*
G37*
G36*
X328249D02*
X326874D01*
Y179698D01*
X331406D01*
X331324Y180321D01*
X331006Y181089D01*
X330500Y181748D01*
X329841Y182254D01*
X329073Y182572D01*
X328249Y182681D01*
D02*
G37*
G36*
X326474D02*
X325100D01*
X324276Y182572D01*
X323508Y182254D01*
X322849Y181748D01*
X322343Y181089D01*
X322025Y180321D01*
X321943Y179698D01*
X326474D01*
Y182681D01*
D02*
G37*
G36*
X281136D02*
X279762D01*
Y179698D01*
X284293D01*
X284211Y180321D01*
X283893Y181089D01*
X283387Y181748D01*
X282728Y182254D01*
X281960Y182572D01*
X281136Y182681D01*
D02*
G37*
G36*
X279362D02*
X277987D01*
X277163Y182572D01*
X276395Y182254D01*
X275736Y181748D01*
X275230Y181089D01*
X274912Y180321D01*
X274830Y179698D01*
X279362D01*
Y182681D01*
D02*
G37*
G36*
X250821D02*
X249447D01*
Y179698D01*
X253978D01*
X253896Y180321D01*
X253578Y181089D01*
X253072Y181748D01*
X252413Y182254D01*
X251645Y182572D01*
X250821Y182681D01*
D02*
G37*
G36*
X249047D02*
X247672D01*
X246848Y182572D01*
X246080Y182254D01*
X245421Y181748D01*
X244915Y181089D01*
X244597Y180321D01*
X244515Y179698D01*
X249047D01*
Y182681D01*
D02*
G37*
G36*
X203709D02*
X202334D01*
Y179698D01*
X206866D01*
X206783Y180321D01*
X206465Y181089D01*
X205960Y181748D01*
X205300Y182254D01*
X204533Y182572D01*
X203709Y182681D01*
D02*
G37*
G36*
X201934D02*
X200559D01*
X199735Y182572D01*
X198968Y182254D01*
X198308Y181748D01*
X197802Y181089D01*
X197484Y180321D01*
X197402Y179698D01*
X201934D01*
Y182681D01*
D02*
G37*
G36*
X173394D02*
X172019D01*
Y179698D01*
X176550D01*
X176468Y180321D01*
X176150Y181089D01*
X175645Y181748D01*
X174985Y182254D01*
X174218Y182572D01*
X173394Y182681D01*
D02*
G37*
G36*
X171619D02*
X170244D01*
X169420Y182572D01*
X168652Y182254D01*
X167993Y181748D01*
X167487Y181089D01*
X167169Y180321D01*
X167087Y179698D01*
X171619D01*
Y182681D01*
D02*
G37*
G36*
X449409Y190636D02*
X448228D01*
X447842Y190559D01*
X447514Y190340D01*
X447295Y190013D01*
X447218Y189626D01*
Y186004D01*
X447295Y185617D01*
X447514Y185290D01*
X447842Y185071D01*
X448003Y185039D01*
Y183999D01*
X446864Y182860D01*
X446687Y182596D01*
X446625Y182283D01*
X446625Y182283D01*
Y181712D01*
X446608Y181673D01*
X446596Y181191D01*
X446562Y180815D01*
X446539Y180674D01*
X446512Y180558D01*
X446502Y180529D01*
X446229Y180346D01*
X445857Y179790D01*
X445727Y179134D01*
X445857Y178478D01*
X446229Y177922D01*
X446785Y177550D01*
X447441Y177420D01*
X448097Y177550D01*
X448653Y177922D01*
X449024Y178478D01*
X449155Y179134D01*
X449024Y179790D01*
X448653Y180346D01*
X448379Y180529D01*
X448370Y180558D01*
X448343Y180674D01*
X448321Y180811D01*
X448277Y181421D01*
X448274Y181668D01*
X448257Y181708D01*
Y181946D01*
X449396Y183085D01*
X449573Y183349D01*
X449635Y183661D01*
X449635Y183661D01*
Y185039D01*
X449796Y185071D01*
X450124Y185290D01*
X450343Y185617D01*
X450419Y186004D01*
Y189626D01*
X450343Y190013D01*
X450124Y190340D01*
X449796Y190559D01*
X449409Y190636D01*
D02*
G37*
G36*
X439149Y179298D02*
X434617D01*
Y176314D01*
X435992D01*
X436816Y176423D01*
X437584Y176741D01*
X438243Y177247D01*
X438749Y177906D01*
X439067Y178674D01*
X439149Y179298D01*
D02*
G37*
G36*
X434217D02*
X429686D01*
X429768Y178674D01*
X430086Y177906D01*
X430592Y177247D01*
X431251Y176741D01*
X432019Y176423D01*
X432842Y176314D01*
X434217D01*
Y179298D01*
D02*
G37*
G36*
X408834D02*
X404302D01*
Y176314D01*
X405677D01*
X406501Y176423D01*
X407269Y176741D01*
X407928Y177247D01*
X408434Y177906D01*
X408752Y178674D01*
X408834Y179298D01*
D02*
G37*
G36*
X403902D02*
X399371D01*
X399453Y178674D01*
X399771Y177906D01*
X400277Y177247D01*
X400936Y176741D01*
X401704Y176423D01*
X402528Y176314D01*
X403902D01*
Y179298D01*
D02*
G37*
G36*
X361721D02*
X357189D01*
Y176314D01*
X358564D01*
X359388Y176423D01*
X360156Y176741D01*
X360815Y177247D01*
X361321Y177906D01*
X361639Y178674D01*
X361721Y179298D01*
D02*
G37*
G36*
X356789D02*
X352258D01*
X352340Y178674D01*
X352658Y177906D01*
X353164Y177247D01*
X353823Y176741D01*
X354591Y176423D01*
X355415Y176314D01*
X356789D01*
Y179298D01*
D02*
G37*
G36*
X331406D02*
X326874D01*
Y176314D01*
X328249D01*
X329073Y176423D01*
X329841Y176741D01*
X330500Y177247D01*
X331006Y177906D01*
X331324Y178674D01*
X331406Y179298D01*
D02*
G37*
G36*
X326474D02*
X321943D01*
X322025Y178674D01*
X322343Y177906D01*
X322849Y177247D01*
X323508Y176741D01*
X324276Y176423D01*
X325100Y176314D01*
X326474D01*
Y179298D01*
D02*
G37*
G36*
X284293D02*
X279762D01*
Y176314D01*
X281136D01*
X281960Y176423D01*
X282728Y176741D01*
X283387Y177247D01*
X283893Y177906D01*
X284211Y178674D01*
X284293Y179298D01*
D02*
G37*
G36*
X279362D02*
X274830D01*
X274912Y178674D01*
X275230Y177906D01*
X275736Y177247D01*
X276395Y176741D01*
X277163Y176423D01*
X277987Y176314D01*
X279362D01*
Y179298D01*
D02*
G37*
G36*
X253978D02*
X249447D01*
Y176314D01*
X250821D01*
X251645Y176423D01*
X252413Y176741D01*
X253072Y177247D01*
X253578Y177906D01*
X253896Y178674D01*
X253978Y179298D01*
D02*
G37*
G36*
X249047D02*
X244515D01*
X244597Y178674D01*
X244915Y177906D01*
X245421Y177247D01*
X246080Y176741D01*
X246848Y176423D01*
X247672Y176314D01*
X249047D01*
Y179298D01*
D02*
G37*
G36*
X206866D02*
X202334D01*
Y176314D01*
X203709D01*
X204533Y176423D01*
X205300Y176741D01*
X205960Y177247D01*
X206465Y177906D01*
X206783Y178674D01*
X206866Y179298D01*
D02*
G37*
G36*
X201934D02*
X197402D01*
X197484Y178674D01*
X197802Y177906D01*
X198308Y177247D01*
X198968Y176741D01*
X199735Y176423D01*
X200559Y176314D01*
X201934D01*
Y179298D01*
D02*
G37*
G36*
X176550D02*
X172019D01*
Y176314D01*
X173394D01*
X174218Y176423D01*
X174985Y176741D01*
X175645Y177247D01*
X176150Y177906D01*
X176468Y178674D01*
X176550Y179298D01*
D02*
G37*
G36*
X171619D02*
X167087D01*
X167169Y178674D01*
X167487Y177906D01*
X167993Y177247D01*
X168652Y176741D01*
X169420Y176423D01*
X170244Y176314D01*
X171619D01*
Y179298D01*
D02*
G37*
G36*
X138884Y177970D02*
X136913D01*
Y175900D01*
X138884D01*
Y177970D01*
D02*
G37*
G36*
X136513D02*
X134541D01*
Y175900D01*
X136513D01*
Y177970D01*
D02*
G37*
G36*
X164617Y196712D02*
X160237D01*
X159968Y196658D01*
X159739Y196506D01*
X159587Y196277D01*
X159533Y196008D01*
Y194266D01*
X159587Y193997D01*
X159739Y193768D01*
X159968Y193616D01*
X160237Y193562D01*
X162290D01*
X162633Y193244D01*
X162695Y192932D01*
X162872Y192667D01*
X166901Y188638D01*
Y185574D01*
X164778Y183451D01*
X164601Y183186D01*
X164539Y182874D01*
X164539Y182874D01*
Y178272D01*
X160736Y174470D01*
X157448Y174470D01*
X157312Y174914D01*
Y176239D01*
X158503Y177430D01*
X161791D01*
Y181481D01*
X162008Y181947D01*
X162278Y182001D01*
X162664Y182078D01*
X163220Y182449D01*
X163591Y183005D01*
X163722Y183661D01*
X163591Y184317D01*
X163220Y184873D01*
X162946Y185056D01*
X162937Y185086D01*
X162910Y185202D01*
X163214Y185688D01*
X164617D01*
X164886Y185742D01*
X165114Y185894D01*
X165267Y186123D01*
X165321Y186392D01*
Y188134D01*
X165267Y188403D01*
X165114Y188632D01*
X164886Y188784D01*
X164617Y188838D01*
X160237D01*
X159968Y188784D01*
X159739Y188632D01*
X159587Y188403D01*
X159533Y188134D01*
Y186869D01*
X154634Y181970D01*
X151346D01*
Y177430D01*
X155239D01*
X155503Y177430D01*
X155801Y176976D01*
X155743Y176889D01*
X155680Y176576D01*
X155680Y176576D01*
Y174470D01*
X151346D01*
Y169930D01*
X152702D01*
Y168136D01*
X152702Y168136D01*
X152764Y167824D01*
X152941Y167559D01*
X161980Y158520D01*
Y157838D01*
X160737D01*
X160468Y157784D01*
X160239Y157632D01*
X160087Y157403D01*
X160033Y157134D01*
Y155392D01*
X160087Y155123D01*
X160239Y154894D01*
X160468Y154742D01*
X160737Y154688D01*
X162177D01*
Y152756D01*
X162176Y152756D01*
X162239Y152444D01*
X162415Y152179D01*
X170289Y144305D01*
X170289Y144305D01*
X170554Y144128D01*
X170866Y144066D01*
X262261D01*
X266156Y140171D01*
X266420Y139995D01*
X266480Y139983D01*
X266430Y139483D01*
X134112D01*
X115776Y157818D01*
Y170276D01*
X115714Y170588D01*
X115537Y170852D01*
X115537Y170852D01*
X104753Y181637D01*
Y187613D01*
X105118Y188050D01*
X105774Y188180D01*
X106330Y188552D01*
X106702Y189108D01*
X106832Y189764D01*
X106702Y190420D01*
X106330Y190976D01*
X105774Y191347D01*
X105118Y191478D01*
X104462Y191347D01*
X103906Y190976D01*
X103534Y190420D01*
X103404Y189764D01*
X103497Y189296D01*
X103497Y189296D01*
X103473Y189254D01*
X103440Y189208D01*
X103399Y189157D01*
X103339Y189093D01*
X103308Y189013D01*
X103183Y188826D01*
X103121Y188514D01*
X103121Y188514D01*
Y181299D01*
X103121Y181299D01*
X103183Y180987D01*
X103360Y180722D01*
X114145Y169938D01*
Y167440D01*
X113645Y167233D01*
X102391Y178488D01*
Y187205D01*
X102328Y187517D01*
X102152Y187782D01*
X102152Y187782D01*
X99537Y190396D01*
X99273Y190573D01*
X98961Y190635D01*
X98961Y190635D01*
X83429D01*
X83390Y190652D01*
X82908Y190664D01*
X82531Y190698D01*
X82391Y190721D01*
X82275Y190748D01*
X82245Y190757D01*
X82062Y191031D01*
X81506Y191402D01*
X80850Y191533D01*
X80194Y191402D01*
X79638Y191031D01*
X79267Y190475D01*
X79136Y189819D01*
X79267Y189163D01*
X79638Y188607D01*
X80194Y188235D01*
X80850Y188105D01*
X81506Y188235D01*
X82062Y188607D01*
X82245Y188880D01*
X82275Y188890D01*
X82391Y188917D01*
X82527Y188939D01*
X83138Y188983D01*
X83384Y188986D01*
X83425Y189003D01*
X98623D01*
X100759Y186867D01*
Y178150D01*
X100759Y178150D01*
X100821Y177838D01*
X100998Y177573D01*
X112570Y166001D01*
Y164658D01*
X112547Y164640D01*
X112070Y164477D01*
X96485Y180062D01*
Y182855D01*
X96502Y182894D01*
X96514Y183376D01*
X96548Y183752D01*
X96571Y183893D01*
X96598Y184009D01*
X96608Y184038D01*
X96881Y184221D01*
X97253Y184777D01*
X97383Y185433D01*
X97253Y186089D01*
X96881Y186645D01*
X96325Y187017D01*
X95669Y187147D01*
X95013Y187017D01*
X94457Y186645D01*
X94086Y186089D01*
X93955Y185433D01*
X94086Y184777D01*
X94457Y184221D01*
X94731Y184038D01*
X94740Y184009D01*
X94767Y183893D01*
X94789Y183756D01*
X94833Y183146D01*
X94836Y182899D01*
X94854Y182859D01*
Y179725D01*
X94854Y179724D01*
X94916Y179412D01*
X95092Y179148D01*
X110799Y163442D01*
Y153937D01*
X110799Y153937D01*
X110861Y153625D01*
X111037Y153360D01*
X132964Y131434D01*
X132801Y130957D01*
X132782Y130934D01*
X131120D01*
X124164Y137890D01*
X124145Y137903D01*
X121261Y140786D01*
X121246Y140826D01*
X120914Y141175D01*
X120672Y141465D01*
X120589Y141581D01*
X120526Y141682D01*
X120511Y141710D01*
X120576Y142032D01*
X120445Y142688D01*
X120074Y143244D01*
X119518Y143616D01*
X118862Y143746D01*
X118206Y143616D01*
X117650Y143244D01*
X117278Y142688D01*
X117148Y142032D01*
X117278Y141376D01*
X117650Y140820D01*
X118206Y140449D01*
X118862Y140318D01*
X119184Y140383D01*
X119212Y140368D01*
X119313Y140305D01*
X119425Y140225D01*
X119888Y139824D01*
X120064Y139652D01*
X120105Y139636D01*
X123004Y136737D01*
X123004Y136737D01*
X123023Y136724D01*
X129931Y129816D01*
X129724Y129316D01*
X119500D01*
X119500Y129316D01*
X119188Y129254D01*
X118923Y129077D01*
X118923Y129077D01*
X116502Y126656D01*
X116462Y126640D01*
X116110Y126297D01*
X115818Y126033D01*
X115582Y125843D01*
X115548Y125819D01*
X115100Y125730D01*
X114544Y125358D01*
X114172Y124802D01*
X114042Y124146D01*
X114172Y123490D01*
X114544Y122934D01*
X115100Y122563D01*
X115756Y122432D01*
X116412Y122563D01*
X116968Y122934D01*
X117340Y123490D01*
X117470Y124146D01*
X117340Y124802D01*
X117244Y124946D01*
X117262Y124978D01*
X117328Y125077D01*
X117710Y125528D01*
X117881Y125703D01*
X117897Y125744D01*
X119838Y127684D01*
X122883D01*
X123090Y127184D01*
X122305Y126400D01*
X122266Y126384D01*
X121917Y126052D01*
X121626Y125810D01*
X121510Y125727D01*
X121410Y125664D01*
X121382Y125650D01*
X121059Y125714D01*
X120403Y125584D01*
X119847Y125212D01*
X119475Y124656D01*
X119345Y124000D01*
X119475Y123344D01*
X119847Y122788D01*
X120403Y122416D01*
X121059Y122286D01*
X121715Y122416D01*
X122271Y122788D01*
X122643Y123344D01*
X122773Y124000D01*
X122709Y124323D01*
X122723Y124351D01*
X122786Y124451D01*
X122867Y124564D01*
X123268Y125026D01*
X123440Y125203D01*
X123456Y125243D01*
X124397Y126184D01*
X130860D01*
X130910Y125684D01*
X130736Y125650D01*
X130403Y125584D01*
X129847Y125212D01*
X129475Y124656D01*
X129345Y124000D01*
X129475Y123344D01*
X129847Y122788D01*
X130403Y122416D01*
X131059Y122286D01*
X131715Y122416D01*
X132271Y122788D01*
X132454Y123062D01*
X132484Y123071D01*
X132599Y123098D01*
X132736Y123120D01*
X133346Y123164D01*
X133593Y123167D01*
X133633Y123184D01*
X150465D01*
X163054Y110595D01*
Y105815D01*
X163054Y105815D01*
X163117Y105503D01*
X163293Y105238D01*
X170289Y98242D01*
X170289Y98242D01*
X170554Y98065D01*
X170866Y98003D01*
X200213D01*
X201946Y96270D01*
X201794Y95770D01*
X200698D01*
Y91230D01*
X202054D01*
Y87770D01*
X200698D01*
Y83230D01*
X205042D01*
Y87770D01*
X203686D01*
Y91230D01*
X205042D01*
Y95770D01*
X203686D01*
Y96500D01*
X203686Y96500D01*
X203624Y96812D01*
X203447Y97077D01*
X201128Y99396D01*
X200863Y99572D01*
X200551Y99635D01*
X200551Y99635D01*
X171204D01*
X164686Y106153D01*
Y110933D01*
X164686Y110933D01*
X164624Y111245D01*
X164447Y111510D01*
X151380Y124577D01*
X151115Y124754D01*
X150803Y124816D01*
X150803Y124816D01*
X133637D01*
X133598Y124833D01*
X133117Y124845D01*
X132740Y124879D01*
X132599Y124902D01*
X132484Y124929D01*
X132454Y124938D01*
X132271Y125212D01*
X131715Y125584D01*
X131382Y125650D01*
X131208Y125684D01*
X131258Y126184D01*
X152190D01*
X166113Y112261D01*
Y106890D01*
X166113Y106890D01*
X166175Y106578D01*
X166352Y106313D01*
X171742Y100923D01*
X171742Y100923D01*
X172007Y100746D01*
X172319Y100684D01*
X172319Y100684D01*
X203280D01*
X207054Y96910D01*
Y82838D01*
X203987Y79770D01*
X200698D01*
Y75230D01*
X202054D01*
Y71770D01*
X200698D01*
Y67230D01*
X205042D01*
Y71770D01*
X203686D01*
Y75230D01*
X205042D01*
Y78518D01*
X208447Y81923D01*
X208447Y81923D01*
X208624Y82188D01*
X208686Y82500D01*
Y97248D01*
X208686Y97248D01*
X208624Y97560D01*
X208447Y97825D01*
X204195Y102077D01*
X203930Y102254D01*
X203618Y102316D01*
X203618Y102316D01*
X172657D01*
X167745Y107228D01*
Y112598D01*
X167745Y112598D01*
X167683Y112911D01*
X167506Y113175D01*
X167506Y113175D01*
X153497Y127184D01*
X153704Y127684D01*
X156398D01*
X169460Y114623D01*
Y107874D01*
X169460Y107874D01*
X169522Y107562D01*
X169699Y107297D01*
X173636Y103360D01*
X173636Y103360D01*
X173900Y103183D01*
X174213Y103121D01*
X174213Y103121D01*
X205765D01*
X211192Y97694D01*
Y70873D01*
X204089Y63770D01*
X200698D01*
Y59230D01*
X202106D01*
Y55770D01*
X200750D01*
Y51230D01*
X205093D01*
Y55770D01*
X203737D01*
Y59230D01*
X205042D01*
Y62416D01*
X212585Y69959D01*
X212585Y69959D01*
X212761Y70223D01*
X212824Y70535D01*
Y98032D01*
X212824Y98032D01*
X212761Y98344D01*
X212585Y98608D01*
X212585Y98608D01*
X206679Y104514D01*
X206415Y104691D01*
X206102Y104753D01*
X206102Y104753D01*
X174550D01*
X171091Y108212D01*
Y114961D01*
X171091Y114961D01*
X171029Y115273D01*
X170852Y115537D01*
X157587Y128802D01*
X157794Y129302D01*
X163914D01*
X174679Y118537D01*
X174571Y117717D01*
X174686Y116841D01*
X175024Y116026D01*
X175562Y115325D01*
X176262Y114788D01*
X177078Y114450D01*
X177953Y114335D01*
X178828Y114450D01*
X179644Y114788D01*
X180344Y115325D01*
X180881Y116026D01*
X181203Y116803D01*
X215914D01*
X231892Y100825D01*
Y97701D01*
X231744Y97672D01*
X231419Y97455D01*
X231203Y97130D01*
X231127Y96748D01*
Y93145D01*
X231203Y92763D01*
X231419Y92438D01*
X231744Y92221D01*
X232126Y92145D01*
X233288D01*
X233671Y92221D01*
X233995Y92438D01*
X234212Y92763D01*
X234288Y93145D01*
Y96748D01*
X234212Y97130D01*
X233995Y97455D01*
X233671Y97672D01*
X233523Y97701D01*
Y101163D01*
X233461Y101475D01*
X233284Y101740D01*
X233284Y101740D01*
X216828Y118195D01*
X216564Y118372D01*
X216252Y118434D01*
X216252Y118434D01*
X181240D01*
X181219Y118592D01*
X180881Y119407D01*
X180344Y120108D01*
X179644Y120645D01*
X178828Y120983D01*
X177953Y121098D01*
X177078Y120983D01*
X176262Y120645D01*
X175562Y120108D01*
X175425Y120099D01*
X164950Y130574D01*
X165112Y131051D01*
X165131Y131074D01*
X170142D01*
X174648Y126568D01*
X174571Y125984D01*
X174686Y125109D01*
X175024Y124293D01*
X175562Y123593D01*
X176262Y123056D01*
X177078Y122718D01*
X177953Y122603D01*
X178828Y122718D01*
X179644Y123056D01*
X180344Y123593D01*
X180881Y124293D01*
X181219Y125109D01*
X181245Y125303D01*
X261748D01*
X261748Y125303D01*
X262060Y125365D01*
X262325Y125542D01*
X270810Y134027D01*
X295528D01*
X297378Y132177D01*
Y126109D01*
X297118Y125717D01*
X296802Y125717D01*
X295334Y125717D01*
X294834Y125717D01*
X293365Y125717D01*
X292865Y125717D01*
X291397Y125717D01*
X290897Y125717D01*
X289428Y125717D01*
X288928Y125717D01*
X287460Y125717D01*
X286960Y125717D01*
X285491Y125717D01*
X284991Y125717D01*
X283523Y125717D01*
X283023Y125717D01*
X281554Y125717D01*
X281054Y125717D01*
X279586D01*
Y85546D01*
X281370Y85546D01*
X281427Y85070D01*
Y83656D01*
X277666Y79895D01*
X277445Y79565D01*
X277367Y79174D01*
Y76532D01*
X276117D01*
Y74933D01*
X275420D01*
X275030Y74855D01*
X274699Y74634D01*
X269629Y69564D01*
X261217D01*
Y70626D01*
X256677D01*
Y69474D01*
X253717D01*
Y70626D01*
X249177D01*
Y66283D01*
X250428D01*
Y64500D01*
X247642Y61714D01*
X244422D01*
Y63299D01*
X240473D01*
Y61714D01*
X237598D01*
X234467Y64845D01*
Y66283D01*
X235718D01*
Y70626D01*
X231177D01*
Y66283D01*
X232428D01*
Y64423D01*
X232505Y64033D01*
X232726Y63702D01*
X236455Y59974D01*
X236785Y59753D01*
X237175Y59675D01*
X240473D01*
Y58090D01*
X244422D01*
Y59675D01*
X248065D01*
X248455Y59753D01*
X248786Y59974D01*
X252168Y63356D01*
X252389Y63687D01*
X252467Y64077D01*
Y66283D01*
X253717D01*
Y67435D01*
X256677D01*
Y66283D01*
X261217D01*
Y67525D01*
X270051D01*
X270441Y67602D01*
X270772Y67823D01*
X275617Y72668D01*
X276117Y72461D01*
Y72188D01*
X280657D01*
Y76532D01*
X279407D01*
Y78752D01*
X283099Y82445D01*
X283373Y82392D01*
X283599Y82259D01*
Y81299D01*
X283599Y81299D01*
X283661Y80987D01*
X283838Y80722D01*
X284571Y79989D01*
Y76532D01*
X283117D01*
Y72188D01*
X287657D01*
Y73544D01*
X290117D01*
Y72188D01*
X294657D01*
Y76532D01*
X290117D01*
Y75176D01*
X287657D01*
Y76532D01*
X286203D01*
Y80327D01*
X286141Y80639D01*
X285964Y80904D01*
X285964Y80904D01*
X285230Y81637D01*
Y83789D01*
X285722Y83882D01*
X285899Y83617D01*
X288289Y81226D01*
X288289Y81226D01*
X288554Y81050D01*
X288866Y80988D01*
X288866Y80988D01*
X294472D01*
X298428Y77032D01*
X298225Y76532D01*
X297117D01*
Y72188D01*
X301657D01*
Y76532D01*
X300203D01*
Y77226D01*
X300203Y77226D01*
X300141Y77538D01*
X299964Y77803D01*
X295387Y82380D01*
X295122Y82557D01*
X294810Y82619D01*
X294810Y82619D01*
X289204D01*
X287291Y84532D01*
Y85116D01*
X287460Y85546D01*
X287791Y85546D01*
X289244Y85546D01*
X289744Y85546D01*
X291212Y85546D01*
X291712Y85546D01*
X293181Y85546D01*
X293681Y85546D01*
X295149Y85546D01*
X295649Y85546D01*
X297118Y85546D01*
X297913Y85546D01*
X299515Y83944D01*
X299518Y83930D01*
X299555Y83905D01*
X299579Y83880D01*
X299604Y83834D01*
X299635Y83824D01*
X305571Y77888D01*
Y76532D01*
X304117D01*
Y73243D01*
X302245Y71371D01*
X302068Y71107D01*
X302006Y70794D01*
X302006Y70794D01*
Y70785D01*
X301657Y70429D01*
X301506Y70429D01*
X299587D01*
Y68258D01*
Y66086D01*
X301506D01*
X301657Y66086D01*
X302006Y65730D01*
Y61421D01*
X302006Y61421D01*
X302068Y61109D01*
X302245Y60844D01*
X313666Y49423D01*
X313931Y49246D01*
X314243Y49184D01*
X314243Y49184D01*
X356070D01*
Y48500D01*
X362670D01*
Y51500D01*
X356070D01*
Y50816D01*
X314581D01*
X303637Y61759D01*
Y66037D01*
X304117Y66086D01*
X304137Y66086D01*
X308657D01*
Y67340D01*
X311117D01*
Y66086D01*
X311544D01*
X311811Y65586D01*
X311726Y65459D01*
X311596Y64803D01*
X311726Y64147D01*
X312098Y63591D01*
X312654Y63220D01*
X313310Y63089D01*
X313966Y63220D01*
X314522Y63591D01*
X314893Y64147D01*
X315024Y64803D01*
X314893Y65459D01*
X314809Y65586D01*
X315076Y66086D01*
X315624D01*
X315657Y66086D01*
X316124Y66006D01*
Y61803D01*
X316124Y61803D01*
X316186Y61491D01*
X316363Y61226D01*
X323166Y54423D01*
X323166Y54423D01*
X323431Y54246D01*
X323743Y54184D01*
X323743Y54184D01*
X356070D01*
Y53500D01*
X362670D01*
Y56500D01*
X356070D01*
Y55816D01*
X324081D01*
X317755Y62141D01*
Y65752D01*
X318117Y66086D01*
X318255Y66086D01*
X320187D01*
Y68258D01*
Y70429D01*
X318255D01*
X318117Y70429D01*
X317755Y70763D01*
Y70807D01*
X317755Y70807D01*
X317693Y71119D01*
X317516Y71384D01*
X317516Y71384D01*
X315657Y73243D01*
Y76532D01*
X314203D01*
Y77427D01*
X314141Y77739D01*
X313964Y78003D01*
X313964Y78003D01*
X308123Y83845D01*
X307858Y84021D01*
X307546Y84083D01*
X307546Y84083D01*
X304669D01*
X303705Y85046D01*
X303900Y85515D01*
Y105632D01*
Y125717D01*
X303207D01*
X302981Y126123D01*
Y133268D01*
X302919Y133580D01*
X302742Y133844D01*
X302742Y133844D01*
X299396Y137191D01*
X299156Y137351D01*
X299149Y137388D01*
X299343Y137851D01*
X304105D01*
X309189Y132767D01*
Y126109D01*
X308929Y125717D01*
X308613Y125717D01*
X308237D01*
Y105632D01*
Y85546D01*
X308929D01*
X309429Y85546D01*
X310897Y85546D01*
X311397Y85546D01*
X311774D01*
Y105632D01*
Y125717D01*
X311081D01*
X310821Y126109D01*
Y133105D01*
X310759Y133417D01*
X310582Y133682D01*
X310582Y133682D01*
X305020Y139244D01*
X304755Y139420D01*
X304696Y139432D01*
X304745Y139932D01*
X335883D01*
X343663Y132152D01*
X343678Y132112D01*
X344011Y131763D01*
X344253Y131472D01*
X344336Y131357D01*
X344399Y131256D01*
X344413Y131228D01*
X344349Y130905D01*
X344479Y130250D01*
X344851Y129693D01*
X345407Y129322D01*
X346063Y129192D01*
X346719Y129322D01*
X347275Y129693D01*
X347646Y130250D01*
X347777Y130905D01*
X347646Y131561D01*
X347275Y132117D01*
X346719Y132489D01*
X346063Y132620D01*
X345740Y132555D01*
X345712Y132570D01*
X345612Y132633D01*
X345499Y132713D01*
X345037Y133114D01*
X344860Y133286D01*
X344820Y133302D01*
X336797Y141325D01*
X336533Y141502D01*
X336221Y141564D01*
X336220Y141564D01*
X333409D01*
X333310Y142064D01*
X333783Y142260D01*
X333849Y142304D01*
X333922Y142334D01*
X334889Y142980D01*
X334945Y143036D01*
X335011Y143080D01*
X335833Y143903D01*
X335877Y143968D01*
X335933Y144024D01*
X336579Y144992D01*
X336610Y145064D01*
X336654Y145130D01*
X337099Y146205D01*
X337114Y146283D01*
X337144Y146356D01*
X337371Y147496D01*
Y147576D01*
X337387Y147653D01*
Y148816D01*
X337371Y148894D01*
Y148973D01*
X337144Y150114D01*
X337114Y150187D01*
X337099Y150265D01*
X336654Y151339D01*
X336610Y151405D01*
X336579Y151478D01*
X335933Y152445D01*
X335877Y152501D01*
X335833Y152567D01*
X335011Y153390D01*
X334945Y153434D01*
X334889Y153489D01*
X333922Y154136D01*
X333849Y154166D01*
X333783Y154210D01*
X332708Y154655D01*
X332631Y154671D01*
X332558Y154701D01*
X331417Y154928D01*
X331338D01*
X331260Y154943D01*
X274979D01*
X274901Y154928D01*
X274822D01*
X273681Y154701D01*
X273608Y154671D01*
X273531Y154655D01*
X272456Y154210D01*
X272390Y154166D01*
X272317Y154136D01*
X271350Y153489D01*
X271294Y153434D01*
X271228Y153390D01*
X270406Y152567D01*
X270362Y152501D01*
X270306Y152445D01*
X269659Y151478D01*
X269629Y151405D01*
X269585Y151339D01*
X269140Y150265D01*
X269125Y150187D01*
X269094Y150114D01*
X268867Y148973D01*
Y148894D01*
X268852Y148816D01*
Y147653D01*
X268867Y147576D01*
Y147496D01*
X269094Y146356D01*
X269125Y146283D01*
X269140Y146205D01*
X269585Y145130D01*
X269629Y145064D01*
X269659Y144992D01*
X270306Y144024D01*
X270362Y143968D01*
X270406Y143903D01*
X271228Y143080D01*
X271294Y143036D01*
X271350Y142980D01*
X272317Y142334D01*
X272390Y142304D01*
X272456Y142260D01*
X272929Y142064D01*
X272830Y141564D01*
X267070D01*
X263175Y145459D01*
X262911Y145635D01*
X262598Y145698D01*
X262598Y145698D01*
X171204D01*
X163808Y153094D01*
Y154688D01*
X165117D01*
X165386Y154742D01*
X165614Y154894D01*
X165767Y155123D01*
X165821Y155392D01*
Y157134D01*
X165767Y157403D01*
X165614Y157632D01*
X165386Y157784D01*
X165117Y157838D01*
X163611D01*
Y158858D01*
X163611Y158858D01*
X163549Y159170D01*
X163372Y159435D01*
X163372Y159435D01*
X160745Y162062D01*
X160952Y162562D01*
X165117D01*
X165386Y162616D01*
X165614Y162768D01*
X165767Y162997D01*
X165821Y163266D01*
Y165008D01*
X165767Y165277D01*
X165614Y165506D01*
X165386Y165658D01*
X165117Y165712D01*
X162176D01*
X162165Y165714D01*
X162165Y165714D01*
X160803D01*
X157312Y169206D01*
Y169486D01*
X157448Y169930D01*
X157812Y169930D01*
X161791D01*
Y173218D01*
X165931Y177358D01*
X165931Y177358D01*
X166108Y177622D01*
X166170Y177935D01*
Y182536D01*
X168293Y184659D01*
X168470Y184924D01*
X168532Y185236D01*
X168532Y185236D01*
Y188976D01*
X168532Y188976D01*
X168470Y189288D01*
X168293Y189553D01*
X168293Y189553D01*
X164765Y193082D01*
X164882Y193596D01*
X164917Y193636D01*
X165114Y193768D01*
X165267Y193997D01*
X165321Y194266D01*
Y196008D01*
X165267Y196277D01*
X165114Y196506D01*
X164886Y196658D01*
X164617Y196712D01*
D02*
G37*
G36*
X138884Y175500D02*
X136913D01*
Y173430D01*
X138884D01*
Y175500D01*
D02*
G37*
G36*
X136513D02*
X134541D01*
Y173430D01*
X136513D01*
Y175500D01*
D02*
G37*
G36*
X104190Y167360D02*
Y165987D01*
X105562D01*
X105480Y166404D01*
X105130Y166927D01*
X104607Y167277D01*
X104190Y167360D01*
D02*
G37*
G36*
X96966D02*
Y165987D01*
X98338D01*
X98255Y166404D01*
X97906Y166927D01*
X97383Y167277D01*
X96966Y167360D01*
D02*
G37*
G36*
X103790D02*
X103373Y167277D01*
X102850Y166927D01*
X102501Y166404D01*
X102418Y165987D01*
X103790D01*
Y167360D01*
D02*
G37*
G36*
X96566D02*
X96149Y167277D01*
X95626Y166927D01*
X95276Y166404D01*
X95193Y165987D01*
X96566D01*
Y167360D01*
D02*
G37*
G36*
X381050Y176559D02*
X380042D01*
X379964Y176543D01*
X379885D01*
X378896Y176347D01*
X378823Y176316D01*
X378746Y176301D01*
X377814Y175915D01*
X377749Y175871D01*
X377676Y175841D01*
X376837Y175281D01*
X376781Y175225D01*
X376716Y175181D01*
X376003Y174468D01*
X375959Y174402D01*
X375903Y174346D01*
X375343Y173508D01*
X375312Y173435D01*
X375269Y173369D01*
X374883Y172438D01*
X374867Y172360D01*
X374837Y172287D01*
X374640Y171299D01*
Y171220D01*
X374625Y171142D01*
Y170134D01*
X374640Y170056D01*
Y169977D01*
X374837Y168988D01*
X374867Y168915D01*
X374883Y168838D01*
X375269Y167906D01*
X375312Y167841D01*
X375343Y167767D01*
X375903Y166929D01*
X375959Y166873D01*
X376003Y166807D01*
X376716Y166095D01*
X376781Y166051D01*
X376837Y165995D01*
X377676Y165435D01*
X377749Y165404D01*
X377814Y165360D01*
X378746Y164975D01*
X378823Y164959D01*
X378896Y164929D01*
X379885Y164732D01*
X379964D01*
X380042Y164717D01*
X381050D01*
X381128Y164732D01*
X381207D01*
X382195Y164929D01*
X382269Y164959D01*
X382346Y164975D01*
X383278Y165360D01*
X383343Y165404D01*
X383416Y165435D01*
X384255Y165995D01*
X384310Y166051D01*
X384376Y166095D01*
X385089Y166807D01*
X385133Y166873D01*
X385189Y166929D01*
X385749Y167767D01*
X385779Y167841D01*
X385823Y167906D01*
X386209Y168838D01*
X386225Y168915D01*
X386255Y168988D01*
X386451Y169977D01*
Y170056D01*
X386467Y170134D01*
Y171142D01*
X386451Y171219D01*
Y171299D01*
X386255Y172287D01*
X386225Y172360D01*
X386209Y172438D01*
X385823Y173369D01*
X385779Y173435D01*
X385749Y173508D01*
X385189Y174346D01*
X385133Y174402D01*
X385089Y174468D01*
X384376Y175181D01*
X384310Y175225D01*
X384255Y175281D01*
X383416Y175841D01*
X383343Y175871D01*
X383278Y175915D01*
X382346Y176301D01*
X382269Y176316D01*
X382195Y176347D01*
X381207Y176543D01*
X381128D01*
X381050Y176559D01*
D02*
G37*
G36*
X303622D02*
X302614D01*
X302537Y176543D01*
X302457D01*
X301469Y176347D01*
X301396Y176316D01*
X301318Y176301D01*
X300387Y175915D01*
X300321Y175871D01*
X300248Y175841D01*
X299410Y175281D01*
X299354Y175225D01*
X299288Y175181D01*
X298575Y174468D01*
X298531Y174402D01*
X298475Y174346D01*
X297915Y173508D01*
X297885Y173435D01*
X297841Y173369D01*
X297455Y172438D01*
X297440Y172360D01*
X297409Y172287D01*
X297213Y171299D01*
Y171220D01*
X297197Y171142D01*
Y170134D01*
X297213Y170056D01*
Y169977D01*
X297409Y168988D01*
X297440Y168915D01*
X297455Y168838D01*
X297841Y167906D01*
X297885Y167841D01*
X297915Y167767D01*
X298475Y166929D01*
X298531Y166873D01*
X298575Y166807D01*
X299288Y166095D01*
X299354Y166051D01*
X299410Y165995D01*
X300248Y165435D01*
X300321Y165404D01*
X300387Y165360D01*
X301318Y164975D01*
X301396Y164959D01*
X301469Y164929D01*
X302457Y164732D01*
X302536D01*
X302614Y164717D01*
X303622D01*
X303700Y164732D01*
X303779D01*
X304768Y164929D01*
X304841Y164959D01*
X304918Y164975D01*
X305850Y165360D01*
X305915Y165404D01*
X305989Y165435D01*
X306827Y165995D01*
X306883Y166051D01*
X306948Y166095D01*
X307661Y166807D01*
X307705Y166873D01*
X307761Y166929D01*
X308321Y167767D01*
X308351Y167841D01*
X308395Y167906D01*
X308781Y168838D01*
X308797Y168915D01*
X308827Y168988D01*
X309024Y169977D01*
Y170056D01*
X309039Y170134D01*
Y171142D01*
X309024Y171219D01*
Y171299D01*
X308827Y172287D01*
X308797Y172360D01*
X308781Y172438D01*
X308395Y173369D01*
X308351Y173435D01*
X308321Y173508D01*
X307761Y174346D01*
X307705Y174402D01*
X307661Y174468D01*
X306948Y175181D01*
X306883Y175225D01*
X306827Y175281D01*
X305989Y175841D01*
X305915Y175871D01*
X305850Y175915D01*
X304918Y176301D01*
X304841Y176316D01*
X304768Y176347D01*
X303779Y176543D01*
X303700D01*
X303622Y176559D01*
D02*
G37*
G36*
X226194D02*
X225186D01*
X225109Y176543D01*
X225030D01*
X224041Y176347D01*
X223968Y176316D01*
X223890Y176301D01*
X222959Y175915D01*
X222893Y175871D01*
X222820Y175841D01*
X221982Y175281D01*
X221926Y175225D01*
X221860Y175181D01*
X221147Y174468D01*
X221103Y174402D01*
X221047Y174346D01*
X220487Y173508D01*
X220457Y173435D01*
X220413Y173369D01*
X220027Y172438D01*
X220012Y172360D01*
X219981Y172287D01*
X219785Y171299D01*
Y171220D01*
X219769Y171142D01*
Y170134D01*
X219785Y170056D01*
Y169977D01*
X219981Y168988D01*
X220012Y168915D01*
X220027Y168838D01*
X220413Y167906D01*
X220457Y167841D01*
X220487Y167767D01*
X221047Y166929D01*
X221103Y166873D01*
X221147Y166807D01*
X221860Y166095D01*
X221926Y166051D01*
X221982Y165995D01*
X222820Y165435D01*
X222893Y165404D01*
X222959Y165360D01*
X223890Y164975D01*
X223968Y164959D01*
X224041Y164929D01*
X225030Y164732D01*
X225109D01*
X225186Y164717D01*
X226194D01*
X226272Y164732D01*
X226351D01*
X227340Y164929D01*
X227413Y164959D01*
X227490Y164975D01*
X228422Y165360D01*
X228488Y165404D01*
X228561Y165435D01*
X229399Y165995D01*
X229455Y166051D01*
X229521Y166095D01*
X230234Y166807D01*
X230277Y166873D01*
X230333Y166929D01*
X230893Y167767D01*
X230924Y167841D01*
X230968Y167906D01*
X231353Y168838D01*
X231369Y168915D01*
X231399Y168988D01*
X231596Y169977D01*
Y170056D01*
X231611Y170134D01*
Y171142D01*
X231596Y171219D01*
Y171299D01*
X231399Y172287D01*
X231369Y172360D01*
X231353Y172438D01*
X230968Y173369D01*
X230924Y173435D01*
X230893Y173508D01*
X230333Y174346D01*
X230277Y174402D01*
X230234Y174468D01*
X229521Y175181D01*
X229455Y175225D01*
X229399Y175281D01*
X228561Y175841D01*
X228488Y175871D01*
X228422Y175915D01*
X227490Y176301D01*
X227413Y176316D01*
X227340Y176347D01*
X226351Y176543D01*
X226272D01*
X226194Y176559D01*
D02*
G37*
G36*
X105562Y165587D02*
X104190D01*
Y164215D01*
X104607Y164298D01*
X105130Y164647D01*
X105480Y165171D01*
X105562Y165587D01*
D02*
G37*
G36*
X98338D02*
X96966D01*
Y164215D01*
X97383Y164298D01*
X97906Y164647D01*
X98255Y165171D01*
X98338Y165587D01*
D02*
G37*
G36*
X103790D02*
X102418D01*
X102501Y165171D01*
X102850Y164647D01*
X103373Y164298D01*
X103790Y164215D01*
Y165587D01*
D02*
G37*
G36*
X96566D02*
X95193D01*
X95276Y165171D01*
X95626Y164647D01*
X96149Y164298D01*
X96566Y164215D01*
Y165587D01*
D02*
G37*
G36*
X107802Y163748D02*
Y162375D01*
X109175D01*
X109092Y162792D01*
X108742Y163315D01*
X108219Y163665D01*
X107802Y163748D01*
D02*
G37*
G36*
X100578D02*
Y162375D01*
X101950D01*
X101867Y162792D01*
X101518Y163315D01*
X100995Y163665D01*
X100578Y163748D01*
D02*
G37*
G36*
X93353D02*
Y162375D01*
X94726D01*
X94643Y162792D01*
X94293Y163315D01*
X93770Y163665D01*
X93353Y163748D01*
D02*
G37*
G36*
X107402D02*
X106985Y163665D01*
X106462Y163315D01*
X106113Y162792D01*
X106030Y162375D01*
X107402D01*
Y163748D01*
D02*
G37*
G36*
X100178D02*
X99761Y163665D01*
X99238Y163315D01*
X98889Y162792D01*
X98806Y162375D01*
X100178D01*
Y163748D01*
D02*
G37*
G36*
X92953D02*
X92537Y163665D01*
X92014Y163315D01*
X91664Y162792D01*
X91581Y162375D01*
X92953D01*
Y163748D01*
D02*
G37*
G36*
X109175Y161975D02*
X107802D01*
Y160603D01*
X108219Y160686D01*
X108742Y161035D01*
X109092Y161558D01*
X109175Y161975D01*
D02*
G37*
G36*
X101950D02*
X100578D01*
Y160603D01*
X100995Y160686D01*
X101518Y161035D01*
X101867Y161558D01*
X101950Y161975D01*
D02*
G37*
G36*
X94726D02*
X93353D01*
Y160603D01*
X93770Y160686D01*
X94293Y161035D01*
X94643Y161558D01*
X94726Y161975D01*
D02*
G37*
G36*
X107402D02*
X106030D01*
X106113Y161558D01*
X106462Y161035D01*
X106985Y160686D01*
X107402Y160603D01*
Y161975D01*
D02*
G37*
G36*
X100178D02*
X98806D01*
X98889Y161558D01*
X99238Y161035D01*
X99761Y160686D01*
X100178Y160603D01*
Y161975D01*
D02*
G37*
G36*
X92953D02*
X91581D01*
X91664Y161558D01*
X92014Y161035D01*
X92537Y160686D01*
X92953Y160603D01*
Y161975D01*
D02*
G37*
G36*
X104190Y160135D02*
Y158763D01*
X105562D01*
X105480Y159180D01*
X105130Y159703D01*
X104607Y160052D01*
X104190Y160135D01*
D02*
G37*
G36*
X96966D02*
Y158763D01*
X98338D01*
X98255Y159180D01*
X97906Y159703D01*
X97383Y160052D01*
X96966Y160135D01*
D02*
G37*
G36*
X103790D02*
X103373Y160052D01*
X102850Y159703D01*
X102501Y159180D01*
X102418Y158763D01*
X103790D01*
Y160135D01*
D02*
G37*
G36*
X96566D02*
X96149Y160052D01*
X95626Y159703D01*
X95276Y159180D01*
X95193Y158763D01*
X96566D01*
Y160135D01*
D02*
G37*
G36*
X435992Y164964D02*
X432842D01*
X432019Y164856D01*
X431251Y164538D01*
X430592Y164032D01*
X430086Y163373D01*
X429768Y162605D01*
X429659Y161781D01*
X429768Y160957D01*
X430086Y160189D01*
X430592Y159530D01*
X431251Y159024D01*
X432019Y158706D01*
X432842Y158598D01*
X435992D01*
X436816Y158706D01*
X437584Y159024D01*
X438243Y159530D01*
X438749Y160189D01*
X439067Y160957D01*
X439175Y161781D01*
X439067Y162605D01*
X438749Y163373D01*
X438243Y164032D01*
X437584Y164538D01*
X436816Y164856D01*
X435992Y164964D01*
D02*
G37*
G36*
X358564D02*
X355415D01*
X354591Y164856D01*
X353823Y164538D01*
X353164Y164032D01*
X352658Y163373D01*
X352340Y162605D01*
X352232Y161781D01*
X352340Y160957D01*
X352658Y160189D01*
X353164Y159530D01*
X353823Y159024D01*
X354591Y158706D01*
X355415Y158598D01*
X358564D01*
X359388Y158706D01*
X360156Y159024D01*
X360815Y159530D01*
X361321Y160189D01*
X361639Y160957D01*
X361747Y161781D01*
X361639Y162605D01*
X361321Y163373D01*
X360815Y164032D01*
X360156Y164538D01*
X359388Y164856D01*
X358564Y164964D01*
D02*
G37*
G36*
X311916Y190065D02*
X307376D01*
Y185722D01*
X308830D01*
Y180512D01*
X308830Y180512D01*
X308892Y180200D01*
X309069Y179935D01*
X323846Y165158D01*
X323791Y164655D01*
X323508Y164538D01*
X322849Y164032D01*
X322343Y163373D01*
X322025Y162605D01*
X321917Y161781D01*
X322025Y160957D01*
X322343Y160189D01*
X322849Y159530D01*
X323508Y159024D01*
X324276Y158706D01*
X325100Y158598D01*
X328249D01*
X329073Y158706D01*
X329841Y159024D01*
X330500Y159530D01*
X331006Y160189D01*
X331324Y160957D01*
X331433Y161781D01*
X331324Y162605D01*
X331006Y163373D01*
X330500Y164032D01*
X329841Y164538D01*
X329073Y164856D01*
X328249Y164964D01*
X325521D01*
Y165452D01*
X325459Y165764D01*
X325282Y166029D01*
X325282Y166029D01*
X310461Y180850D01*
Y185722D01*
X311916D01*
Y190065D01*
D02*
G37*
G36*
X281136Y164964D02*
X277987D01*
X277163Y164856D01*
X276395Y164538D01*
X275736Y164032D01*
X275230Y163373D01*
X274912Y162605D01*
X274804Y161781D01*
X274912Y160957D01*
X275230Y160189D01*
X275736Y159530D01*
X276395Y159024D01*
X277163Y158706D01*
X277987Y158598D01*
X281136D01*
X281960Y158706D01*
X282728Y159024D01*
X283387Y159530D01*
X283893Y160189D01*
X284211Y160957D01*
X284320Y161781D01*
X284211Y162605D01*
X283893Y163373D01*
X283387Y164032D01*
X282728Y164538D01*
X281960Y164856D01*
X281136Y164964D01*
D02*
G37*
G36*
X259554Y190065D02*
X255013D01*
Y185722D01*
X256468D01*
Y179331D01*
X256468Y179331D01*
Y175928D01*
X248670Y168131D01*
X248493Y167866D01*
X248431Y167554D01*
X248431Y167554D01*
Y164964D01*
X247672D01*
X246848Y164856D01*
X246080Y164538D01*
X245421Y164032D01*
X244915Y163373D01*
X244597Y162605D01*
X244489Y161781D01*
X244597Y160957D01*
X244915Y160189D01*
X245421Y159530D01*
X246080Y159024D01*
X246848Y158706D01*
X247672Y158598D01*
X250821D01*
X251645Y158706D01*
X252413Y159024D01*
X253072Y159530D01*
X253578Y160189D01*
X253896Y160957D01*
X254005Y161781D01*
X253896Y162605D01*
X253578Y163373D01*
X253072Y164032D01*
X252413Y164538D01*
X251645Y164856D01*
X250821Y164964D01*
X250062D01*
Y167216D01*
X257860Y175014D01*
X257860Y175014D01*
X258037Y175278D01*
X258099Y175591D01*
X258099Y175591D01*
Y179331D01*
X258099Y179331D01*
Y185722D01*
X259554D01*
Y190065D01*
D02*
G37*
G36*
X173394Y164964D02*
X170244D01*
X169420Y164856D01*
X168652Y164538D01*
X167993Y164032D01*
X167487Y163373D01*
X167169Y162605D01*
X167061Y161781D01*
X167169Y160957D01*
X167487Y160189D01*
X167993Y159530D01*
X168652Y159024D01*
X169420Y158706D01*
X170244Y158598D01*
X173394D01*
X174218Y158706D01*
X174985Y159024D01*
X175645Y159530D01*
X176150Y160189D01*
X176468Y160957D01*
X176577Y161781D01*
X176468Y162605D01*
X176150Y163373D01*
X175645Y164032D01*
X174985Y164538D01*
X174218Y164856D01*
X173394Y164964D01*
D02*
G37*
G36*
X105562Y158363D02*
X104190D01*
Y156991D01*
X104607Y157074D01*
X105130Y157423D01*
X105480Y157946D01*
X105562Y158363D01*
D02*
G37*
G36*
X98338D02*
X96966D01*
Y156991D01*
X97383Y157074D01*
X97906Y157423D01*
X98255Y157946D01*
X98338Y158363D01*
D02*
G37*
G36*
X103790D02*
X102418D01*
X102501Y157946D01*
X102850Y157423D01*
X103373Y157074D01*
X103790Y156991D01*
Y158363D01*
D02*
G37*
G36*
X96566D02*
X95193D01*
X95276Y157946D01*
X95626Y157423D01*
X96149Y157074D01*
X96566Y156991D01*
Y158363D01*
D02*
G37*
G36*
X452169Y158605D02*
Y155712D01*
X455062D01*
X454982Y156319D01*
X454670Y157072D01*
X454174Y157718D01*
X453528Y158213D01*
X452776Y158525D01*
X452169Y158605D01*
D02*
G37*
G36*
X451768D02*
X451161Y158525D01*
X450409Y158213D01*
X449763Y157718D01*
X449267Y157072D01*
X448955Y156319D01*
X448875Y155712D01*
X451768D01*
Y158605D01*
D02*
G37*
G36*
X107802Y156523D02*
Y155151D01*
X109175D01*
X109092Y155568D01*
X108742Y156091D01*
X108219Y156440D01*
X107802Y156523D01*
D02*
G37*
G36*
X100578D02*
Y155151D01*
X101950D01*
X101867Y155568D01*
X101518Y156091D01*
X100995Y156440D01*
X100578Y156523D01*
D02*
G37*
G36*
X93353D02*
Y155151D01*
X94726D01*
X94643Y155568D01*
X94293Y156091D01*
X93770Y156440D01*
X93353Y156523D01*
D02*
G37*
G36*
X107402D02*
X106985Y156440D01*
X106462Y156091D01*
X106113Y155568D01*
X106030Y155151D01*
X107402D01*
Y156523D01*
D02*
G37*
G36*
X100178D02*
X99761Y156440D01*
X99238Y156091D01*
X98889Y155568D01*
X98806Y155151D01*
X100178D01*
Y156523D01*
D02*
G37*
G36*
X92953D02*
X92537Y156440D01*
X92014Y156091D01*
X91664Y155568D01*
X91581Y155151D01*
X92953D01*
Y156523D01*
D02*
G37*
G36*
X135046Y156419D02*
X132385D01*
Y154447D01*
X135046D01*
Y156419D01*
D02*
G37*
G36*
X150203D02*
X147543D01*
Y154447D01*
X150203D01*
Y156419D01*
D02*
G37*
G36*
X131985D02*
X129324D01*
Y154447D01*
X131985D01*
Y156419D01*
D02*
G37*
G36*
X147143D02*
X144482D01*
Y154447D01*
X147143D01*
Y156419D01*
D02*
G37*
G36*
X109175Y154751D02*
X107802D01*
Y153378D01*
X108219Y153461D01*
X108742Y153811D01*
X109092Y154334D01*
X109175Y154751D01*
D02*
G37*
G36*
X101950D02*
X100578D01*
Y153378D01*
X100995Y153461D01*
X101518Y153811D01*
X101867Y154334D01*
X101950Y154751D01*
D02*
G37*
G36*
X94726D02*
X93353D01*
Y153378D01*
X93770Y153461D01*
X94293Y153811D01*
X94643Y154334D01*
X94726Y154751D01*
D02*
G37*
G36*
X107402D02*
X106030D01*
X106113Y154334D01*
X106462Y153811D01*
X106985Y153461D01*
X107402Y153378D01*
Y154751D01*
D02*
G37*
G36*
X100178D02*
X98806D01*
X98889Y154334D01*
X99238Y153811D01*
X99761Y153461D01*
X100178Y153378D01*
Y154751D01*
D02*
G37*
G36*
X92953D02*
X91581D01*
X91664Y154334D01*
X92014Y153811D01*
X92537Y153461D01*
X92953Y153378D01*
Y154751D01*
D02*
G37*
G36*
X455062Y155312D02*
X452169D01*
Y152418D01*
X452776Y152498D01*
X453528Y152810D01*
X454174Y153306D01*
X454670Y153952D01*
X454982Y154704D01*
X455062Y155312D01*
D02*
G37*
G36*
X451768D02*
X448875D01*
X448955Y154704D01*
X449267Y153952D01*
X449763Y153306D01*
X450409Y152810D01*
X451161Y152498D01*
X451768Y152418D01*
Y155312D01*
D02*
G37*
G36*
X150203Y154047D02*
X147543D01*
Y152076D01*
X150203D01*
Y154047D01*
D02*
G37*
G36*
X147143D02*
X144482D01*
Y152076D01*
X147143D01*
Y154047D01*
D02*
G37*
G36*
X104190Y152911D02*
Y151539D01*
X105562D01*
X105480Y151955D01*
X105130Y152479D01*
X104607Y152828D01*
X104190Y152911D01*
D02*
G37*
G36*
X96966D02*
Y151539D01*
X98338D01*
X98255Y151955D01*
X97906Y152479D01*
X97383Y152828D01*
X96966Y152911D01*
D02*
G37*
G36*
X103790D02*
X103373Y152828D01*
X102850Y152479D01*
X102501Y151955D01*
X102418Y151539D01*
X103790D01*
Y152911D01*
D02*
G37*
G36*
X96566D02*
X96149Y152828D01*
X95626Y152479D01*
X95276Y151955D01*
X95193Y151539D01*
X96566D01*
Y152911D01*
D02*
G37*
G36*
X105562Y151139D02*
X104190D01*
Y149766D01*
X104607Y149849D01*
X105130Y150199D01*
X105480Y150722D01*
X105562Y151139D01*
D02*
G37*
G36*
X98338D02*
X96966D01*
Y149766D01*
X97383Y149849D01*
X97906Y150199D01*
X98255Y150722D01*
X98338Y151139D01*
D02*
G37*
G36*
X103790D02*
X102418D01*
X102501Y150722D01*
X102850Y150199D01*
X103373Y149849D01*
X103790Y149766D01*
Y151139D01*
D02*
G37*
G36*
X96566D02*
X95193D01*
X95276Y150722D01*
X95626Y150199D01*
X96149Y149849D01*
X96566Y149766D01*
Y151139D01*
D02*
G37*
G36*
X135046Y154047D02*
X132185D01*
X129324D01*
Y152076D01*
X130776D01*
X130927Y151576D01*
X130678Y151409D01*
X130306Y150853D01*
X130176Y150197D01*
X130266Y149745D01*
X129805Y149498D01*
X129368Y149935D01*
X129353Y149974D01*
X129021Y150323D01*
X128779Y150614D01*
X128696Y150730D01*
X128633Y150831D01*
X128618Y150858D01*
X128682Y151181D01*
X128552Y151837D01*
X128181Y152393D01*
X127624Y152765D01*
X126969Y152895D01*
X126313Y152765D01*
X125757Y152393D01*
X125385Y151837D01*
X125254Y151181D01*
X125385Y150525D01*
X125757Y149969D01*
X126313Y149598D01*
X126969Y149467D01*
X127291Y149531D01*
X127319Y149517D01*
X127420Y149454D01*
X127532Y149373D01*
X127995Y148973D01*
X128171Y148801D01*
X128212Y148784D01*
X132691Y144305D01*
X132691Y144305D01*
X132956Y144128D01*
X133268Y144066D01*
X133268Y144066D01*
X154312D01*
X154350Y144049D01*
X154832Y144037D01*
X155209Y144003D01*
X155350Y143980D01*
X155465Y143953D01*
X155495Y143943D01*
X155678Y143670D01*
X156234Y143298D01*
X156890Y143168D01*
X157546Y143298D01*
X158102Y143670D01*
X158473Y144226D01*
X158604Y144882D01*
X158473Y145538D01*
X158102Y146094D01*
X157546Y146466D01*
X156890Y146596D01*
X156234Y146466D01*
X155678Y146094D01*
X155495Y145820D01*
X155465Y145811D01*
X155350Y145784D01*
X155213Y145762D01*
X154602Y145718D01*
X154356Y145715D01*
X154316Y145698D01*
X133606D01*
X131191Y148112D01*
X131438Y148573D01*
X131890Y148483D01*
X132546Y148613D01*
X133102Y148985D01*
X133284Y149258D01*
X133314Y149268D01*
X133430Y149295D01*
X133567Y149317D01*
X134177Y149361D01*
X134423Y149364D01*
X134464Y149381D01*
X149587D01*
X149626Y149364D01*
X150108Y149352D01*
X150484Y149318D01*
X150625Y149295D01*
X150741Y149268D01*
X150771Y149258D01*
X150953Y148985D01*
X151509Y148613D01*
X152165Y148483D01*
X152821Y148613D01*
X153377Y148985D01*
X153749Y149541D01*
X153879Y150197D01*
X153749Y150853D01*
X153377Y151409D01*
X152821Y151780D01*
X152165Y151911D01*
X151509Y151780D01*
X150953Y151409D01*
X150771Y151135D01*
X150741Y151126D01*
X150625Y151099D01*
X150488Y151077D01*
X149878Y151033D01*
X149632Y151030D01*
X149591Y151013D01*
X134468D01*
X134429Y151030D01*
X133947Y151042D01*
X133571Y151076D01*
X133430Y151099D01*
X133314Y151126D01*
X133284Y151135D01*
X133102Y151409D01*
X132852Y151576D01*
X133004Y152076D01*
X135046D01*
Y154047D01*
D02*
G37*
G36*
X400498Y147349D02*
X398428D01*
Y145377D01*
X400498D01*
Y147349D01*
D02*
G37*
G36*
X398028D02*
X395958D01*
Y145377D01*
X398028D01*
Y147349D01*
D02*
G37*
G36*
X104737Y146790D02*
X100000D01*
Y144615D01*
X97152D01*
Y145971D01*
X92612D01*
Y141628D01*
X97152D01*
Y142983D01*
X100000D01*
Y141659D01*
X104737D01*
Y146790D01*
D02*
G37*
G36*
X81994Y145184D02*
X79924D01*
Y143212D01*
X81994D01*
Y145184D01*
D02*
G37*
G36*
X79524D02*
X77454D01*
Y143212D01*
X79524D01*
Y145184D01*
D02*
G37*
G36*
X74908D02*
X72838D01*
Y143212D01*
X74908D01*
Y145184D01*
D02*
G37*
G36*
X72438D02*
X70368D01*
Y143212D01*
X72438D01*
Y145184D01*
D02*
G37*
G36*
X400498Y144977D02*
X398428D01*
Y143006D01*
X400498D01*
Y144977D01*
D02*
G37*
G36*
X398028D02*
X395958D01*
Y143006D01*
X398028D01*
Y144977D01*
D02*
G37*
G36*
X81994Y142812D02*
X79924D01*
Y140840D01*
X81994D01*
Y142812D01*
D02*
G37*
G36*
X79524D02*
X77454D01*
Y140840D01*
X79524D01*
Y142812D01*
D02*
G37*
G36*
X74908D02*
X72838D01*
Y140840D01*
X74908D01*
Y142812D01*
D02*
G37*
G36*
X72438D02*
X70368D01*
Y140840D01*
X72438D01*
Y142812D01*
D02*
G37*
G36*
X97152Y139868D02*
X95082D01*
Y137897D01*
X97152D01*
Y139868D01*
D02*
G37*
G36*
X94682D02*
X92612D01*
Y137897D01*
X94682D01*
Y139868D01*
D02*
G37*
G36*
X445079Y139509D02*
X444423Y139379D01*
X443867Y139007D01*
X443495Y138451D01*
X443365Y137795D01*
X443495Y137139D01*
X443867Y136583D01*
X444423Y136212D01*
X445079Y136081D01*
X445735Y136212D01*
X446291Y136583D01*
X446662Y137139D01*
X446793Y137795D01*
X446662Y138451D01*
X446291Y139007D01*
X445735Y139379D01*
X445079Y139509D01*
D02*
G37*
G36*
X97152Y137497D02*
X95082D01*
Y135525D01*
X97152D01*
Y137497D01*
D02*
G37*
G36*
X94682D02*
X92612D01*
Y135525D01*
X94682D01*
Y137497D01*
D02*
G37*
G36*
X81994Y139081D02*
X77454D01*
Y136382D01*
X77312Y136287D01*
X77122Y136097D01*
X77086Y136082D01*
X76901Y135901D01*
X76581Y135603D01*
X76325Y135391D01*
X76235Y135326D01*
X75984Y135375D01*
X75655Y135310D01*
X75577Y135365D01*
X74992Y135877D01*
X74908Y135960D01*
Y139081D01*
X70368D01*
Y134738D01*
X73512D01*
X73521Y134729D01*
X73534Y134694D01*
X74023Y134181D01*
X74238Y133925D01*
X74305Y133835D01*
X74270Y133661D01*
X74401Y133005D01*
X74772Y132449D01*
X75328Y132078D01*
X75984Y131947D01*
X76640Y132078D01*
X77196Y132449D01*
X77568Y133005D01*
X77698Y133661D01*
X77649Y133912D01*
X77709Y133996D01*
X78228Y134582D01*
X78363Y134720D01*
X78453D01*
X78541Y134738D01*
X81994D01*
Y139081D01*
D02*
G37*
G36*
X104737Y140097D02*
X100000D01*
Y134966D01*
X103636D01*
X107559Y131044D01*
X107856Y130845D01*
X108207Y130775D01*
X117323D01*
X117674Y130845D01*
X117972Y131044D01*
X119531Y132604D01*
X119568Y132618D01*
X119752Y132800D01*
X120073Y133098D01*
X120329Y133310D01*
X120419Y133375D01*
X120669Y133325D01*
X121325Y133456D01*
X121881Y133827D01*
X122253Y134383D01*
X122383Y135039D01*
X122253Y135695D01*
X121881Y136251D01*
X121325Y136623D01*
X120669Y136753D01*
X120013Y136623D01*
X119457Y136251D01*
X119086Y135695D01*
X118955Y135039D01*
X119005Y134789D01*
X118944Y134704D01*
X118426Y134118D01*
X118248Y133938D01*
X118234Y133901D01*
X116943Y132610D01*
X108588D01*
X104737Y136461D01*
Y140097D01*
D02*
G37*
G36*
X111024Y142752D02*
X110148Y142637D01*
X109333Y142299D01*
X108632Y141761D01*
X108095Y141061D01*
X107757Y140245D01*
X107642Y139370D01*
X107757Y138495D01*
X108095Y137679D01*
X108632Y136979D01*
X109333Y136442D01*
X109473Y136383D01*
X109627Y135778D01*
X109440Y135498D01*
X109310Y134843D01*
X109440Y134187D01*
X109812Y133631D01*
X110368Y133259D01*
X111024Y133128D01*
X111679Y133259D01*
X112236Y133631D01*
X112607Y134187D01*
X112738Y134843D01*
X112607Y135498D01*
X112420Y135778D01*
X112575Y136383D01*
X112715Y136442D01*
X113415Y136979D01*
X113952Y137679D01*
X114290Y138495D01*
X114405Y139370D01*
X114290Y140245D01*
X113952Y141061D01*
X113415Y141761D01*
X112715Y142299D01*
X111899Y142637D01*
X111024Y142752D01*
D02*
G37*
G36*
X316803Y125717D02*
X316803Y125717D01*
X315018Y125717D01*
X314518Y125717D01*
X314142D01*
Y105632D01*
Y85546D01*
X314834Y85546D01*
X314993Y85112D01*
Y84702D01*
X315063Y84351D01*
X315262Y84053D01*
X317161Y82154D01*
X317164Y82143D01*
X317192Y82124D01*
X317228Y82087D01*
X317249Y82047D01*
X317277Y82038D01*
X319469Y79846D01*
Y76532D01*
X318117D01*
Y72188D01*
X322657D01*
Y73442D01*
X325117D01*
Y72188D01*
X329657D01*
Y73442D01*
X331726D01*
X331762Y73427D01*
X332021Y73425D01*
X332458Y73409D01*
X332789Y73378D01*
X332899Y73360D01*
X333041Y73148D01*
X333597Y72776D01*
X334253Y72646D01*
X334909Y72776D01*
X335465Y73148D01*
X335837Y73704D01*
X335967Y74360D01*
X335837Y75016D01*
X335465Y75572D01*
X334909Y75943D01*
X334253Y76074D01*
X333597Y75943D01*
X333041Y75572D01*
X332899Y75359D01*
X332796Y75343D01*
X332016Y75295D01*
X331762Y75293D01*
X331726Y75278D01*
X329657D01*
Y76532D01*
X325117D01*
Y75278D01*
X322657D01*
Y76532D01*
X321305D01*
Y80226D01*
X321235Y80577D01*
X321036Y80875D01*
X318812Y83099D01*
X318812Y83541D01*
X318797Y83578D01*
Y85112D01*
X318955Y85546D01*
X319297Y85546D01*
X320740Y85546D01*
X321240Y85546D01*
X321616D01*
Y105632D01*
Y125717D01*
X320924D01*
X320424Y125717D01*
X318955Y125717D01*
X318455Y125717D01*
X316987D01*
Y125717D01*
X316803D01*
D02*
G37*
G36*
X324861Y125717D02*
X324361Y125717D01*
X323985D01*
Y105632D01*
Y85546D01*
X324677D01*
X325177Y85546D01*
X326645D01*
Y125717D01*
X324861Y125717D01*
D02*
G37*
G36*
X322892D02*
X322392Y125717D01*
X322016D01*
Y105632D01*
Y85546D01*
X322708D01*
X323208Y85546D01*
X323585D01*
Y105632D01*
Y125717D01*
X322892D01*
D02*
G37*
G36*
X313050D02*
X312550Y125717D01*
X312174D01*
Y105632D01*
Y85546D01*
X312866D01*
X313366Y85546D01*
X313742D01*
Y105632D01*
Y125717D01*
X313050D01*
D02*
G37*
G36*
X307144D02*
X306644Y125717D01*
X306268D01*
Y105632D01*
Y85546D01*
X306960D01*
X307460Y85546D01*
X307837D01*
Y105632D01*
Y125717D01*
X307144D01*
D02*
G37*
G36*
X305176D02*
X304676Y125717D01*
X304299D01*
Y105632D01*
Y85546D01*
X304992Y85546D01*
X305492Y85546D01*
X305868D01*
Y105632D01*
Y125717D01*
X305176D01*
D02*
G37*
G36*
X471760Y134569D02*
X469004D01*
X468080Y134385D01*
X467296Y133861D01*
X466773Y133078D01*
X466589Y132153D01*
X466773Y131229D01*
X467296Y130446D01*
X468080Y129922D01*
X468668Y129806D01*
X468619Y129306D01*
X466163D01*
Y121616D01*
X474443D01*
Y129306D01*
X472145D01*
X472096Y129806D01*
X472684Y129922D01*
X473467Y130446D01*
X473991Y131229D01*
X474175Y132153D01*
X473991Y133078D01*
X473467Y133861D01*
X472684Y134385D01*
X471760Y134569D01*
D02*
G37*
G36*
X445079Y115690D02*
X444423Y115560D01*
X443867Y115188D01*
X443495Y114632D01*
X443365Y113976D01*
X443495Y113321D01*
X443867Y112764D01*
X444423Y112393D01*
X445079Y112262D01*
X445735Y112393D01*
X446291Y112764D01*
X446662Y113321D01*
X446793Y113976D01*
X446662Y114632D01*
X446291Y115188D01*
X445735Y115560D01*
X445079Y115690D01*
D02*
G37*
G36*
X251218Y112228D02*
X249147D01*
Y110257D01*
X251218D01*
Y112228D01*
D02*
G37*
G36*
X248747D02*
X246677D01*
Y110257D01*
X248747D01*
Y112228D01*
D02*
G37*
G36*
X243217D02*
X241147D01*
Y110257D01*
X243217D01*
Y112228D01*
D02*
G37*
G36*
X240747D02*
X238677D01*
Y110257D01*
X240747D01*
Y112228D01*
D02*
G37*
G36*
X178153Y113198D02*
Y110043D01*
X181308D01*
X181219Y110718D01*
X180881Y111533D01*
X180344Y112234D01*
X179644Y112771D01*
X178828Y113109D01*
X178153Y113198D01*
D02*
G37*
G36*
X177753D02*
X177078Y113109D01*
X176262Y112771D01*
X175562Y112234D01*
X175024Y111533D01*
X174686Y110718D01*
X174598Y110043D01*
X177753D01*
Y113198D01*
D02*
G37*
G36*
X251218Y109857D02*
X249147D01*
Y107885D01*
X251218D01*
Y109857D01*
D02*
G37*
G36*
X248747D02*
X246677D01*
Y107885D01*
X248747D01*
Y109857D01*
D02*
G37*
G36*
X243217D02*
X241147D01*
Y107885D01*
X243217D01*
Y109857D01*
D02*
G37*
G36*
X240747D02*
X238677D01*
Y107885D01*
X240747D01*
Y109857D01*
D02*
G37*
G36*
X474443Y120447D02*
X466163D01*
Y112758D01*
X468619D01*
X468668Y112258D01*
X468080Y112141D01*
X467296Y111617D01*
X466773Y110834D01*
X466589Y109909D01*
X466773Y108985D01*
X467296Y108202D01*
X468080Y107678D01*
X469004Y107495D01*
X471760D01*
X472684Y107678D01*
X473467Y108202D01*
X473991Y108985D01*
X474175Y109909D01*
X473991Y110834D01*
X473467Y111617D01*
X472684Y112141D01*
X472096Y112258D01*
X472145Y112758D01*
X474443D01*
Y120447D01*
D02*
G37*
G36*
X181308Y109643D02*
X178153D01*
Y106487D01*
X178828Y106576D01*
X179644Y106914D01*
X180344Y107451D01*
X180881Y108152D01*
X181219Y108967D01*
X181308Y109643D01*
D02*
G37*
G36*
X177753D02*
X174598D01*
X174686Y108967D01*
X175024Y108152D01*
X175562Y107451D01*
X176262Y106914D01*
X177078Y106576D01*
X177753Y106487D01*
Y109643D01*
D02*
G37*
G36*
X392108Y108071D02*
X390038D01*
Y106099D01*
X392108D01*
Y108071D01*
D02*
G37*
G36*
X400108D02*
X398038D01*
Y106099D01*
X400108D01*
Y108071D01*
D02*
G37*
G36*
X389638D02*
X387568D01*
Y106099D01*
X389638D01*
Y108071D01*
D02*
G37*
G36*
X397638D02*
X395568D01*
Y106099D01*
X397638D01*
Y108071D01*
D02*
G37*
G36*
X251218Y106126D02*
X246677D01*
Y104872D01*
X243217D01*
Y106126D01*
X238677D01*
Y101783D01*
X240030D01*
Y100957D01*
X239539Y100466D01*
X239340Y100169D01*
X239270Y99818D01*
Y97681D01*
X239224Y97672D01*
X238900Y97455D01*
X238683Y97130D01*
X238607Y96748D01*
Y93145D01*
X238683Y92763D01*
X238900Y92438D01*
X239224Y92221D01*
X239607Y92145D01*
X240768D01*
X241151Y92221D01*
X241475Y92438D01*
X241692Y92763D01*
X241768Y93145D01*
Y94029D01*
X245043D01*
X245385Y93687D01*
X245683Y93489D01*
X246034Y93419D01*
X247732D01*
Y92361D01*
X259162D01*
Y96311D01*
X247732D01*
Y95254D01*
X246414D01*
X246072Y95595D01*
X245775Y95794D01*
X245424Y95864D01*
X241768D01*
Y96748D01*
X241692Y97130D01*
X241475Y97455D01*
X241151Y97672D01*
X241105Y97681D01*
Y99437D01*
X241596Y99928D01*
X241795Y100226D01*
X241865Y100577D01*
Y101783D01*
X243217D01*
Y103037D01*
X246677D01*
Y101783D01*
X251218D01*
Y102561D01*
X251241Y102621D01*
X251637Y102997D01*
X251717Y103017D01*
X252100Y103004D01*
X252433Y102975D01*
X252545Y102957D01*
X252658Y102788D01*
X253214Y102416D01*
X253870Y102286D01*
X254526Y102416D01*
X255082Y102788D01*
X255454Y103344D01*
X255584Y104000D01*
X255454Y104656D01*
X255082Y105212D01*
X254526Y105584D01*
X253870Y105714D01*
X253214Y105584D01*
X252658Y105212D01*
X252487Y104956D01*
X252389Y104939D01*
X251717Y104896D01*
X251502Y105012D01*
X251226Y105319D01*
X251218Y105348D01*
Y106126D01*
D02*
G37*
G36*
X463026Y115713D02*
X459870D01*
X456714D01*
Y114726D01*
X459918D01*
X460185Y114226D01*
X459984Y113926D01*
X459872Y113361D01*
X456813D01*
Y104293D01*
X463912D01*
Y113361D01*
X463805D01*
X463693Y113926D01*
X463258Y114577D01*
X463026Y114732D01*
Y115713D01*
D02*
G37*
G36*
X400108Y105699D02*
X398038D01*
Y103728D01*
X400108D01*
Y105699D01*
D02*
G37*
G36*
X397638D02*
X395568D01*
Y103728D01*
X397638D01*
Y105699D01*
D02*
G37*
G36*
X392108D02*
X390038D01*
Y103728D01*
X392108D01*
Y105699D01*
D02*
G37*
G36*
X389638D02*
X387568D01*
Y103728D01*
X389638D01*
Y105699D01*
D02*
G37*
G36*
X411843Y102300D02*
X409070D01*
Y100138D01*
X411137D01*
X411407Y100191D01*
X411636Y100344D01*
X411789Y100573D01*
X411843Y100844D01*
Y102300D01*
D02*
G37*
G36*
X408670D02*
X405898D01*
Y100844D01*
X405951Y100573D01*
X406104Y100344D01*
X406333Y100191D01*
X406603Y100138D01*
X408670D01*
Y102300D01*
D02*
G37*
G36*
X330287Y133197D02*
X328306D01*
Y93027D01*
X330287D01*
Y133197D01*
D02*
G37*
G36*
X277925D02*
X275944D01*
Y93027D01*
X277925D01*
Y133197D01*
D02*
G37*
G36*
X173716Y97162D02*
X167024D01*
X165994Y97027D01*
X165035Y96630D01*
X164211Y95997D01*
X163579Y95174D01*
X163182Y94214D01*
X163046Y93185D01*
X163182Y92156D01*
X163579Y91196D01*
X164211Y90373D01*
X165035Y89741D01*
X165994Y89343D01*
X167024Y89208D01*
X173716D01*
X174746Y89343D01*
X175705Y89741D01*
X176529Y90373D01*
X177161Y91196D01*
X177558Y92156D01*
X177573Y92267D01*
X194596D01*
Y91230D01*
X198939D01*
Y95770D01*
X194596D01*
Y94103D01*
X177573D01*
X177558Y94214D01*
X177161Y95174D01*
X176529Y95997D01*
X175705Y96630D01*
X174746Y97027D01*
X173716Y97162D01*
D02*
G37*
G36*
X381010Y94790D02*
X376470D01*
Y90447D01*
X377328D01*
X377463Y90306D01*
X377528Y89749D01*
X377157Y89192D01*
X377026Y88537D01*
X377157Y87881D01*
X377528Y87325D01*
X378084Y86953D01*
X378740Y86822D01*
X379396Y86953D01*
X379952Y87325D01*
X380324Y87881D01*
X380454Y88537D01*
X380324Y89192D01*
X379952Y89749D01*
X379948Y89993D01*
X380392Y90447D01*
X381010D01*
Y94790D01*
D02*
G37*
G36*
X465071Y98441D02*
X464063D01*
X463985Y98425D01*
X463906D01*
X462917Y98229D01*
X462844Y98198D01*
X462767Y98183D01*
X461835Y97797D01*
X461770Y97753D01*
X461697Y97723D01*
X460858Y97163D01*
X460802Y97107D01*
X460737Y97063D01*
X460024Y96350D01*
X459980Y96284D01*
X459924Y96228D01*
X459364Y95390D01*
X459334Y95317D01*
X459290Y95251D01*
X458904Y94320D01*
X458888Y94242D01*
X458858Y94169D01*
X458661Y93180D01*
Y93101D01*
X458646Y93024D01*
Y92016D01*
X458661Y91938D01*
Y91859D01*
X458858Y90870D01*
X458888Y90797D01*
X458904Y90720D01*
X459290Y89788D01*
X459334Y89722D01*
X459364Y89649D01*
X459924Y88811D01*
X459980Y88755D01*
X460024Y88689D01*
X460737Y87976D01*
X460802Y87933D01*
X460858Y87877D01*
X461697Y87317D01*
X461770Y87286D01*
X461835Y87242D01*
X462767Y86857D01*
X462844Y86841D01*
X462917Y86811D01*
X463906Y86614D01*
X463985D01*
X464063Y86599D01*
X465071D01*
X465149Y86614D01*
X465228D01*
X466216Y86811D01*
X466290Y86841D01*
X466367Y86857D01*
X467299Y87242D01*
X467364Y87286D01*
X467437Y87317D01*
X468276Y87877D01*
X468331Y87933D01*
X468397Y87976D01*
X469110Y88689D01*
X469154Y88755D01*
X469210Y88811D01*
X469770Y89649D01*
X469800Y89722D01*
X469844Y89788D01*
X470230Y90720D01*
X470246Y90797D01*
X470276Y90870D01*
X470472Y91859D01*
Y91938D01*
X470488Y92016D01*
Y93024D01*
X470472Y93101D01*
Y93180D01*
X470276Y94169D01*
X470246Y94242D01*
X470230Y94320D01*
X469844Y95251D01*
X469800Y95317D01*
X469770Y95390D01*
X469210Y96228D01*
X469154Y96284D01*
X469110Y96350D01*
X468397Y97063D01*
X468331Y97107D01*
X468276Y97163D01*
X467437Y97723D01*
X467364Y97753D01*
X467299Y97797D01*
X466367Y98183D01*
X466290Y98198D01*
X466216Y98229D01*
X465228Y98425D01*
X465149D01*
X465071Y98441D01*
D02*
G37*
G36*
X198939Y87770D02*
X196968D01*
Y85700D01*
X198939D01*
Y87770D01*
D02*
G37*
G36*
X196568D02*
X194596D01*
Y85700D01*
X196568D01*
Y87770D01*
D02*
G37*
G36*
X237028Y87866D02*
X236647D01*
Y85265D01*
X238028D01*
Y86866D01*
X237952Y87248D01*
X237735Y87573D01*
X237411Y87790D01*
X237028Y87866D01*
D02*
G37*
G36*
X236247D02*
X235867D01*
X235484Y87790D01*
X235160Y87573D01*
X234943Y87248D01*
X234867Y86866D01*
Y85265D01*
X236247D01*
Y87866D01*
D02*
G37*
G36*
X240768D02*
X239607D01*
X239224Y87790D01*
X238900Y87573D01*
X238683Y87248D01*
X238607Y86866D01*
Y83263D01*
X238683Y82881D01*
X238900Y82556D01*
X239224Y82340D01*
X239270Y82331D01*
Y81682D01*
X239340Y81331D01*
X239539Y81034D01*
X241530Y79043D01*
Y76921D01*
X240473D01*
Y71712D01*
X244422D01*
Y76921D01*
X243365D01*
Y79423D01*
X243295Y79774D01*
X243096Y80072D01*
X241290Y81877D01*
X241278Y81920D01*
X241339Y82466D01*
X241475Y82556D01*
X241692Y82881D01*
X241768Y83263D01*
Y84147D01*
X244935D01*
X245286Y84217D01*
X245584Y84416D01*
X245925Y84757D01*
X247732D01*
Y83700D01*
X259162D01*
Y87650D01*
X247732D01*
Y86593D01*
X245545D01*
X245194Y86523D01*
X244896Y86324D01*
X244555Y85982D01*
X241768D01*
Y86866D01*
X241692Y87248D01*
X241475Y87573D01*
X241151Y87790D01*
X240768Y87866D01*
D02*
G37*
G36*
X198939Y85300D02*
X196968D01*
Y83230D01*
X198939D01*
Y85300D01*
D02*
G37*
G36*
X196568D02*
X194596D01*
Y83230D01*
X196568D01*
Y85300D01*
D02*
G37*
G36*
X238028Y84865D02*
X236647D01*
Y82263D01*
X237028D01*
X237411Y82340D01*
X237735Y82556D01*
X237952Y82881D01*
X238028Y83263D01*
Y84865D01*
D02*
G37*
G36*
X236247D02*
X234867D01*
Y83263D01*
X234943Y82881D01*
X235160Y82556D01*
X235484Y82340D01*
X235867Y82263D01*
X236247D01*
Y84865D01*
D02*
G37*
G36*
X233288Y87866D02*
X232126D01*
X231744Y87790D01*
X231419Y87573D01*
X231203Y87248D01*
X231127Y86866D01*
Y83263D01*
X231203Y82881D01*
X231419Y82556D01*
X231744Y82340D01*
X231790Y82331D01*
Y80163D01*
X231859Y79812D01*
X232058Y79514D01*
X232530Y79043D01*
Y76728D01*
X231177D01*
Y75474D01*
X227717D01*
Y76728D01*
X223177D01*
Y72385D01*
X227717D01*
Y73639D01*
X231177D01*
Y72385D01*
X235718D01*
Y76728D01*
X234365D01*
Y79423D01*
X234295Y79774D01*
X234096Y80072D01*
X233625Y80543D01*
Y82331D01*
X233671Y82340D01*
X233995Y82556D01*
X234212Y82881D01*
X234288Y83263D01*
Y86866D01*
X234212Y87248D01*
X233995Y87573D01*
X233671Y87790D01*
X233288Y87866D01*
D02*
G37*
G36*
X173716Y87320D02*
X167024D01*
X165994Y87184D01*
X165035Y86787D01*
X164211Y86155D01*
X163579Y85331D01*
X163182Y84372D01*
X163046Y83342D01*
X163182Y82313D01*
X163579Y81354D01*
X164211Y80530D01*
X165035Y79898D01*
X165994Y79501D01*
X167024Y79365D01*
X173716D01*
X174746Y79501D01*
X175705Y79898D01*
X176529Y80530D01*
X177161Y81354D01*
X177558Y82313D01*
X177573Y82425D01*
X181648D01*
X187221Y76851D01*
X187519Y76652D01*
X187870Y76582D01*
X194596D01*
Y75230D01*
X198939D01*
Y79770D01*
X194596D01*
Y78418D01*
X188250D01*
X182676Y83991D01*
X182379Y84190D01*
X182028Y84260D01*
X177573D01*
X177558Y84372D01*
X177161Y85331D01*
X176529Y86155D01*
X175705Y86787D01*
X174746Y87184D01*
X173716Y87320D01*
D02*
G37*
G36*
X261217Y76728D02*
X259147D01*
Y74757D01*
X261217D01*
Y76728D01*
D02*
G37*
G36*
X258747D02*
X256677D01*
Y74757D01*
X258747D01*
Y76728D01*
D02*
G37*
G36*
X253717D02*
X251647D01*
Y74757D01*
X253717D01*
Y76728D01*
D02*
G37*
G36*
X251247D02*
X249177D01*
Y74757D01*
X251247D01*
Y76728D01*
D02*
G37*
G36*
X173716Y77477D02*
X170570D01*
Y73700D01*
X177667D01*
X177558Y74529D01*
X177161Y75489D01*
X176529Y76312D01*
X175705Y76945D01*
X174746Y77342D01*
X173716Y77477D01*
D02*
G37*
G36*
X170170D02*
X167024D01*
X165994Y77342D01*
X165035Y76945D01*
X164211Y76312D01*
X163579Y75489D01*
X163182Y74529D01*
X163073Y73700D01*
X170170D01*
Y77477D01*
D02*
G37*
G36*
X261217Y74357D02*
X259147D01*
Y72385D01*
X261217D01*
Y74357D01*
D02*
G37*
G36*
X258747D02*
X256677D01*
Y72385D01*
X258747D01*
Y74357D01*
D02*
G37*
G36*
X253717D02*
X251647D01*
Y72385D01*
X253717D01*
Y74357D01*
D02*
G37*
G36*
X251247D02*
X249177D01*
Y72385D01*
X251247D01*
Y74357D01*
D02*
G37*
G36*
X198939Y71770D02*
X196968D01*
Y69700D01*
X198939D01*
Y71770D01*
D02*
G37*
G36*
X196568D02*
X194596D01*
Y69700D01*
X196568D01*
Y71770D01*
D02*
G37*
G36*
X177667Y73300D02*
X170570D01*
Y69523D01*
X173716D01*
X174746Y69658D01*
X175705Y70056D01*
X176529Y70688D01*
X177161Y71511D01*
X177558Y72471D01*
X177667Y73300D01*
D02*
G37*
G36*
X170170D02*
X163073D01*
X163182Y72471D01*
X163579Y71511D01*
X164211Y70688D01*
X165035Y70056D01*
X165994Y69658D01*
X167024Y69523D01*
X170170D01*
Y73300D01*
D02*
G37*
G36*
X227717Y70626D02*
X225647D01*
Y68654D01*
X227717D01*
Y70626D01*
D02*
G37*
G36*
X225247D02*
X223177D01*
Y68654D01*
X225247D01*
Y70626D01*
D02*
G37*
G36*
X294657Y70429D02*
X292587D01*
Y68458D01*
X294657D01*
Y70429D01*
D02*
G37*
G36*
X287657D02*
X285587D01*
Y68458D01*
X287657D01*
Y70429D01*
D02*
G37*
G36*
X280657D02*
X278587D01*
Y68458D01*
X280657D01*
Y70429D01*
D02*
G37*
G36*
X329657D02*
X327587D01*
Y68458D01*
X329657D01*
Y70429D01*
D02*
G37*
G36*
X320587D02*
Y68458D01*
X322657D01*
Y70429D01*
X320587D01*
D02*
G37*
G36*
X292187D02*
X290117D01*
Y68458D01*
X292187D01*
Y70429D01*
D02*
G37*
G36*
X285187D02*
X283117D01*
Y68458D01*
X285187D01*
Y70429D01*
D02*
G37*
G36*
X278187D02*
X276117D01*
Y68458D01*
X278187D01*
Y70429D01*
D02*
G37*
G36*
X327187D02*
X325117D01*
Y68458D01*
X327187D01*
Y70429D01*
D02*
G37*
G36*
X299187D02*
X297117D01*
Y68458D01*
X299187D01*
Y70429D01*
D02*
G37*
G36*
X198939Y69300D02*
X196968D01*
Y67230D01*
X198939D01*
Y69300D01*
D02*
G37*
G36*
X196568D02*
X194596D01*
Y67230D01*
X196568D01*
Y69300D01*
D02*
G37*
G36*
X459987Y72595D02*
X459211Y72493D01*
X458487Y72193D01*
X457866Y71716D01*
X457389Y71095D01*
X457089Y70371D01*
X456987Y69595D01*
X457089Y68818D01*
X457389Y68094D01*
X457866Y67473D01*
X458487Y66996D01*
X459211Y66696D01*
X459987Y66594D01*
X460764Y66696D01*
X461487Y66996D01*
X462109Y67473D01*
X462586Y68094D01*
X462886Y68818D01*
X462988Y69595D01*
X462886Y70371D01*
X462586Y71095D01*
X462109Y71716D01*
X461487Y72193D01*
X460764Y72493D01*
X459987Y72595D01*
D02*
G37*
G36*
X439987D02*
X439211Y72493D01*
X438487Y72193D01*
X437866Y71716D01*
X437389Y71095D01*
X437089Y70371D01*
X436987Y69595D01*
X437089Y68818D01*
X437389Y68094D01*
X437866Y67473D01*
X438487Y66996D01*
X439211Y66696D01*
X439987Y66594D01*
X440764Y66696D01*
X441488Y66996D01*
X442109Y67473D01*
X442586Y68094D01*
X442885Y68818D01*
X442988Y69595D01*
X442885Y70371D01*
X442586Y71095D01*
X442109Y71716D01*
X441488Y72193D01*
X440764Y72493D01*
X439987Y72595D01*
D02*
G37*
G36*
X227717Y68254D02*
X225647D01*
Y66283D01*
X227717D01*
Y68254D01*
D02*
G37*
G36*
X225247D02*
X223177D01*
Y66283D01*
X225247D01*
Y68254D01*
D02*
G37*
G36*
X329657Y68058D02*
X327587D01*
Y66086D01*
X329657D01*
Y68058D01*
D02*
G37*
G36*
X327187D02*
X325117D01*
Y66086D01*
X327187D01*
Y68058D01*
D02*
G37*
G36*
X322657D02*
X320587D01*
Y66086D01*
X322657D01*
Y68058D01*
D02*
G37*
G36*
X294657D02*
X292587D01*
Y66086D01*
X294657D01*
Y68058D01*
D02*
G37*
G36*
X292187D02*
X290117D01*
Y66086D01*
X292187D01*
Y68058D01*
D02*
G37*
G36*
X287657D02*
X285587D01*
Y66086D01*
X287657D01*
Y68058D01*
D02*
G37*
G36*
X285187D02*
X283117D01*
Y66086D01*
X285187D01*
Y68058D01*
D02*
G37*
G36*
X280657D02*
X278587D01*
Y66086D01*
X280657D01*
Y68058D01*
D02*
G37*
G36*
X278187D02*
X276117D01*
Y66086D01*
X278187D01*
Y68058D01*
D02*
G37*
G36*
X299187D02*
X297117D01*
Y66086D01*
X299187D01*
Y68058D01*
D02*
G37*
G36*
X173716Y67635D02*
X170570D01*
Y63858D01*
X177667D01*
X177558Y64687D01*
X177161Y65646D01*
X176529Y66470D01*
X175705Y67102D01*
X174746Y67499D01*
X173716Y67635D01*
D02*
G37*
G36*
X170170D02*
X167024D01*
X165994Y67499D01*
X165035Y67102D01*
X164211Y66470D01*
X163579Y65646D01*
X163182Y64687D01*
X163073Y63858D01*
X170170D01*
Y67635D01*
D02*
G37*
G36*
X349500Y71714D02*
X348844Y71584D01*
X348288Y71212D01*
X347916Y70656D01*
X347786Y70000D01*
X347916Y69344D01*
X348288Y68788D01*
X348440Y68686D01*
X348494Y68177D01*
X348070Y67723D01*
X347230D01*
Y63380D01*
X351770D01*
Y64634D01*
X356070D01*
Y63500D01*
X362670D01*
Y66500D01*
X356070D01*
Y66469D01*
X351770D01*
Y67723D01*
X350922D01*
X350484Y68172D01*
X350536Y68670D01*
X350712Y68788D01*
X351084Y69344D01*
X351214Y70000D01*
X351084Y70656D01*
X350712Y71212D01*
X350156Y71584D01*
X349500Y71714D01*
D02*
G37*
G36*
X198939Y63770D02*
X196968D01*
Y61700D01*
X198939D01*
Y63770D01*
D02*
G37*
G36*
X196568D02*
X194596D01*
Y61700D01*
X196568D01*
Y63770D01*
D02*
G37*
G36*
X362670Y61500D02*
X359570D01*
Y60200D01*
X362670D01*
Y61500D01*
D02*
G37*
G36*
X359170D02*
X356070D01*
Y60200D01*
X359170D01*
Y61500D01*
D02*
G37*
G36*
X177667Y63458D02*
X170570D01*
Y59680D01*
X173716D01*
X174746Y59816D01*
X175705Y60213D01*
X176529Y60845D01*
X177161Y61669D01*
X177558Y62628D01*
X177667Y63458D01*
D02*
G37*
G36*
X170170D02*
X163073D01*
X163182Y62628D01*
X163579Y61669D01*
X164211Y60845D01*
X165035Y60213D01*
X165994Y59816D01*
X167024Y59680D01*
X170170D01*
Y63458D01*
D02*
G37*
G36*
X351770Y61620D02*
X349700D01*
Y59649D01*
X351770D01*
Y61620D01*
D02*
G37*
G36*
X349300D02*
X347230D01*
Y59649D01*
X349300D01*
Y61620D01*
D02*
G37*
G36*
X198939Y61300D02*
X196968D01*
Y59230D01*
X198939D01*
Y61300D01*
D02*
G37*
G36*
X196568D02*
X194596D01*
Y59230D01*
X196568D01*
Y61300D01*
D02*
G37*
G36*
X362670Y59800D02*
X359570D01*
Y58500D01*
X362670D01*
Y59800D01*
D02*
G37*
G36*
X359170D02*
X356070D01*
Y58500D01*
X359170D01*
Y59800D01*
D02*
G37*
G36*
X351770Y59249D02*
X349700D01*
Y57277D01*
X351770D01*
Y59249D01*
D02*
G37*
G36*
X349300D02*
X347230D01*
Y57277D01*
X349300D01*
Y59249D01*
D02*
G37*
G36*
X439987Y62595D02*
X439211Y62493D01*
X438487Y62193D01*
X437866Y61716D01*
X437389Y61095D01*
X437089Y60371D01*
X436987Y59595D01*
X437089Y58818D01*
X437389Y58094D01*
X437866Y57473D01*
X438487Y56996D01*
X439211Y56696D01*
X439987Y56594D01*
X440764Y56696D01*
X441488Y56996D01*
X442109Y57473D01*
X442586Y58094D01*
X442885Y58818D01*
X442988Y59595D01*
X442885Y60371D01*
X442586Y61095D01*
X442109Y61716D01*
X441488Y62193D01*
X440764Y62493D01*
X439987Y62595D01*
D02*
G37*
G36*
X380500Y72214D02*
X379844Y72084D01*
X379288Y71712D01*
X378916Y71156D01*
X378786Y70500D01*
X378916Y69844D01*
X379288Y69288D01*
X379627Y69061D01*
X379642Y68981D01*
X379695Y68209D01*
X379697Y67957D01*
X379707Y67933D01*
X379700Y67908D01*
X379712Y67887D01*
Y66500D01*
X377330D01*
Y63500D01*
X379712D01*
Y61500D01*
X377330D01*
Y58500D01*
X379712D01*
Y56500D01*
X377330D01*
Y53500D01*
X383930D01*
Y56500D01*
X381548D01*
Y58500D01*
X383930D01*
Y61500D01*
X381548D01*
Y63500D01*
X383930D01*
Y66500D01*
X381548D01*
Y68039D01*
X381563Y68074D01*
X381578Y68784D01*
X381605Y69120D01*
X381620Y69226D01*
X381712Y69288D01*
X382084Y69844D01*
X382214Y70500D01*
X382084Y71156D01*
X381712Y71712D01*
X381156Y72084D01*
X380500Y72214D01*
D02*
G37*
G36*
X173716Y57792D02*
X167024D01*
X165994Y57657D01*
X165035Y57259D01*
X164211Y56627D01*
X163579Y55804D01*
X163182Y54844D01*
X163046Y53815D01*
X163182Y52786D01*
X163579Y51826D01*
X164211Y51003D01*
X165035Y50371D01*
X165994Y49973D01*
X167024Y49838D01*
X173716D01*
X174746Y49973D01*
X175705Y50371D01*
X176529Y51003D01*
X177161Y51826D01*
X177558Y52786D01*
X177586Y52999D01*
X194647D01*
Y51230D01*
X198991D01*
Y55770D01*
X194647D01*
Y54631D01*
X177586D01*
X177558Y54844D01*
X177161Y55804D01*
X176529Y56627D01*
X175705Y57259D01*
X174746Y57657D01*
X173716Y57792D01*
D02*
G37*
G36*
X383930Y51500D02*
X380830D01*
Y50200D01*
X383930D01*
Y51500D01*
D02*
G37*
G36*
X380430D02*
X377330D01*
Y50200D01*
X380430D01*
Y51500D01*
D02*
G37*
G36*
X383930Y49800D02*
X380830D01*
Y48500D01*
X383930D01*
Y49800D01*
D02*
G37*
G36*
X380430D02*
X377330D01*
Y48500D01*
X380430D01*
Y49800D01*
D02*
G37*
G36*
X459987Y52595D02*
X459211Y52493D01*
X458487Y52193D01*
X457866Y51716D01*
X457389Y51095D01*
X457089Y50371D01*
X456987Y49595D01*
X457089Y48818D01*
X457389Y48094D01*
X457866Y47473D01*
X458487Y46996D01*
X459211Y46696D01*
X459987Y46594D01*
X460764Y46696D01*
X461487Y46996D01*
X462109Y47473D01*
X462586Y48094D01*
X462886Y48818D01*
X462988Y49595D01*
X462886Y50371D01*
X462586Y51095D01*
X462109Y51716D01*
X461487Y52193D01*
X460764Y52493D01*
X459987Y52595D01*
D02*
G37*
G36*
X439987D02*
X439211Y52493D01*
X438487Y52193D01*
X437866Y51716D01*
X437389Y51095D01*
X437089Y50371D01*
X436987Y49595D01*
X437089Y48818D01*
X437389Y48094D01*
X437866Y47473D01*
X438487Y46996D01*
X439211Y46696D01*
X439987Y46594D01*
X440764Y46696D01*
X441488Y46996D01*
X442109Y47473D01*
X442586Y48094D01*
X442885Y48818D01*
X442988Y49595D01*
X442885Y50371D01*
X442586Y51095D01*
X442109Y51716D01*
X441488Y52193D01*
X440764Y52493D01*
X439987Y52595D01*
D02*
G37*
%LPD*%
G36*
X185482Y200847D02*
X185562Y200794D01*
X185664Y200748D01*
X185789Y200708D01*
X185936Y200674D01*
X186106Y200646D01*
X186512Y200609D01*
X187008Y200597D01*
Y199797D01*
X186749Y199794D01*
X186106Y199748D01*
X185936Y199720D01*
X185789Y199686D01*
X185664Y199646D01*
X185562Y199599D01*
X185482Y199547D01*
X185424Y199488D01*
Y200905D01*
X185482Y200847D01*
D02*
G37*
G36*
X190320Y197375D02*
X190393Y197318D01*
X190489Y197268D01*
X190609Y197225D01*
X190752Y197189D01*
X190918Y197159D01*
X191107Y197135D01*
X191556Y197109D01*
X191816Y197106D01*
X191710Y196306D01*
X191451Y196303D01*
X190804Y196262D01*
X190632Y196237D01*
X190481Y196207D01*
X190352Y196171D01*
X190245Y196130D01*
X190160Y196083D01*
X190096Y196031D01*
X190270Y197438D01*
X190320Y197375D01*
D02*
G37*
G36*
X275152Y194170D02*
X275366Y193985D01*
X275468Y193910D01*
X275565Y193847D01*
X275658Y193795D01*
X275748Y193754D01*
X275834Y193725D01*
X275915Y193707D01*
X275993Y193701D01*
X274853Y192859D01*
X274869Y192933D01*
X274873Y193010D01*
X274865Y193089D01*
X274845Y193171D01*
X274813Y193255D01*
X274769Y193342D01*
X274713Y193431D01*
X274645Y193523D01*
X274565Y193617D01*
X274473Y193713D01*
X275039Y194279D01*
X275152Y194170D01*
D02*
G37*
G36*
X201191Y190217D02*
X201271Y190164D01*
X201374Y190118D01*
X201498Y190078D01*
X201645Y190044D01*
X201815Y190016D01*
X202221Y189979D01*
X202718Y189967D01*
Y189167D01*
X202458Y189164D01*
X201815Y189118D01*
X201645Y189090D01*
X201498Y189056D01*
X201374Y189016D01*
X201271Y188969D01*
X201191Y188917D01*
X201134Y188858D01*
Y190276D01*
X201191Y190217D01*
D02*
G37*
G36*
X395482Y182556D02*
X395528Y182006D01*
X395556Y181859D01*
X395590Y181730D01*
X395630Y181620D01*
X395676Y181528D01*
X395729Y181455D01*
X395787Y181399D01*
X394370D01*
X394429Y181455D01*
X394481Y181528D01*
X394528Y181620D01*
X394568Y181730D01*
X394602Y181859D01*
X394629Y182006D01*
X394651Y182171D01*
X394676Y182556D01*
X394679Y182776D01*
X395479D01*
X395482Y182556D01*
D02*
G37*
G36*
X433058Y189579D02*
X433037Y189553D01*
X433017Y189516D01*
X432998Y189470D01*
X432979Y189414D01*
X432961Y189347D01*
X432928Y189185D01*
X432898Y188982D01*
X432884Y188870D01*
X432886Y188868D01*
X432884Y188868D01*
X432884Y188866D01*
X432882Y188868D01*
X432770Y188854D01*
X432405Y188791D01*
X432338Y188773D01*
X432282Y188754D01*
X432235Y188735D01*
X432199Y188715D01*
X432173Y188693D01*
X431607Y189259D01*
X431628Y189286D01*
X431648Y189322D01*
X431668Y189368D01*
X431686Y189425D01*
X431704Y189491D01*
X431738Y189654D01*
X431768Y189857D01*
X431781Y189968D01*
X431779Y189970D01*
X431781Y189971D01*
X431782Y189973D01*
X431784Y189971D01*
X431895Y189984D01*
X432261Y190048D01*
X432327Y190066D01*
X432383Y190084D01*
X432430Y190104D01*
X432466Y190124D01*
X432493Y190145D01*
X433058Y189579D01*
D02*
G37*
G36*
X182468Y183215D02*
X182487Y183122D01*
X182527Y183017D01*
X182587Y182900D01*
X182667Y182772D01*
X182767Y182633D01*
X183028Y182319D01*
X183370Y181959D01*
X182804Y181394D01*
X182619Y181575D01*
X182131Y181997D01*
X181992Y182097D01*
X181864Y182177D01*
X181747Y182237D01*
X181642Y182277D01*
X181548Y182296D01*
X181466Y182295D01*
X182468Y183298D01*
X182468Y183215D01*
D02*
G37*
G36*
X381162Y144216D02*
X381109Y144136D01*
X381063Y144033D01*
X381023Y143909D01*
X380989Y143761D01*
X380961Y143592D01*
X380924Y143185D01*
X380912Y142689D01*
X380112D01*
X380109Y142949D01*
X380062Y143592D01*
X380035Y143761D01*
X380001Y143909D01*
X379961Y144033D01*
X379914Y144136D01*
X379862Y144216D01*
X379803Y144273D01*
X381221D01*
X381162Y144216D01*
D02*
G37*
G36*
X377225Y140336D02*
X377172Y140256D01*
X377126Y140154D01*
X377086Y140029D01*
X377052Y139882D01*
X377024Y139712D01*
X376987Y139306D01*
X376975Y138810D01*
X376175D01*
X376172Y139069D01*
X376125Y139712D01*
X376098Y139882D01*
X376064Y140029D01*
X376024Y140154D01*
X375977Y140256D01*
X375925Y140336D01*
X375866Y140394D01*
X377284D01*
X377225Y140336D01*
D02*
G37*
G36*
X375144Y137078D02*
X375091Y137009D01*
X375045Y136925D01*
X375005Y136826D01*
X374971Y136712D01*
X374943Y136583D01*
X374921Y136438D01*
X374897Y136105D01*
X374894Y135915D01*
X374094D01*
X374091Y136105D01*
X374066Y136438D01*
X374044Y136583D01*
X374016Y136712D01*
X373983Y136826D01*
X373942Y136925D01*
X373896Y137009D01*
X373844Y137078D01*
X373785Y137132D01*
X375202D01*
X375144Y137078D01*
D02*
G37*
G36*
X426394Y127150D02*
X425394Y125150D01*
X424394Y127150D01*
X424394Y128350D01*
X426394D01*
X426394Y127150D01*
D02*
G37*
G36*
X388259Y123274D02*
X388209Y123314D01*
X388097Y123414D01*
X388073Y123442D01*
X388055Y123467D01*
X388044Y123488D01*
X388039Y123507D01*
X388041Y123523D01*
X388049Y123536D01*
X387483Y124102D01*
X387541Y124161D01*
X387690Y124331D01*
X387731Y124386D01*
X387801Y124491D01*
X387830Y124541D01*
X387854Y124590D01*
X387875Y124638D01*
X388259Y123274D01*
D02*
G37*
G36*
X456714Y122403D02*
Y122347D01*
X456404Y121847D01*
X436780D01*
X436779Y121847D01*
X436467Y121785D01*
X436203Y121608D01*
X436203Y121608D01*
X418482Y103887D01*
X418305Y103623D01*
X418245Y103321D01*
X416288D01*
X415899Y103570D01*
X415837Y103883D01*
X415660Y104147D01*
X415660Y104147D01*
X413933Y105874D01*
X413919Y106466D01*
X415116Y107663D01*
X419326D01*
X419765Y107845D01*
X419947Y108284D01*
Y110259D01*
X419765Y110698D01*
X419970Y111147D01*
X431598Y122775D01*
X456404D01*
X456714Y122403D01*
D02*
G37*
G36*
X389979Y120419D02*
X390059Y120367D01*
X390161Y120320D01*
X390286Y120280D01*
X390433Y120247D01*
X390602Y120219D01*
X391009Y120182D01*
X391505Y120169D01*
Y119369D01*
X391246Y119366D01*
X390602Y119320D01*
X390433Y119292D01*
X390286Y119258D01*
X390161Y119218D01*
X390059Y119172D01*
X389979Y119119D01*
X389921Y119061D01*
Y120478D01*
X389979Y120419D01*
D02*
G37*
G36*
X418238Y119885D02*
X418278Y119771D01*
X418346Y119638D01*
X418440Y119487D01*
X418561Y119318D01*
X418884Y118926D01*
X419090Y118702D01*
X419444Y118397D01*
X419583Y118297D01*
X419711Y118216D01*
X419828Y118157D01*
X419933Y118117D01*
X420026Y118098D01*
X420109Y118098D01*
X419106Y117096D01*
X419107Y117178D01*
X419088Y117272D01*
X419048Y117377D01*
X418988Y117494D01*
X418908Y117622D01*
X418808Y117761D01*
X418581Y118034D01*
X417886Y118644D01*
X417718Y118765D01*
X417567Y118859D01*
X417434Y118926D01*
X417320Y118967D01*
X417224Y118980D01*
X418224Y119981D01*
X418238Y119885D01*
D02*
G37*
G36*
X430765Y124222D02*
X430683Y124167D01*
X430683Y124167D01*
X418222Y111706D01*
X418045Y111442D01*
X417983Y111129D01*
X417594Y110880D01*
X414556D01*
X414117Y110698D01*
X413935Y110259D01*
Y108789D01*
X413004Y107859D01*
X412150D01*
X411872Y108275D01*
X411876Y108284D01*
Y110259D01*
X411694Y110698D01*
X411255Y110880D01*
X410850D01*
X410643Y111380D01*
X417588Y118325D01*
X417617Y118304D01*
X418269Y117731D01*
X418465Y117496D01*
X418548Y117380D01*
X418611Y117280D01*
X418626Y117252D01*
X418562Y116929D01*
X418692Y116273D01*
X419064Y115717D01*
X419620Y115346D01*
X420276Y115215D01*
X420931Y115346D01*
X421488Y115717D01*
X421859Y116273D01*
X421990Y116929D01*
X421859Y117585D01*
X421488Y118141D01*
X420931Y118513D01*
X420276Y118643D01*
X419953Y118579D01*
X419925Y118593D01*
X419824Y118656D01*
X419712Y118737D01*
X419392Y119014D01*
X419210Y119211D01*
X418904Y119582D01*
X418880Y119617D01*
X423985Y124722D01*
X430614D01*
X430765Y124222D01*
D02*
G37*
G36*
X398506Y115352D02*
X398471Y115284D01*
X398440Y115191D01*
X398413Y115073D01*
X398390Y114931D01*
X398357Y114574D01*
X398340Y114118D01*
X398338Y113853D01*
X397338Y113850D01*
X397336Y114115D01*
X397286Y114928D01*
X397263Y115070D01*
X397235Y115188D01*
X397204Y115280D01*
X397168Y115348D01*
X397129Y115392D01*
X398546Y115396D01*
X398506Y115352D01*
D02*
G37*
G36*
X381222Y112163D02*
X381833Y111623D01*
X381949Y111539D01*
X382051Y111475D01*
X382139Y111431D01*
X382213Y111408D01*
X382271Y111405D01*
X381269Y110403D01*
X381266Y110462D01*
X381243Y110535D01*
X381200Y110623D01*
X381136Y110725D01*
X381052Y110842D01*
X380823Y111118D01*
X380512Y111453D01*
X380326Y111642D01*
X381033Y112349D01*
X381222Y112163D01*
D02*
G37*
G36*
X76634Y189334D02*
X76582Y189254D01*
X76535Y189152D01*
X76495Y189027D01*
X76461Y188880D01*
X76434Y188710D01*
X76397Y188304D01*
X76384Y187808D01*
X75584D01*
X75581Y188067D01*
X75535Y188710D01*
X75507Y188880D01*
X75473Y189027D01*
X75433Y189152D01*
X75387Y189254D01*
X75334Y189334D01*
X75276Y189391D01*
X76693D01*
X76634Y189334D01*
D02*
G37*
G36*
X110099Y189216D02*
X110046Y189136D01*
X110000Y189034D01*
X109960Y188909D01*
X109926Y188762D01*
X109898Y188593D01*
X109861Y188186D01*
X109849Y187690D01*
X109049D01*
X109046Y187949D01*
X108999Y188593D01*
X108972Y188762D01*
X108938Y188909D01*
X108898Y189034D01*
X108851Y189136D01*
X108799Y189216D01*
X108740Y189274D01*
X110158D01*
X110099Y189216D01*
D02*
G37*
G36*
X134396Y180933D02*
X134210Y180744D01*
X133670Y180133D01*
X133586Y180017D01*
X133522Y179914D01*
X133479Y179827D01*
X133456Y179753D01*
X133453Y179695D01*
X132450Y180697D01*
X132509Y180700D01*
X132583Y180723D01*
X132670Y180766D01*
X132773Y180830D01*
X132889Y180914D01*
X133166Y181143D01*
X133500Y181454D01*
X133689Y181640D01*
X134396Y180933D01*
D02*
G37*
G36*
X447844Y181403D02*
X447890Y180760D01*
X447918Y180590D01*
X447952Y180443D01*
X447992Y180318D01*
X448038Y180216D01*
X448091Y180136D01*
X448150Y180079D01*
X446732D01*
X446791Y180136D01*
X446843Y180216D01*
X446890Y180318D01*
X446930Y180443D01*
X446964Y180590D01*
X446992Y180760D01*
X447029Y181166D01*
X447041Y181662D01*
X447841D01*
X447844Y181403D01*
D02*
G37*
G36*
X81853Y190469D02*
X81933Y190416D01*
X82035Y190370D01*
X82160Y190330D01*
X82307Y190296D01*
X82477Y190268D01*
X82883Y190231D01*
X83379Y190219D01*
Y189419D01*
X83120Y189416D01*
X82477Y189369D01*
X82307Y189342D01*
X82160Y189308D01*
X82035Y189268D01*
X81933Y189221D01*
X81853Y189169D01*
X81795Y189110D01*
Y190528D01*
X81853Y190469D01*
D02*
G37*
G36*
X104999Y188589D02*
X104922Y188592D01*
X104845Y188587D01*
X104768Y188573D01*
X104691Y188550D01*
X104613Y188519D01*
X104535Y188479D01*
X104456Y188430D01*
X104378Y188372D01*
X104299Y188306D01*
X104220Y188231D01*
X103654Y188797D01*
X103724Y188872D01*
X103786Y188946D01*
X103838Y189021D01*
X103882Y189096D01*
X103916Y189171D01*
X103942Y189246D01*
X103959Y189322D01*
X103967Y189397D01*
X103966Y189473D01*
X103957Y189549D01*
X104999Y188589D01*
D02*
G37*
G36*
X162411Y185931D02*
X162457Y185288D01*
X162485Y185118D01*
X162519Y184971D01*
X162559Y184846D01*
X162605Y184744D01*
X162658Y184664D01*
X162716Y184606D01*
X161299D01*
X161358Y184664D01*
X161410Y184744D01*
X161457Y184846D01*
X161497Y184971D01*
X161531Y185118D01*
X161558Y185288D01*
X161595Y185694D01*
X161608Y186190D01*
X162408D01*
X162411Y185931D01*
D02*
G37*
G36*
X96319Y184431D02*
X96267Y184351D01*
X96220Y184248D01*
X96180Y184124D01*
X96147Y183976D01*
X96119Y183807D01*
X96082Y183400D01*
X96069Y182904D01*
X95269D01*
X95266Y183164D01*
X95220Y183807D01*
X95192Y183976D01*
X95158Y184124D01*
X95118Y184248D01*
X95072Y184351D01*
X95019Y184431D01*
X94961Y184488D01*
X96378D01*
X96319Y184431D01*
D02*
G37*
G36*
X120030Y141783D02*
X120050Y141690D01*
X120089Y141585D01*
X120149Y141468D01*
X120229Y141340D01*
X120329Y141200D01*
X120590Y140887D01*
X120932Y140527D01*
X120367Y139962D01*
X120181Y140143D01*
X119694Y140565D01*
X119554Y140665D01*
X119426Y140745D01*
X119309Y140805D01*
X119204Y140845D01*
X119111Y140864D01*
X119029Y140863D01*
X120031Y141865D01*
X120030Y141783D01*
D02*
G37*
G36*
X266599Y137388D02*
X266592Y137351D01*
X266352Y137191D01*
X266352Y137191D01*
X264426Y135265D01*
X181227D01*
X181219Y135324D01*
X180881Y136140D01*
X180344Y136840D01*
X179678Y137351D01*
X179676Y137405D01*
X179960Y137851D01*
X266405D01*
X266599Y137388D01*
D02*
G37*
G36*
X133197Y138090D02*
X133197Y138090D01*
X133462Y137913D01*
X133774Y137851D01*
X133774Y137851D01*
X175945D01*
X176230Y137405D01*
X176228Y137351D01*
X175562Y136840D01*
X175024Y136140D01*
X174686Y135324D01*
X174679Y135265D01*
X135180D01*
X114488Y155956D01*
X114511Y156069D01*
X115053Y156234D01*
X133197Y138090D01*
D02*
G37*
G36*
X344743Y132795D02*
X345231Y132373D01*
X345370Y132273D01*
X345498Y132193D01*
X345615Y132133D01*
X345720Y132093D01*
X345814Y132074D01*
X345896Y132075D01*
X344894Y131072D01*
X344895Y131155D01*
X344875Y131248D01*
X344835Y131353D01*
X344776Y131470D01*
X344696Y131598D01*
X344595Y131738D01*
X344334Y132051D01*
X343992Y132411D01*
X344558Y132976D01*
X344743Y132795D01*
D02*
G37*
G36*
X134266Y133872D02*
X134266Y133872D01*
X134530Y133695D01*
X134843Y133633D01*
X134843Y133633D01*
X174679D01*
X174686Y133574D01*
X175024Y132758D01*
X175562Y132058D01*
X176262Y131520D01*
X177078Y131182D01*
X177953Y131067D01*
X178828Y131182D01*
X179644Y131520D01*
X180344Y132058D01*
X180881Y132758D01*
X181219Y133574D01*
X181227Y133633D01*
X264764D01*
X264764Y133633D01*
X265076Y133695D01*
X265340Y133872D01*
X267267Y135799D01*
X269594D01*
X269612Y135775D01*
X269775Y135299D01*
X261410Y126934D01*
X181188D01*
X180881Y127675D01*
X180344Y128375D01*
X179644Y128913D01*
X178828Y129251D01*
X177953Y129366D01*
X177078Y129251D01*
X176262Y128913D01*
X175562Y128375D01*
X175174Y128350D01*
X171057Y132466D01*
X170792Y132643D01*
X170480Y132705D01*
X170480Y132705D01*
X133999D01*
X112430Y154275D01*
Y155027D01*
X112453Y155045D01*
X112930Y155208D01*
X134266Y133872D01*
D02*
G37*
G36*
X123130Y125505D02*
X122949Y125320D01*
X122527Y124832D01*
X122426Y124692D01*
X122346Y124565D01*
X122286Y124448D01*
X122247Y124343D01*
X122228Y124249D01*
X122228Y124167D01*
X121226Y125169D01*
X121308Y125168D01*
X121402Y125188D01*
X121507Y125227D01*
X121624Y125287D01*
X121752Y125367D01*
X121891Y125468D01*
X122205Y125729D01*
X122564Y126071D01*
X123130Y125505D01*
D02*
G37*
G36*
X117571Y126005D02*
X117390Y125819D01*
X116982Y125338D01*
X116892Y125204D01*
X116825Y125083D01*
X116780Y124975D01*
X116758Y124880D01*
X116760Y124798D01*
X116784Y124729D01*
X115485Y125296D01*
X115555Y125320D01*
X115638Y125361D01*
X115735Y125420D01*
X115843Y125497D01*
X116099Y125704D01*
X116406Y125981D01*
X116764Y126329D01*
X117571Y126005D01*
D02*
G37*
G36*
X132061Y124650D02*
X132141Y124598D01*
X132244Y124551D01*
X132369Y124511D01*
X132516Y124477D01*
X132685Y124449D01*
X133092Y124412D01*
X133588Y124400D01*
Y123600D01*
X133328Y123597D01*
X132685Y123551D01*
X132516Y123523D01*
X132369Y123489D01*
X132244Y123449D01*
X132141Y123403D01*
X132061Y123350D01*
X132004Y123291D01*
Y124709D01*
X132061Y124650D01*
D02*
G37*
G36*
X300563Y85096D02*
X300563Y84616D01*
X299880Y84167D01*
X299763Y85416D01*
X299763Y85896D01*
X300563Y85096D01*
D02*
G37*
G36*
X304019Y82514D02*
X304331Y82452D01*
X307208D01*
X312571Y77089D01*
Y76532D01*
X311117D01*
Y72188D01*
X314405D01*
X315669Y70924D01*
X315457Y70429D01*
X311117D01*
Y69175D01*
X308657D01*
Y70429D01*
X304317D01*
X304105Y70924D01*
X305369Y72188D01*
X308657D01*
Y76532D01*
X307203D01*
Y78226D01*
X307203Y78226D01*
X307141Y78538D01*
X306964Y78803D01*
X306964Y78803D01*
X303521Y82245D01*
X303840Y82633D01*
X304019Y82514D01*
D02*
G37*
G36*
X313812Y67026D02*
X313862Y66212D01*
X313885Y66070D01*
X313912Y65953D01*
X313943Y65860D01*
X313979Y65792D01*
X314018Y65748D01*
X312601D01*
X312641Y65792D01*
X312676Y65860D01*
X312707Y65953D01*
X312735Y66070D01*
X312757Y66212D01*
X312791Y66570D01*
X312808Y67026D01*
X312810Y67291D01*
X313810D01*
X313812Y67026D01*
D02*
G37*
G36*
X151221Y149488D02*
X151163Y149547D01*
X151083Y149599D01*
X150981Y149646D01*
X150856Y149686D01*
X150709Y149720D01*
X150539Y149748D01*
X150133Y149785D01*
X149637Y149797D01*
Y150597D01*
X149896Y150600D01*
X150539Y150646D01*
X150709Y150674D01*
X150856Y150708D01*
X150981Y150748D01*
X151083Y150794D01*
X151163Y150847D01*
X151221Y150906D01*
Y149488D01*
D02*
G37*
G36*
X132892Y150847D02*
X132972Y150794D01*
X133074Y150748D01*
X133199Y150708D01*
X133346Y150674D01*
X133516Y150646D01*
X133922Y150609D01*
X134418Y150597D01*
Y149797D01*
X134159Y149794D01*
X133516Y149748D01*
X133346Y149720D01*
X133199Y149686D01*
X133074Y149646D01*
X132972Y149599D01*
X132892Y149547D01*
X132835Y149488D01*
Y150906D01*
X132892Y150847D01*
D02*
G37*
G36*
X128137Y150932D02*
X128156Y150838D01*
X128196Y150733D01*
X128256Y150617D01*
X128336Y150489D01*
X128436Y150349D01*
X128697Y150035D01*
X129039Y149676D01*
X128474Y149110D01*
X128288Y149291D01*
X127801Y149714D01*
X127661Y149814D01*
X127533Y149894D01*
X127416Y149954D01*
X127311Y149993D01*
X127218Y150013D01*
X127136Y150012D01*
X128138Y151014D01*
X128137Y150932D01*
D02*
G37*
G36*
X155945Y144173D02*
X155887Y144232D01*
X155807Y144284D01*
X155705Y144331D01*
X155580Y144371D01*
X155433Y144405D01*
X155264Y144432D01*
X154857Y144469D01*
X154361Y144482D01*
Y145282D01*
X154620Y145285D01*
X155264Y145331D01*
X155433Y145359D01*
X155580Y145393D01*
X155705Y145433D01*
X155807Y145479D01*
X155887Y145532D01*
X155945Y145591D01*
Y144173D01*
D02*
G37*
G36*
X78097Y135067D02*
X77911Y134878D01*
X77371Y134267D01*
X77287Y134151D01*
X77223Y134048D01*
X77179Y133961D01*
X77156Y133887D01*
X77153Y133828D01*
X76151Y134831D01*
X76210Y134833D01*
X76283Y134857D01*
X76371Y134900D01*
X76473Y134964D01*
X76590Y135048D01*
X76867Y135277D01*
X77201Y135588D01*
X77390Y135774D01*
X78097Y135067D01*
D02*
G37*
G36*
X74697Y135560D02*
X75309Y135024D01*
X75425Y134942D01*
X75528Y134880D01*
X75616Y134839D01*
X75689Y134818D01*
X75749Y134819D01*
X74807Y133759D01*
X74801Y133817D01*
X74775Y133889D01*
X74730Y133976D01*
X74664Y134078D01*
X74578Y134194D01*
X74346Y134470D01*
X73848Y134993D01*
X74509Y135746D01*
X74697Y135560D01*
D02*
G37*
G36*
X120502Y133870D02*
X120443Y133867D01*
X120370Y133844D01*
X120282Y133801D01*
X120180Y133737D01*
X120064Y133653D01*
X119787Y133423D01*
X119453Y133113D01*
X119264Y132927D01*
X118557Y133634D01*
X118743Y133823D01*
X119283Y134434D01*
X119367Y134550D01*
X119431Y134652D01*
X119474Y134740D01*
X119497Y134813D01*
X119500Y134872D01*
X120502Y133870D01*
D02*
G37*
G36*
X111427Y137112D02*
X111473Y136469D01*
X111501Y136299D01*
X111535Y136152D01*
X111575Y136027D01*
X111621Y135925D01*
X111674Y135845D01*
X111732Y135787D01*
X110315D01*
X110374Y135845D01*
X110426Y135925D01*
X110472Y136027D01*
X110512Y136152D01*
X110547Y136299D01*
X110574Y136469D01*
X110611Y136875D01*
X110624Y137371D01*
X111424D01*
X111427Y137112D01*
D02*
G37*
G36*
X318379Y83541D02*
X318379Y82941D01*
X317526Y82380D01*
X317379Y83941D01*
X317379Y84541D01*
X318379Y83541D01*
D02*
G37*
G36*
X333308Y73651D02*
X333264Y73691D01*
X333196Y73726D01*
X333103Y73758D01*
X332986Y73785D01*
X332844Y73808D01*
X332487Y73841D01*
X332031Y73858D01*
X331766Y73860D01*
Y74860D01*
X332031Y74862D01*
X332844Y74912D01*
X332986Y74935D01*
X333103Y74962D01*
X333196Y74993D01*
X333264Y75029D01*
X333308Y75069D01*
Y73651D01*
D02*
G37*
G36*
X252953Y103255D02*
X252909Y103293D01*
X252840Y103327D01*
X252746Y103357D01*
X252628Y103383D01*
X252485Y103405D01*
X252127Y103437D01*
X251670Y103452D01*
X251405Y103454D01*
X251363Y104454D01*
X251627Y104457D01*
X252439Y104509D01*
X252581Y104533D01*
X252697Y104561D01*
X252789Y104593D01*
X252856Y104630D01*
X252899Y104672D01*
X252953Y103255D01*
D02*
G37*
G36*
X379242Y90759D02*
X379292Y89945D01*
X379315Y89803D01*
X379342Y89686D01*
X379374Y89593D01*
X379409Y89525D01*
X379449Y89481D01*
X378031D01*
X378071Y89525D01*
X378107Y89593D01*
X378138Y89686D01*
X378165Y89803D01*
X378188Y89945D01*
X378221Y90303D01*
X378238Y90759D01*
X378240Y91024D01*
X379240D01*
X379242Y90759D01*
D02*
G37*
G36*
X350169Y69011D02*
X350133Y68943D01*
X350102Y68851D01*
X350075Y68733D01*
X350052Y68591D01*
X350019Y68234D01*
X350002Y67778D01*
X350000Y67513D01*
X349000D01*
X348998Y67778D01*
X348948Y68591D01*
X348925Y68733D01*
X348898Y68851D01*
X348867Y68943D01*
X348831Y69011D01*
X348791Y69055D01*
X350209D01*
X350169Y69011D01*
D02*
G37*
G36*
X381274Y69593D02*
X381244Y69523D01*
X381217Y69428D01*
X381194Y69310D01*
X381174Y69166D01*
X381146Y68806D01*
X381130Y68084D01*
X380130Y67961D01*
X380128Y68226D01*
X380072Y69034D01*
X380047Y69174D01*
X380017Y69289D01*
X379982Y69379D01*
X379943Y69443D01*
X379900Y69483D01*
X381308Y69639D01*
X381274Y69593D01*
D02*
G37*
D15*
X315911Y84702D02*
X317879Y82734D01*
X315911Y84702D02*
Y105632D01*
X317879Y82734D02*
Y105632D01*
Y82734D02*
X320387Y80226D01*
X132283Y179528D02*
X134586Y181830D01*
X135441D01*
X136713Y183102D01*
Y183200D01*
X138083Y166830D02*
X140346Y164567D01*
X148228D01*
X137984Y166830D02*
X138083D01*
X136713Y168102D02*
Y168200D01*
Y168102D02*
X137984Y166830D01*
X108207Y131693D02*
X117323D01*
X120669Y135039D01*
X104034Y135866D02*
X108207Y131693D01*
X102368Y137335D02*
X103837Y135866D01*
X102368Y137335D02*
Y137532D01*
X103837Y135866D02*
X104034D01*
X196453Y93185D02*
X196768Y93500D01*
X170370Y93185D02*
X196453D01*
X378740Y88537D02*
Y92618D01*
X380512Y112163D02*
Y114488D01*
Y112163D02*
X382438Y110236D01*
X378543Y98917D02*
X378740Y98721D01*
X378543Y98917D02*
Y114488D01*
X397835Y116339D02*
X397838Y116335D01*
Y112002D02*
Y116335D01*
X389838Y112002D02*
X397838D01*
X385121Y117913D02*
X385133Y117902D01*
Y116717D02*
X388468Y113383D01*
Y113273D02*
X389739Y112002D01*
X383937Y117913D02*
X385121D01*
X385133Y116717D02*
Y117902D01*
X388468Y113273D02*
Y113383D01*
X389739Y112002D02*
X389838D01*
X383937Y117913D02*
Y119882D01*
X77961Y135638D02*
X78453D01*
X79724Y136909D01*
X75984Y133661D02*
X77961Y135638D01*
X74008Y135539D02*
Y135638D01*
X75886Y133661D02*
X75984D01*
X72638Y136909D02*
X72736D01*
X74008Y135638D01*
Y135539D02*
X75886Y133661D01*
X380630Y65000D02*
Y70370D01*
Y60000D02*
Y65000D01*
Y55000D02*
Y60000D01*
X349500Y65551D02*
Y70000D01*
X358819Y65551D02*
X359370Y65000D01*
X349500Y65551D02*
X358819D01*
X182028Y83342D02*
X187870Y77500D01*
X196768D01*
X170370Y83342D02*
X182028D01*
X248947Y103954D02*
X253824D01*
X240947D02*
X248947D01*
X240188Y99818D02*
X240947Y100577D01*
Y103954D01*
X240188Y94946D02*
Y99818D01*
X245424Y94946D02*
X246034Y94336D01*
X253447D01*
X240188Y94946D02*
X245424D01*
X232707Y80163D02*
X233447Y79423D01*
X232707Y80163D02*
Y85065D01*
X233447Y74557D02*
Y79423D01*
X225447Y74557D02*
X233447D01*
X244935Y85065D02*
X245545Y85675D01*
X253447D01*
X240188Y85065D02*
X244935D01*
X240188Y81682D02*
X242447Y79423D01*
X240188Y81682D02*
Y85065D01*
X242447Y74317D02*
Y79423D01*
X313310Y64803D02*
Y68180D01*
X313387Y68258D01*
X306387D02*
X313387D01*
X327387Y74360D02*
X334253D01*
X320387D02*
X327387D01*
X320387D02*
Y80226D01*
D16*
X102368Y137532D02*
D03*
Y144225D02*
D03*
D17*
X458465Y195571D02*
D03*
Y189469D02*
D03*
X398228Y139075D02*
D03*
Y145177D02*
D03*
X432874Y195965D02*
D03*
Y189862D02*
D03*
X257283Y193996D02*
D03*
Y187894D02*
D03*
X331496Y193996D02*
D03*
Y187894D02*
D03*
X309646Y193996D02*
D03*
Y187894D02*
D03*
X316929D02*
D03*
Y193996D02*
D03*
X324213Y187894D02*
D03*
Y193996D02*
D03*
X349500Y65551D02*
D03*
Y59449D02*
D03*
X242717Y187894D02*
D03*
Y193996D02*
D03*
X250000D02*
D03*
Y187894D02*
D03*
X264567Y193996D02*
D03*
Y187894D02*
D03*
X79724Y136909D02*
D03*
Y143012D02*
D03*
X72638Y136909D02*
D03*
Y143012D02*
D03*
X400197Y193996D02*
D03*
Y187894D02*
D03*
X408071D02*
D03*
Y193996D02*
D03*
X389838Y112002D02*
D03*
Y105899D02*
D03*
X397838Y112002D02*
D03*
Y105899D02*
D03*
X378740Y92618D02*
D03*
Y98721D02*
D03*
X94882Y137697D02*
D03*
Y143799D02*
D03*
X240947Y103954D02*
D03*
Y110057D02*
D03*
X248947Y103954D02*
D03*
Y110057D02*
D03*
X225447Y68454D02*
D03*
Y74557D02*
D03*
X233447D02*
D03*
Y68454D02*
D03*
X251447D02*
D03*
Y74557D02*
D03*
X258947Y68454D02*
D03*
Y74557D02*
D03*
X278387Y74360D02*
D03*
Y68258D02*
D03*
X285387Y74360D02*
D03*
Y68258D02*
D03*
X292387Y74360D02*
D03*
Y68258D02*
D03*
X299387D02*
D03*
Y74360D02*
D03*
X306387D02*
D03*
Y68258D02*
D03*
X313387Y74360D02*
D03*
Y68258D02*
D03*
X320387Y74360D02*
D03*
Y68258D02*
D03*
X327387Y74360D02*
D03*
Y68258D02*
D03*
D21*
X132185Y197153D02*
D03*
X147343D02*
D03*
X132185Y191247D02*
D03*
X147343D02*
D03*
X132185Y160153D02*
D03*
X147343D02*
D03*
X132185Y154247D02*
D03*
X147343D02*
D03*
D41*
X309646Y180512D02*
Y187894D01*
X324706Y163750D02*
Y165452D01*
X309646Y180512D02*
X324706Y165452D01*
Y163750D02*
X326675Y161781D01*
X186024Y162205D02*
Y178740D01*
X181299Y183465D02*
X186024Y178740D01*
X200189Y189567D02*
X213386D01*
X217815Y193996D02*
X242717D01*
X213386Y189567D02*
X217815Y193996D01*
X114961Y157480D02*
X133774Y138667D01*
X304443D01*
X310005Y133105D01*
X126969Y151181D02*
X133268Y144882D01*
X156890D01*
X417224Y119980D02*
X420276Y116929D01*
X264764Y134449D02*
X266929Y136614D01*
X298819D02*
X302165Y133268D01*
X266929Y136614D02*
X298819D01*
X176370Y126118D02*
X261748D01*
X270472Y134843D02*
X295866D01*
X261748Y126118D02*
X270472Y134843D01*
X170866Y144882D02*
X262598D01*
X266732Y140748D02*
X336221D01*
X262598Y144882D02*
X266732Y140748D01*
X179006Y134449D02*
X264764D01*
X134843D02*
X177953D01*
X179006D01*
X295866Y134843D02*
X298194Y132515D01*
X336221Y140748D02*
X346063Y130905D01*
X186024Y162205D02*
X191142Y157087D01*
X351279D02*
X372638Y135728D01*
X191142Y157087D02*
X351279D01*
X316940Y61803D02*
X323743Y55000D01*
X359370D01*
X302821Y61421D02*
X314243Y50000D01*
X359370D01*
X298286Y86326D02*
Y105539D01*
X298194Y105632D02*
X298286Y105539D01*
Y86326D02*
X300163Y84450D01*
X298194Y105632D02*
Y132515D01*
X302165Y105666D02*
Y133268D01*
X302131Y105632D02*
X302165Y105666D01*
X310005Y105632D02*
Y133105D01*
X302186Y85412D02*
X304331Y83268D01*
X302131Y105632D02*
X302186Y105577D01*
Y85412D02*
Y105577D01*
X304331Y83268D02*
X307546D01*
X313387Y77427D01*
X300163Y84450D02*
Y105632D01*
X286475Y84194D02*
Y105539D01*
X288866Y81803D02*
X294810D01*
X286475Y84194D02*
X288866Y81803D01*
X286383Y105632D02*
X286475Y105539D01*
X284415Y81299D02*
Y105632D01*
Y81299D02*
X285387Y80327D01*
Y74360D02*
Y80327D01*
X313387Y74360D02*
Y77427D01*
X300163Y84450D02*
X306387Y78226D01*
X356398Y187894D02*
X368996Y175295D01*
Y166240D02*
X375984Y159252D01*
X400125D02*
X402654Y161781D01*
X404102D01*
X375984Y159252D02*
X400125D01*
X368996Y166240D02*
Y175295D01*
X395079Y180454D02*
Y182776D01*
X398727Y186424D01*
X400098Y187894D02*
X408071D01*
X398727Y186522D02*
X400098Y187894D01*
X398727Y186424D02*
Y186522D01*
X249247Y161781D02*
Y167554D01*
X257283Y175591D01*
Y179331D01*
X257283D02*
Y187894D01*
X331496D02*
X356398D01*
X451201Y197618D02*
X453248Y195571D01*
X458465D01*
X448819Y197618D02*
X451201D01*
X447441Y179134D02*
Y182283D01*
X448819Y183661D02*
Y187815D01*
X447441Y182283D02*
X448819Y183661D01*
X411713Y193996D02*
X415551Y190157D01*
X432579D02*
X432874Y189862D01*
X415551Y190157D02*
X432579D01*
X431890Y188976D02*
X432776Y189862D01*
X114961Y157480D02*
Y170276D01*
X103937Y181299D02*
X114961Y170276D01*
X101575Y178150D02*
X113386Y166339D01*
Y155905D02*
X134843Y134449D01*
X113386Y155905D02*
Y166339D01*
X156736Y128500D02*
X170276Y114961D01*
Y107874D02*
X174213Y103937D01*
X170276Y107874D02*
Y114961D01*
X119457Y158245D02*
Y161977D01*
Y158245D02*
X119601Y158102D01*
X119457Y161977D02*
X129134Y171653D01*
X128150Y179724D02*
Y199409D01*
X129528Y200787D01*
X103937Y188514D02*
X105118Y189695D01*
X103937Y181299D02*
Y188514D01*
X105118Y189695D02*
Y189764D01*
X122909Y189642D02*
X125468D01*
X118110Y184843D02*
X122909Y189642D01*
X129528Y200787D02*
X136024D01*
X264567Y193996D02*
X274756D01*
X275984Y192520D02*
Y192768D01*
X274756Y193996D02*
X275984Y192768D01*
X242717Y193996D02*
X250000D01*
X220177Y187894D02*
X242717D01*
X202134Y169850D02*
X220177Y187894D01*
X202134Y161781D02*
Y169850D01*
X257283Y193996D02*
X264567D01*
X189390Y196705D02*
X306936D01*
X308176Y195466D01*
X309547Y193996D02*
X309646D01*
X308176Y195368D02*
X309547Y193996D01*
X308176Y195368D02*
Y195466D01*
X309646Y193996D02*
X316929D01*
X324213D02*
X331496D01*
X408071D02*
X411713D01*
X161665Y186502D02*
X162008Y186844D01*
Y183661D02*
Y186844D01*
X162427Y187263D01*
X162992Y152756D02*
X170866Y144882D01*
X162992Y152756D02*
Y156198D01*
X162927Y156263D02*
X162992Y156198D01*
X162687Y195137D02*
X163449Y194376D01*
Y193244D02*
X167717Y188976D01*
X162427Y195137D02*
X162687D01*
X167717Y185236D02*
Y188976D01*
X163449Y193244D02*
Y194376D01*
X165354Y182874D02*
X167717Y185236D01*
X165354Y177935D02*
Y182874D01*
X159620Y172298D02*
X160991Y173670D01*
X161090D02*
X165354Y177935D01*
X159620Y172200D02*
Y172298D01*
X160991Y173670D02*
X161090D01*
X160466Y164898D02*
X162165D01*
X162927Y164137D01*
X156496Y168868D02*
X160466Y164898D01*
X156496Y168868D02*
Y176576D01*
X159620Y179602D02*
Y179700D01*
X158248Y178230D02*
X159620Y179602D01*
X158150Y178230D02*
X158248D01*
X156496Y176576D02*
X158150Y178230D01*
X142815Y175700D02*
Y183200D01*
Y173099D02*
Y175700D01*
X129134Y171653D02*
X141370D01*
X142815Y173099D01*
X154889Y181170D02*
X154987D01*
X160319Y186502D02*
X161665D01*
X153517Y179700D02*
Y179798D01*
X154889Y181170D01*
X154987D02*
X160319Y186502D01*
X132185Y197153D02*
X146653D01*
X145282Y195781D02*
X146653Y197153D01*
X142815Y193209D02*
X145282Y195676D01*
X146653Y197153D02*
X147343D01*
X145282Y195676D02*
Y195781D01*
X142815Y183200D02*
Y193209D01*
X151469Y197153D02*
X154710Y193912D01*
Y191200D02*
Y193912D01*
X147343Y197153D02*
X151469D01*
X153517Y168136D02*
X162795Y158858D01*
X153517Y168136D02*
Y172200D01*
X162795Y156395D02*
Y158858D01*
Y156395D02*
X162927Y156263D01*
X147343Y160153D02*
X154724D01*
Y163583D01*
X150107Y168200D02*
X154724Y163583D01*
X142815Y168200D02*
X150107D01*
X130124Y161524D02*
X131496Y160153D01*
X147343D01*
X128150Y164173D02*
X130124Y162198D01*
Y161524D02*
Y162198D01*
X75984Y185039D02*
Y190336D01*
X109449Y184843D02*
Y190219D01*
X418037Y109272D02*
X418799Y110033D01*
Y111129D02*
X431260Y123591D01*
X459870D01*
X418799Y110033D02*
Y111129D01*
X415543Y109272D02*
X418037D01*
X111024Y134843D02*
Y139370D01*
X376575Y133150D02*
Y141339D01*
X380512Y133150D02*
Y145218D01*
X163870Y105815D02*
X170866Y98819D01*
X200551D02*
X202870Y96500D01*
X170866Y98819D02*
X200551D01*
X172319Y101500D02*
X203618D01*
X207870Y82500D02*
Y97248D01*
X203618Y101500D02*
X207870Y97248D01*
X206102Y103937D02*
X212008Y98032D01*
X204343Y62870D02*
X212008Y70535D01*
Y98032D01*
X174213Y103937D02*
X206102D01*
X163870Y105815D02*
Y110933D01*
X166929Y106890D02*
Y112598D01*
Y106890D02*
X172319Y101500D01*
X152528Y127000D02*
X166929Y112598D01*
X124059Y127000D02*
X152528D01*
X119500Y128500D02*
X156736D01*
X150803Y124000D02*
X163870Y110933D01*
X131059Y124000D02*
X150803D01*
X123587Y137313D02*
X130782Y130118D01*
X164252D01*
X176870Y117500D01*
X111614Y153937D02*
X133661Y131890D01*
X170480D02*
X176370Y126000D01*
X133661Y131890D02*
X170480D01*
X123581Y137313D02*
X123587D01*
X118862Y142032D02*
X123581Y137313D01*
X95669Y179724D02*
X111614Y163779D01*
X95669Y179724D02*
Y185433D01*
X101575Y178150D02*
Y187205D01*
X184479Y200197D02*
X319488D01*
X324213Y195472D01*
X189245Y196850D02*
X189390Y196705D01*
X94882Y143799D02*
X101943D01*
X374594Y133162D02*
Y135815D01*
X374494Y135915D02*
Y138076D01*
Y135915D02*
X374594Y135815D01*
X372638Y133150D02*
Y135728D01*
X131890Y150197D02*
X152165D01*
X111614Y153937D02*
Y163779D01*
X402756Y119217D02*
Y119488D01*
X402775Y109355D02*
Y119198D01*
X400394Y121850D02*
X402756Y119488D01*
X402775Y109355D02*
X405087Y107043D01*
X402756Y119217D02*
X402775Y119198D01*
X400506Y119769D02*
X401575Y118701D01*
Y108858D02*
X404590Y105843D01*
X401575Y108858D02*
Y118701D01*
X405087Y107043D02*
X413342D01*
X404590Y105843D02*
X412810D01*
X388976Y119769D02*
X400506D01*
X383937Y121850D02*
X400394D01*
X415845Y101713D02*
X418297D01*
X415083Y102474D02*
Y103570D01*
Y102474D02*
X415845Y101713D01*
X412810Y105843D02*
X415083Y103570D01*
X413342Y107043D02*
X414782Y108483D01*
X388678Y123914D02*
X388976Y124213D01*
X387766Y123819D02*
X387861Y123914D01*
X388678D01*
X383937Y123819D02*
X387766D01*
X414782Y108510D02*
X415543Y109272D01*
X414782Y108483D02*
Y108510D01*
X419059Y102474D02*
Y103311D01*
X436779Y121031D01*
X418297Y101713D02*
X419059Y102474D01*
X436779Y121031D02*
X459870D01*
X80850Y189819D02*
X98961D01*
X101575Y187205D01*
X302821Y70794D02*
X304917Y72890D01*
X302821Y61421D02*
Y70794D01*
X304917Y72988D02*
X306289Y74360D01*
X306387D01*
X304917Y72890D02*
Y72988D01*
X316940Y61803D02*
Y70807D01*
X313387Y74360D02*
X313485D01*
X314857Y72988D01*
Y72890D02*
Y72988D01*
Y72890D02*
X316940Y70807D01*
X120600Y123541D02*
X124059Y127000D01*
X115883Y124883D02*
X119500Y128500D01*
X202921Y53500D02*
Y61650D01*
X204142Y62870D01*
X204343D01*
X202870Y77598D02*
X204142Y78870D01*
X204240D02*
X207870Y82500D01*
X202870Y77500D02*
Y77598D01*
X204142Y78870D02*
X204240D01*
X202870Y93500D02*
Y96500D01*
X176870Y117618D02*
X216252D01*
X232707Y101163D01*
X202870Y85500D02*
Y93500D01*
Y69500D02*
Y77500D01*
X196504Y53815D02*
X196819Y53500D01*
X170370Y53815D02*
X196504D01*
X232707Y94946D02*
Y101163D01*
X294810Y81803D02*
X299387Y77226D01*
Y74360D02*
Y77226D01*
X285387Y74360D02*
X292387D01*
X306387D02*
Y78226D01*
D42*
X417891Y127524D02*
Y137380D01*
X418110Y137598D01*
X411544Y134435D02*
X414708Y137598D01*
X418110D01*
X409055Y134331D02*
X409159Y134435D01*
X411544D01*
D43*
X417224Y119980D02*
X423394Y126150D01*
X408870Y111626D02*
X417224Y119980D01*
X430118Y146260D02*
X447047Y163189D01*
X421850Y146260D02*
X430118D01*
X447047Y163189D02*
X451772D01*
X451968Y163386D01*
X441339Y197618D02*
Y200394D01*
X425591Y137598D02*
Y138386D01*
Y137598D02*
X425707Y137715D01*
X425394Y137402D02*
X425591Y137598D01*
X429546Y137715D02*
X429626Y137795D01*
X429724D01*
X425707Y137715D02*
X429546D01*
X421850Y178937D02*
X431890Y188976D01*
X432972Y189862D02*
X433744Y189091D01*
Y188992D02*
X434921Y187815D01*
X432874Y189862D02*
X432972D01*
X433744Y188992D02*
Y189091D01*
X434921Y187815D02*
X441339D01*
X421850Y146260D02*
Y178937D01*
X432776Y189862D02*
X432874D01*
X424622Y139354D02*
X425591Y138386D01*
X420484Y141929D02*
X423059Y139354D01*
X424622D01*
X418110Y141929D02*
X420484D01*
X409055Y147953D02*
X409427Y147581D01*
X412458D01*
X418110Y141929D01*
X409055Y144291D02*
Y147953D01*
X403839Y139075D02*
X409055Y144291D01*
X398228Y139075D02*
X403839D01*
X425394Y126150D02*
X459870D01*
X423394D02*
X425394D01*
Y137402D01*
X404856Y111811D02*
Y111811D01*
X406834Y109833D02*
X408309D01*
X408870Y109272D02*
Y111626D01*
X404856Y111811D02*
X406834Y109833D01*
X408309D02*
X408870Y109272D01*
D44*
X451968Y155512D02*
D03*
D45*
Y163386D02*
D03*
D46*
X459987Y49595D02*
D03*
Y69595D02*
D03*
X439987Y49595D02*
D03*
Y59595D02*
D03*
Y69595D02*
D03*
D47*
X326675Y161781D02*
D03*
X356990D02*
D03*
Y179498D02*
D03*
X326675D02*
D03*
X171819Y161781D02*
D03*
X202134D02*
D03*
Y179498D02*
D03*
X171819D02*
D03*
X249247Y161781D02*
D03*
X279562D02*
D03*
Y179498D02*
D03*
X249247D02*
D03*
X404102Y161781D02*
D03*
X434417D02*
D03*
Y179498D02*
D03*
X404102D02*
D03*
D48*
X470382Y132153D02*
D03*
Y109909D02*
D03*
D49*
X93154Y154951D02*
D03*
Y162175D02*
D03*
X96766Y151339D02*
D03*
Y158563D02*
D03*
Y165787D02*
D03*
X100378Y154951D02*
D03*
Y162175D02*
D03*
X103990Y151339D02*
D03*
Y158563D02*
D03*
Y165787D02*
D03*
X107602Y154951D02*
D03*
Y162175D02*
D03*
X156890Y144882D02*
D03*
X420276Y116929D02*
D03*
X336221Y124409D02*
D03*
X210630Y147244D02*
D03*
X268504Y124606D02*
D03*
X437205Y193898D02*
D03*
X464764Y115945D02*
D03*
X269291Y80905D02*
D03*
X270866Y101378D02*
D03*
X314764Y81299D02*
D03*
X291732Y78937D02*
D03*
X299213Y81496D02*
D03*
X287598Y131102D02*
D03*
X305906Y131496D02*
D03*
X312992Y131299D02*
D03*
X359842Y107677D02*
D03*
X361614Y90748D02*
D03*
X428543Y61221D02*
D03*
X439961Y182677D02*
D03*
X448032Y191929D02*
D03*
X446850Y156693D02*
D03*
X457480Y158268D02*
D03*
X446697Y151307D02*
D03*
X457677Y152953D02*
D03*
X454134Y182087D02*
D03*
X212795Y165157D02*
D03*
X449606Y115945D02*
D03*
X428937Y108661D02*
D03*
X439567Y117717D02*
D03*
X436024Y129134D02*
D03*
X445079Y137795D02*
D03*
Y113976D02*
D03*
X428937Y117323D02*
D03*
X309121Y77953D02*
D03*
X332677Y104921D02*
D03*
X434646Y174409D02*
D03*
X395079Y180454D02*
D03*
X320276Y182283D02*
D03*
X447441Y179134D02*
D03*
X417891Y127524D02*
D03*
X441339Y200394D02*
D03*
X429724Y137795D02*
D03*
X421654Y134055D02*
D03*
X422441Y120472D02*
D03*
X445472Y133465D02*
D03*
X471260Y102559D02*
D03*
X119601Y158102D02*
D03*
X128150Y179724D02*
D03*
X181299Y183465D02*
D03*
X194488Y184449D02*
D03*
X274606Y183858D02*
D03*
X105118Y189764D02*
D03*
X122244Y173819D02*
D03*
X125468Y189642D02*
D03*
X275984Y192520D02*
D03*
X136024Y200787D02*
D03*
X169291Y167717D02*
D03*
X294291Y160236D02*
D03*
X318504Y175394D02*
D03*
X403150Y168307D02*
D03*
X162008Y183661D02*
D03*
X132283Y179528D02*
D03*
X148228Y164567D02*
D03*
X128150Y164173D02*
D03*
X75984Y190336D02*
D03*
X109449Y190219D02*
D03*
X156102Y155905D02*
D03*
X111024Y134843D02*
D03*
X361417Y135236D02*
D03*
X248228Y148228D02*
D03*
X248425Y131693D02*
D03*
X208858Y121653D02*
D03*
X403150Y132874D02*
D03*
X347638Y151378D02*
D03*
X264567Y96653D02*
D03*
X342520Y95079D02*
D03*
X165945Y43898D02*
D03*
X316142Y43701D02*
D03*
X274410D02*
D03*
X233858Y43504D02*
D03*
X197244Y42520D02*
D03*
X368504Y43307D02*
D03*
X399410Y73032D02*
D03*
X418898Y80315D02*
D03*
X405905Y42520D02*
D03*
X452953Y43307D02*
D03*
X469291Y62205D02*
D03*
X469685Y140157D02*
D03*
X415945Y156299D02*
D03*
Y176575D02*
D03*
X359252Y190551D02*
D03*
X327756Y200591D02*
D03*
X293504Y188189D02*
D03*
X232677Y160630D02*
D03*
X189370Y153150D02*
D03*
X139961Y193701D02*
D03*
X115157Y189961D02*
D03*
X131890Y164567D02*
D03*
X115354Y144685D02*
D03*
X123425Y153543D02*
D03*
X88779Y137008D02*
D03*
X78150Y162992D02*
D03*
X88189Y184055D02*
D03*
X181496Y141732D02*
D03*
X163779Y100197D02*
D03*
X170079Y128150D02*
D03*
X165551Y124213D02*
D03*
X186614Y96260D02*
D03*
X216535Y106299D02*
D03*
X230906Y130905D02*
D03*
X215945Y130315D02*
D03*
X229592Y141891D02*
D03*
X323819Y131299D02*
D03*
X341929Y119488D02*
D03*
X328740Y52559D02*
D03*
X347835D02*
D03*
X376575Y141339D02*
D03*
X380512Y145218D02*
D03*
X126969Y151181D02*
D03*
X95669Y185433D02*
D03*
X354331Y57480D02*
D03*
X369094Y60039D02*
D03*
X387992Y48622D02*
D03*
X408071Y96653D02*
D03*
X393898Y101378D02*
D03*
X455118Y66535D02*
D03*
X445472Y98819D02*
D03*
X428346Y86811D02*
D03*
X429724Y155118D02*
D03*
X425591Y198622D02*
D03*
X390354Y194685D02*
D03*
X389961Y177953D02*
D03*
X229134Y182874D02*
D03*
X238386Y173031D02*
D03*
X148031Y182677D02*
D03*
X71063Y188976D02*
D03*
X147835Y175394D02*
D03*
X147441Y140748D02*
D03*
X73425Y123228D02*
D03*
X75984Y147441D02*
D03*
X173819Y113583D02*
D03*
X191929Y85630D02*
D03*
X191732Y65354D02*
D03*
X163779Y68504D02*
D03*
X178347Y68110D02*
D03*
X244685Y114567D02*
D03*
X236614Y79724D02*
D03*
X255118Y79331D02*
D03*
X220079Y66929D02*
D03*
X324081Y63976D02*
D03*
X295932D02*
D03*
X281758Y63189D02*
D03*
X323688Y82677D02*
D03*
X184479Y200197D02*
D03*
X189245Y196850D02*
D03*
X200189Y189567D02*
D03*
X118862Y142032D02*
D03*
X346063Y130905D02*
D03*
X374494Y138076D02*
D03*
X131890Y150197D02*
D03*
X152165D02*
D03*
X120669Y135039D02*
D03*
X374606Y123819D02*
D03*
X378740Y88537D02*
D03*
X404856Y111811D02*
D03*
X382438Y110236D02*
D03*
X397835Y116339D02*
D03*
X388976Y124213D02*
D03*
Y119769D02*
D03*
X80850Y189819D02*
D03*
X75984Y133661D02*
D03*
X380500Y70500D02*
D03*
X349500Y70000D02*
D03*
X115756Y124146D02*
D03*
X121059Y124000D02*
D03*
X131059D02*
D03*
X253870Y104000D02*
D03*
X313310Y64803D02*
D03*
X334253Y74360D02*
D03*
D50*
X409055Y134331D02*
D03*
Y147953D02*
D03*
X242447Y74317D02*
D03*
Y60695D02*
D03*
D51*
X329297Y113112D02*
D03*
X276934D02*
D03*
D52*
X325753Y105632D02*
D03*
X323785D02*
D03*
X321816D02*
D03*
X319848D02*
D03*
X317879D02*
D03*
X315911D02*
D03*
X313942D02*
D03*
X311974D02*
D03*
X310005D02*
D03*
X308036D02*
D03*
X306068D02*
D03*
X304099D02*
D03*
X302131D02*
D03*
X300163D02*
D03*
X298194D02*
D03*
X296226D02*
D03*
X294257D02*
D03*
X292289D02*
D03*
X290320D02*
D03*
X288352D02*
D03*
X286383D02*
D03*
X284415D02*
D03*
X282446D02*
D03*
X280478D02*
D03*
D53*
X448819Y187815D02*
D03*
X445079D02*
D03*
X441339D02*
D03*
Y197618D02*
D03*
X448819D02*
D03*
D54*
X421850Y146260D02*
D03*
X418110Y137598D02*
D03*
X425591D02*
D03*
D55*
X459870Y123591D02*
D03*
Y118472D02*
D03*
Y121031D02*
D03*
Y115913D02*
D03*
Y126150D02*
D03*
D56*
X460362Y133236D02*
D03*
Y108827D02*
D03*
D57*
X470303Y125461D02*
D03*
Y116602D02*
D03*
D58*
X117520Y185236D02*
D03*
X75984Y185039D02*
D03*
X109449Y184843D02*
D03*
X111024Y139370D02*
D03*
X177953Y125984D02*
D03*
Y134449D02*
D03*
Y117717D02*
D03*
Y109843D02*
D03*
D59*
X380630Y50000D02*
D03*
Y55000D02*
D03*
Y60000D02*
D03*
Y65000D02*
D03*
X359370Y50000D02*
D03*
Y55000D02*
D03*
Y60000D02*
D03*
Y65000D02*
D03*
D60*
X416941Y101713D02*
D03*
Y109272D02*
D03*
X408870D02*
D03*
D61*
Y102500D02*
D03*
D62*
X374606Y123819D02*
D03*
D63*
X380512Y133150D02*
D03*
X378543D02*
D03*
X376575D02*
D03*
X374606D02*
D03*
X372638D02*
D03*
X370669D02*
D03*
X368701D02*
D03*
Y114488D02*
D03*
X370669D02*
D03*
X372638D02*
D03*
X374606D02*
D03*
X376575D02*
D03*
X378543D02*
D03*
X380512D02*
D03*
D64*
X365276Y129724D02*
D03*
Y127756D02*
D03*
Y125787D02*
D03*
Y123819D02*
D03*
Y121850D02*
D03*
Y119882D02*
D03*
Y117913D02*
D03*
X383937D02*
D03*
Y119882D02*
D03*
Y121850D02*
D03*
Y123819D02*
D03*
Y125787D02*
D03*
Y127756D02*
D03*
Y129724D02*
D03*
D65*
X162427Y195137D02*
D03*
Y187263D02*
D03*
X154710Y191200D02*
D03*
X162927Y164137D02*
D03*
Y156263D02*
D03*
X155210Y160200D02*
D03*
D66*
X153517Y172200D02*
D03*
X159620D02*
D03*
X153517Y179700D02*
D03*
X159620D02*
D03*
X142815Y168200D02*
D03*
X136713D02*
D03*
X142815Y175700D02*
D03*
X136713D02*
D03*
X142815Y183200D02*
D03*
X136713D02*
D03*
X202921Y53500D02*
D03*
X196819D02*
D03*
X202870Y61500D02*
D03*
X196768D02*
D03*
X202870Y69500D02*
D03*
X196768D02*
D03*
X202870Y85500D02*
D03*
X196768D02*
D03*
Y77500D02*
D03*
X202870D02*
D03*
Y93500D02*
D03*
X196768D02*
D03*
D67*
X240188Y85065D02*
D03*
X236447D02*
D03*
X232707D02*
D03*
Y94946D02*
D03*
X240188D02*
D03*
D68*
X253447Y94336D02*
D03*
Y85675D02*
D03*
D69*
X170370Y93185D02*
D03*
Y53815D02*
D03*
Y83342D02*
D03*
Y63657D02*
D03*
Y73500D02*
D03*
D70*
X270051Y68544D02*
X275420Y73913D01*
X259037Y68544D02*
X270051D01*
X282446Y83234D02*
Y86024D01*
X278387Y79174D02*
X282446Y83234D01*
X233447Y64423D02*
Y68454D01*
Y64423D02*
X237175Y60695D01*
X242447D01*
X251447Y64077D02*
Y68454D01*
X248065Y60695D02*
X251447Y64077D01*
X242447Y60695D02*
X248065D01*
X251447Y68454D02*
X258947D01*
X259037Y68544D01*
X277940Y73913D02*
X278387Y74360D01*
X275420Y73913D02*
X277940D01*
X278387Y74360D02*
Y79174D01*
M02*
