G04*
G04 #@! TF.GenerationSoftware,Altium Limited,Altium Designer,21.9.2 (33)*
G04*
G04 Layer_Color=16711935*
%FSLAX25Y25*%
%MOIN*%
G70*
G04*
G04 #@! TF.SameCoordinates,7D1BAC6E-B471-4F52-9471-A17197207182*
G04*
G04*
G04 #@! TF.FilePolarity,Negative*
G04*
G01*
G75*
%ADD25R,0.04528X0.04921*%
%ADD26R,0.04331X0.04134*%
%ADD30R,0.05512X0.04134*%
%ADD34C,0.05976*%
%ADD35R,0.05976X0.05976*%
%ADD36C,0.05740*%
%ADD37O,0.09252X0.06102*%
%ADD38C,0.00591*%
%ADD39O,0.07284X0.04528*%
%ADD40C,0.02953*%
%ADD71R,0.03740X0.05000*%
%ADD72R,0.01772X0.39961*%
%ADD73R,0.01575X0.39961*%
G04:AMPARAMS|DCode=74|XSize=53.94mil|YSize=29.53mil|CornerRadius=8.86mil|HoleSize=0mil|Usage=FLASHONLY|Rotation=90.000|XOffset=0mil|YOffset=0mil|HoleType=Round|Shape=RoundedRectangle|*
%AMROUNDEDRECTD74*
21,1,0.05394,0.01181,0,0,90.0*
21,1,0.03622,0.02953,0,0,90.0*
1,1,0.01772,0.00591,0.01811*
1,1,0.01772,0.00591,-0.01811*
1,1,0.01772,-0.00591,-0.01811*
1,1,0.01772,-0.00591,0.01811*
%
%ADD74ROUNDEDRECTD74*%
%ADD75R,0.04528X0.06102*%
%ADD76R,0.06102X0.02165*%
%ADD77R,0.06890X0.08858*%
%ADD78R,0.08071X0.07480*%
%ADD79C,0.06496*%
%ADD80R,0.06391X0.02791*%
G04:AMPARAMS|DCode=81|XSize=29.13mil|YSize=57.09mil|CornerRadius=4.7mil|HoleSize=0mil|Usage=FLASHONLY|Rotation=90.000|XOffset=0mil|YOffset=0mil|HoleType=Round|Shape=RoundedRectangle|*
%AMROUNDEDRECTD81*
21,1,0.02913,0.04770,0,0,90.0*
21,1,0.01974,0.05709,0,0,90.0*
1,1,0.00939,0.02385,0.00987*
1,1,0.00939,0.02385,-0.00987*
1,1,0.00939,-0.02385,-0.00987*
1,1,0.00939,-0.02385,0.00987*
%
%ADD81ROUNDEDRECTD81*%
G04:AMPARAMS|DCode=82|XSize=44.88mil|YSize=57.09mil|CornerRadius=5.88mil|HoleSize=0mil|Usage=FLASHONLY|Rotation=90.000|XOffset=0mil|YOffset=0mil|HoleType=Round|Shape=RoundedRectangle|*
%AMROUNDEDRECTD82*
21,1,0.04488,0.04534,0,0,90.0*
21,1,0.03313,0.05709,0,0,90.0*
1,1,0.01175,0.02267,0.01657*
1,1,0.01175,0.02267,-0.01657*
1,1,0.01175,-0.02267,-0.01657*
1,1,0.01175,-0.02267,0.01657*
%
%ADD82ROUNDEDRECTD82*%
%ADD83R,0.12992X0.12992*%
G04:AMPARAMS|DCode=84|XSize=16.14mil|YSize=44.1mil|CornerRadius=5.51mil|HoleSize=0mil|Usage=FLASHONLY|Rotation=180.000|XOffset=0mil|YOffset=0mil|HoleType=Round|Shape=RoundedRectangle|*
%AMROUNDEDRECTD84*
21,1,0.01614,0.03307,0,0,180.0*
21,1,0.00512,0.04410,0,0,180.0*
1,1,0.01102,-0.00256,0.01654*
1,1,0.01102,0.00256,0.01654*
1,1,0.01102,0.00256,-0.01654*
1,1,0.01102,-0.00256,-0.01654*
%
%ADD84ROUNDEDRECTD84*%
G04:AMPARAMS|DCode=85|XSize=16.14mil|YSize=44.1mil|CornerRadius=5.51mil|HoleSize=0mil|Usage=FLASHONLY|Rotation=270.000|XOffset=0mil|YOffset=0mil|HoleType=Round|Shape=RoundedRectangle|*
%AMROUNDEDRECTD85*
21,1,0.01614,0.03307,0,0,270.0*
21,1,0.00512,0.04410,0,0,270.0*
1,1,0.01102,-0.01654,-0.00256*
1,1,0.01102,-0.01654,0.00256*
1,1,0.01102,0.01654,0.00256*
1,1,0.01102,0.01654,-0.00256*
%
%ADD85ROUNDEDRECTD85*%
G04:AMPARAMS|DCode=86|XSize=55.51mil|YSize=29.13mil|CornerRadius=5.86mil|HoleSize=0mil|Usage=FLASHONLY|Rotation=180.000|XOffset=0mil|YOffset=0mil|HoleType=Round|Shape=RoundedRectangle|*
%AMROUNDEDRECTD86*
21,1,0.05551,0.01742,0,0,180.0*
21,1,0.04380,0.02913,0,0,180.0*
1,1,0.01171,-0.02190,0.00871*
1,1,0.01171,0.02190,0.00871*
1,1,0.01171,0.02190,-0.00871*
1,1,0.01171,-0.02190,-0.00871*
%
%ADD86ROUNDEDRECTD86*%
%ADD87R,0.04134X0.04331*%
G04:AMPARAMS|DCode=88|XSize=53.54mil|YSize=29.13mil|CornerRadius=8.76mil|HoleSize=0mil|Usage=FLASHONLY|Rotation=90.000|XOffset=0mil|YOffset=0mil|HoleType=Round|Shape=RoundedRectangle|*
%AMROUNDEDRECTD88*
21,1,0.05354,0.01161,0,0,90.0*
21,1,0.03602,0.02913,0,0,90.0*
1,1,0.01752,0.00581,0.01801*
1,1,0.01752,0.00581,-0.01801*
1,1,0.01752,-0.00581,-0.01801*
1,1,0.01752,-0.00581,0.01801*
%
%ADD88ROUNDEDRECTD88*%
%ADD89R,0.11221X0.03740*%
%ADD90O,0.14370X0.07677*%
D25*
X102368Y137532D02*
D03*
Y144225D02*
D03*
D26*
X458465Y195571D02*
D03*
Y189469D02*
D03*
X398228Y139075D02*
D03*
Y145177D02*
D03*
X432874Y195965D02*
D03*
Y189862D02*
D03*
X257283Y193996D02*
D03*
Y187894D02*
D03*
X331496Y193996D02*
D03*
Y187894D02*
D03*
X309646Y193996D02*
D03*
Y187894D02*
D03*
X316929D02*
D03*
Y193996D02*
D03*
X324213Y187894D02*
D03*
Y193996D02*
D03*
X349500Y65551D02*
D03*
Y59449D02*
D03*
X242717Y187894D02*
D03*
Y193996D02*
D03*
X250000D02*
D03*
Y187894D02*
D03*
X264567Y193996D02*
D03*
Y187894D02*
D03*
X79724Y136909D02*
D03*
Y143012D02*
D03*
X72638Y136909D02*
D03*
Y143012D02*
D03*
X400197Y193996D02*
D03*
Y187894D02*
D03*
X408071D02*
D03*
Y193996D02*
D03*
X389838Y112002D02*
D03*
Y105899D02*
D03*
X397838Y112002D02*
D03*
Y105899D02*
D03*
X378740Y92618D02*
D03*
Y98721D02*
D03*
X94882Y137697D02*
D03*
Y143799D02*
D03*
X240947Y103954D02*
D03*
Y110057D02*
D03*
X248947Y103954D02*
D03*
Y110057D02*
D03*
X225447Y68454D02*
D03*
Y74557D02*
D03*
X233447D02*
D03*
Y68454D02*
D03*
X251447D02*
D03*
Y74557D02*
D03*
X258947Y68454D02*
D03*
Y74557D02*
D03*
X278387Y74360D02*
D03*
Y68258D02*
D03*
X285387Y74360D02*
D03*
Y68258D02*
D03*
X292387Y74360D02*
D03*
Y68258D02*
D03*
X299387D02*
D03*
Y74360D02*
D03*
X306387D02*
D03*
Y68258D02*
D03*
X313387Y74360D02*
D03*
Y68258D02*
D03*
X320387Y74360D02*
D03*
Y68258D02*
D03*
X327387Y74360D02*
D03*
Y68258D02*
D03*
D30*
X132185Y197153D02*
D03*
X147343D02*
D03*
X132185Y191247D02*
D03*
X147343D02*
D03*
X132185Y160153D02*
D03*
X147343D02*
D03*
X132185Y154247D02*
D03*
X147343D02*
D03*
D34*
X451968Y155512D02*
D03*
D35*
Y163386D02*
D03*
D36*
X459987Y49595D02*
D03*
Y69595D02*
D03*
X439987Y49595D02*
D03*
Y59595D02*
D03*
Y69595D02*
D03*
D37*
X326675Y161781D02*
D03*
X356990D02*
D03*
Y179498D02*
D03*
X326675D02*
D03*
X171819Y161781D02*
D03*
X202134D02*
D03*
Y179498D02*
D03*
X171819D02*
D03*
X249247Y161781D02*
D03*
X279562D02*
D03*
Y179498D02*
D03*
X249247D02*
D03*
X404102Y161781D02*
D03*
X434417D02*
D03*
Y179498D02*
D03*
X404102D02*
D03*
D38*
X461839Y113157D02*
D03*
Y128905D02*
D03*
D39*
X470382Y132153D02*
D03*
Y109909D02*
D03*
D40*
X93154Y154951D02*
D03*
Y162175D02*
D03*
X96766Y151339D02*
D03*
Y158563D02*
D03*
Y165787D02*
D03*
X100378Y154951D02*
D03*
Y162175D02*
D03*
X103990Y151339D02*
D03*
Y158563D02*
D03*
Y165787D02*
D03*
X107602Y154951D02*
D03*
Y162175D02*
D03*
D71*
X409055Y134331D02*
D03*
Y147953D02*
D03*
X242447Y74317D02*
D03*
Y60695D02*
D03*
D72*
X329297Y113112D02*
D03*
X276934D02*
D03*
D73*
X325753Y105632D02*
D03*
X323785D02*
D03*
X321816D02*
D03*
X319848D02*
D03*
X317879D02*
D03*
X315911D02*
D03*
X313942D02*
D03*
X311974D02*
D03*
X310005D02*
D03*
X308036D02*
D03*
X306068D02*
D03*
X304099D02*
D03*
X302131D02*
D03*
X300163D02*
D03*
X298194D02*
D03*
X296226D02*
D03*
X294257D02*
D03*
X292289D02*
D03*
X290320D02*
D03*
X288352D02*
D03*
X286383D02*
D03*
X284415D02*
D03*
X282446D02*
D03*
X280478D02*
D03*
D74*
X448819Y187815D02*
D03*
X445079D02*
D03*
X441339D02*
D03*
Y197618D02*
D03*
X448819D02*
D03*
D75*
X421850Y146260D02*
D03*
X418110Y137598D02*
D03*
X425591D02*
D03*
D76*
X459870Y123591D02*
D03*
Y118472D02*
D03*
Y121031D02*
D03*
Y115913D02*
D03*
Y126150D02*
D03*
D77*
X460362Y133236D02*
D03*
Y108827D02*
D03*
D78*
X470303Y125461D02*
D03*
Y116602D02*
D03*
D79*
X117520Y185236D02*
D03*
X75984Y185039D02*
D03*
X109449Y184843D02*
D03*
X111024Y139370D02*
D03*
X177953Y125984D02*
D03*
Y134449D02*
D03*
Y117717D02*
D03*
Y109843D02*
D03*
D80*
X380630Y50000D02*
D03*
Y55000D02*
D03*
Y60000D02*
D03*
Y65000D02*
D03*
X359370Y50000D02*
D03*
Y55000D02*
D03*
Y60000D02*
D03*
Y65000D02*
D03*
D81*
X416941Y101713D02*
D03*
Y109272D02*
D03*
X408870D02*
D03*
D82*
Y102500D02*
D03*
D83*
X374606Y123819D02*
D03*
D84*
X380512Y133150D02*
D03*
X378543D02*
D03*
X376575D02*
D03*
X374606D02*
D03*
X372638D02*
D03*
X370669D02*
D03*
X368701D02*
D03*
Y114488D02*
D03*
X370669D02*
D03*
X372638D02*
D03*
X374606D02*
D03*
X376575D02*
D03*
X378543D02*
D03*
X380512D02*
D03*
D85*
X365276Y129724D02*
D03*
Y127756D02*
D03*
Y125787D02*
D03*
Y123819D02*
D03*
Y121850D02*
D03*
Y119882D02*
D03*
Y117913D02*
D03*
X383937D02*
D03*
Y119882D02*
D03*
Y121850D02*
D03*
Y123819D02*
D03*
Y125787D02*
D03*
Y127756D02*
D03*
Y129724D02*
D03*
D86*
X162427Y195137D02*
D03*
Y187263D02*
D03*
X154710Y191200D02*
D03*
X162927Y164137D02*
D03*
Y156263D02*
D03*
X155210Y160200D02*
D03*
D87*
X153517Y172200D02*
D03*
X159620D02*
D03*
X153517Y179700D02*
D03*
X159620D02*
D03*
X142815Y168200D02*
D03*
X136713D02*
D03*
X142815Y175700D02*
D03*
X136713D02*
D03*
X142815Y183200D02*
D03*
X136713D02*
D03*
X202921Y53500D02*
D03*
X196819D02*
D03*
X202870Y61500D02*
D03*
X196768D02*
D03*
X202870Y69500D02*
D03*
X196768D02*
D03*
X202870Y85500D02*
D03*
X196768D02*
D03*
Y77500D02*
D03*
X202870D02*
D03*
Y93500D02*
D03*
X196768D02*
D03*
D88*
X240188Y85065D02*
D03*
X236447D02*
D03*
X232707D02*
D03*
Y94946D02*
D03*
X240188D02*
D03*
D89*
X253447Y94336D02*
D03*
Y85675D02*
D03*
D90*
X170370Y93185D02*
D03*
Y53815D02*
D03*
Y83342D02*
D03*
Y63657D02*
D03*
Y73500D02*
D03*
M02*
