G04*
G04 #@! TF.GenerationSoftware,Altium Limited,Altium Designer,21.9.2 (33)*
G04*
G04 Layer_Color=128*
%FSLAX25Y25*%
%MOIN*%
G70*
G04*
G04 #@! TF.SameCoordinates,7D1BAC6E-B471-4F52-9471-A17197207182*
G04*
G04*
G04 #@! TF.FilePolarity,Positive*
G04*
G01*
G75*
%ADD16R,0.03937X0.04331*%
%ADD17R,0.03740X0.03543*%
%ADD21R,0.04921X0.03543*%
%ADD50R,0.03150X0.04409*%
%ADD51R,0.01181X0.39370*%
%ADD52R,0.00984X0.39370*%
G04:AMPARAMS|DCode=53|XSize=48.03mil|YSize=23.62mil|CornerRadius=5.91mil|HoleSize=0mil|Usage=FLASHONLY|Rotation=90.000|XOffset=0mil|YOffset=0mil|HoleType=Round|Shape=RoundedRectangle|*
%AMROUNDEDRECTD53*
21,1,0.04803,0.01181,0,0,90.0*
21,1,0.03622,0.02362,0,0,90.0*
1,1,0.01181,0.00591,0.01811*
1,1,0.01181,0.00591,-0.01811*
1,1,0.01181,-0.00591,-0.01811*
1,1,0.01181,-0.00591,0.01811*
%
%ADD53ROUNDEDRECTD53*%
%ADD54R,0.03937X0.05512*%
%ADD55R,0.05512X0.01575*%
%ADD56R,0.06299X0.08268*%
%ADD57R,0.07480X0.06890*%
%ADD58C,0.05906*%
%ADD59R,0.05800X0.02200*%
G04:AMPARAMS|DCode=60|XSize=23.23mil|YSize=51.18mil|CornerRadius=1.74mil|HoleSize=0mil|Usage=FLASHONLY|Rotation=90.000|XOffset=0mil|YOffset=0mil|HoleType=Round|Shape=RoundedRectangle|*
%AMROUNDEDRECTD60*
21,1,0.02323,0.04770,0,0,90.0*
21,1,0.01974,0.05118,0,0,90.0*
1,1,0.00348,0.02385,0.00987*
1,1,0.00348,0.02385,-0.00987*
1,1,0.00348,-0.02385,-0.00987*
1,1,0.00348,-0.02385,0.00987*
%
%ADD60ROUNDEDRECTD60*%
G04:AMPARAMS|DCode=61|XSize=38.98mil|YSize=51.18mil|CornerRadius=2.92mil|HoleSize=0mil|Usage=FLASHONLY|Rotation=90.000|XOffset=0mil|YOffset=0mil|HoleType=Round|Shape=RoundedRectangle|*
%AMROUNDEDRECTD61*
21,1,0.03898,0.04534,0,0,90.0*
21,1,0.03313,0.05118,0,0,90.0*
1,1,0.00585,0.02267,0.01657*
1,1,0.00585,0.02267,-0.01657*
1,1,0.00585,-0.02267,-0.01657*
1,1,0.00585,-0.02267,0.01657*
%
%ADD61ROUNDEDRECTD61*%
G04:AMPARAMS|DCode=63|XSize=10.24mil|YSize=38.19mil|CornerRadius=2.56mil|HoleSize=0mil|Usage=FLASHONLY|Rotation=180.000|XOffset=0mil|YOffset=0mil|HoleType=Round|Shape=RoundedRectangle|*
%AMROUNDEDRECTD63*
21,1,0.01024,0.03307,0,0,180.0*
21,1,0.00512,0.03819,0,0,180.0*
1,1,0.00512,-0.00256,0.01654*
1,1,0.00512,0.00256,0.01654*
1,1,0.00512,0.00256,-0.01654*
1,1,0.00512,-0.00256,-0.01654*
%
%ADD63ROUNDEDRECTD63*%
G04:AMPARAMS|DCode=64|XSize=10.24mil|YSize=38.19mil|CornerRadius=2.56mil|HoleSize=0mil|Usage=FLASHONLY|Rotation=270.000|XOffset=0mil|YOffset=0mil|HoleType=Round|Shape=RoundedRectangle|*
%AMROUNDEDRECTD64*
21,1,0.01024,0.03307,0,0,270.0*
21,1,0.00512,0.03819,0,0,270.0*
1,1,0.00512,-0.01654,-0.00256*
1,1,0.00512,-0.01654,0.00256*
1,1,0.00512,0.01654,0.00256*
1,1,0.00512,0.01654,-0.00256*
%
%ADD64ROUNDEDRECTD64*%
G04:AMPARAMS|DCode=65|XSize=49.61mil|YSize=23.23mil|CornerRadius=2.9mil|HoleSize=0mil|Usage=FLASHONLY|Rotation=180.000|XOffset=0mil|YOffset=0mil|HoleType=Round|Shape=RoundedRectangle|*
%AMROUNDEDRECTD65*
21,1,0.04961,0.01742,0,0,180.0*
21,1,0.04380,0.02323,0,0,180.0*
1,1,0.00581,-0.02190,0.00871*
1,1,0.00581,0.02190,0.00871*
1,1,0.00581,0.02190,-0.00871*
1,1,0.00581,-0.02190,-0.00871*
%
%ADD65ROUNDEDRECTD65*%
%ADD66R,0.03543X0.03740*%
G04:AMPARAMS|DCode=67|XSize=47.64mil|YSize=23.23mil|CornerRadius=5.81mil|HoleSize=0mil|Usage=FLASHONLY|Rotation=90.000|XOffset=0mil|YOffset=0mil|HoleType=Round|Shape=RoundedRectangle|*
%AMROUNDEDRECTD67*
21,1,0.04764,0.01161,0,0,90.0*
21,1,0.03602,0.02323,0,0,90.0*
1,1,0.01161,0.00581,0.01801*
1,1,0.01161,0.00581,-0.01801*
1,1,0.01161,-0.00581,-0.01801*
1,1,0.01161,-0.00581,0.01801*
%
%ADD67ROUNDEDRECTD67*%
%ADD68R,0.10630X0.03150*%
%ADD69O,0.13780X0.07087*%
G36*
X370713Y119918D02*
X378507D01*
Y127713D01*
X370713D01*
Y119918D01*
D02*
G37*
D16*
X102368Y137532D02*
D03*
Y144225D02*
D03*
D17*
X458465Y195571D02*
D03*
Y189469D02*
D03*
X398228Y139075D02*
D03*
Y145177D02*
D03*
X432874Y195965D02*
D03*
Y189862D02*
D03*
X257283Y193996D02*
D03*
Y187894D02*
D03*
X331496Y193996D02*
D03*
Y187894D02*
D03*
X309646Y193996D02*
D03*
Y187894D02*
D03*
X316929D02*
D03*
Y193996D02*
D03*
X324213Y187894D02*
D03*
Y193996D02*
D03*
X349500Y65551D02*
D03*
Y59449D02*
D03*
X242717Y187894D02*
D03*
Y193996D02*
D03*
X250000D02*
D03*
Y187894D02*
D03*
X264567Y193996D02*
D03*
Y187894D02*
D03*
X79724Y136909D02*
D03*
Y143012D02*
D03*
X72638Y136909D02*
D03*
Y143012D02*
D03*
X400197Y193996D02*
D03*
Y187894D02*
D03*
X408071D02*
D03*
Y193996D02*
D03*
X389838Y112002D02*
D03*
Y105899D02*
D03*
X397838Y112002D02*
D03*
Y105899D02*
D03*
X378740Y92618D02*
D03*
Y98721D02*
D03*
X94882Y137697D02*
D03*
Y143799D02*
D03*
X240947Y103954D02*
D03*
Y110057D02*
D03*
X248947Y103954D02*
D03*
Y110057D02*
D03*
X225447Y68454D02*
D03*
Y74557D02*
D03*
X233447D02*
D03*
Y68454D02*
D03*
X251447D02*
D03*
Y74557D02*
D03*
X258947Y68454D02*
D03*
Y74557D02*
D03*
X278387Y74360D02*
D03*
Y68258D02*
D03*
X285387Y74360D02*
D03*
Y68258D02*
D03*
X292387Y74360D02*
D03*
Y68258D02*
D03*
X299387D02*
D03*
Y74360D02*
D03*
X306387D02*
D03*
Y68258D02*
D03*
X313387Y74360D02*
D03*
Y68258D02*
D03*
X320387Y74360D02*
D03*
Y68258D02*
D03*
X327387Y74360D02*
D03*
Y68258D02*
D03*
D21*
X132185Y197153D02*
D03*
X147343D02*
D03*
X132185Y191247D02*
D03*
X147343D02*
D03*
X132185Y160153D02*
D03*
X147343D02*
D03*
X132185Y154247D02*
D03*
X147343D02*
D03*
D50*
X409055Y134331D02*
D03*
Y147953D02*
D03*
X242447Y74317D02*
D03*
Y60695D02*
D03*
D51*
X329297Y113112D02*
D03*
X276934D02*
D03*
D52*
X325753Y105632D02*
D03*
X323785D02*
D03*
X321816D02*
D03*
X319848D02*
D03*
X317879D02*
D03*
X315911D02*
D03*
X313942D02*
D03*
X311974D02*
D03*
X310005D02*
D03*
X308036D02*
D03*
X306068D02*
D03*
X304099D02*
D03*
X302131D02*
D03*
X300163D02*
D03*
X298194D02*
D03*
X296226D02*
D03*
X294257D02*
D03*
X292289D02*
D03*
X290320D02*
D03*
X288352D02*
D03*
X286383D02*
D03*
X284415D02*
D03*
X282446D02*
D03*
X280478D02*
D03*
D53*
X448819Y187815D02*
D03*
X445079D02*
D03*
X441339D02*
D03*
Y197618D02*
D03*
X448819D02*
D03*
D54*
X421850Y146260D02*
D03*
X418110Y137598D02*
D03*
X425591D02*
D03*
D55*
X459870Y123591D02*
D03*
Y118472D02*
D03*
Y121031D02*
D03*
Y115913D02*
D03*
Y126150D02*
D03*
D56*
X460362Y133236D02*
D03*
Y108827D02*
D03*
D57*
X470303Y125461D02*
D03*
Y116602D02*
D03*
D58*
X117520Y185236D02*
D03*
X75984Y185039D02*
D03*
X109449Y184843D02*
D03*
X111024Y139370D02*
D03*
X177953Y125984D02*
D03*
Y134449D02*
D03*
Y117717D02*
D03*
Y109843D02*
D03*
D59*
X380630Y50000D02*
D03*
Y55000D02*
D03*
Y60000D02*
D03*
Y65000D02*
D03*
X359370Y50000D02*
D03*
Y55000D02*
D03*
Y60000D02*
D03*
Y65000D02*
D03*
D60*
X416941Y101713D02*
D03*
Y109272D02*
D03*
X408870D02*
D03*
D61*
Y102500D02*
D03*
D63*
X380512Y133150D02*
D03*
X378543D02*
D03*
X376575D02*
D03*
X374606D02*
D03*
X372638D02*
D03*
X370669D02*
D03*
X368701D02*
D03*
Y114488D02*
D03*
X370669D02*
D03*
X372638D02*
D03*
X374606D02*
D03*
X376575D02*
D03*
X378543D02*
D03*
X380512D02*
D03*
D64*
X365276Y129724D02*
D03*
Y127756D02*
D03*
Y125787D02*
D03*
Y123819D02*
D03*
Y121850D02*
D03*
Y119882D02*
D03*
Y117913D02*
D03*
X383937D02*
D03*
Y119882D02*
D03*
Y121850D02*
D03*
Y123819D02*
D03*
Y125787D02*
D03*
Y127756D02*
D03*
Y129724D02*
D03*
D65*
X162427Y195137D02*
D03*
Y187263D02*
D03*
X154710Y191200D02*
D03*
X162927Y164137D02*
D03*
Y156263D02*
D03*
X155210Y160200D02*
D03*
D66*
X153517Y172200D02*
D03*
X159620D02*
D03*
X153517Y179700D02*
D03*
X159620D02*
D03*
X142815Y168200D02*
D03*
X136713D02*
D03*
X142815Y175700D02*
D03*
X136713D02*
D03*
X142815Y183200D02*
D03*
X136713D02*
D03*
X202921Y53500D02*
D03*
X196819D02*
D03*
X202870Y61500D02*
D03*
X196768D02*
D03*
X202870Y69500D02*
D03*
X196768D02*
D03*
X202870Y85500D02*
D03*
X196768D02*
D03*
Y77500D02*
D03*
X202870D02*
D03*
Y93500D02*
D03*
X196768D02*
D03*
D67*
X240188Y85065D02*
D03*
X236447D02*
D03*
X232707D02*
D03*
Y94946D02*
D03*
X240188D02*
D03*
D68*
X253447Y94336D02*
D03*
Y85675D02*
D03*
D69*
X170370Y93185D02*
D03*
Y53815D02*
D03*
Y83342D02*
D03*
Y63657D02*
D03*
Y73500D02*
D03*
M02*
