G04*
G04 #@! TF.GenerationSoftware,Altium Limited,Altium Designer,21.9.2 (33)*
G04*
G04 Layer_Color=32768*
%FSLAX25Y25*%
%MOIN*%
G70*
G04*
G04 #@! TF.SameCoordinates,7D1BAC6E-B471-4F52-9471-A17197207182*
G04*
G04*
G04 #@! TF.FilePolarity,Positive*
G04*
G01*
G75*
%ADD93C,0.00050*%
D93*
X469685Y92520D02*
X469587Y93518D01*
X469295Y94478D01*
X468822Y95363D01*
X468186Y96139D01*
X467410Y96775D01*
X466526Y97248D01*
X465565Y97540D01*
X464567Y97638D01*
X463568Y97540D01*
X462608Y97248D01*
X461724Y96775D01*
X460948Y96139D01*
X460311Y95363D01*
X459838Y94478D01*
X459547Y93518D01*
X459449Y92520D01*
X459547Y91521D01*
X459838Y90561D01*
X460311Y89676D01*
X460948Y88901D01*
X461724Y88264D01*
X462608Y87791D01*
X463568Y87500D01*
X464567Y87402D01*
X465565Y87500D01*
X466526Y87791D01*
X467410Y88264D01*
X468186Y88901D01*
X468822Y89676D01*
X469295Y90561D01*
X469587Y91521D01*
X469685Y92520D01*
X385664Y170638D02*
X385566Y171636D01*
X385274Y172596D01*
X384802Y173481D01*
X384165Y174257D01*
X383389Y174893D01*
X382505Y175366D01*
X381544Y175658D01*
X380546Y175756D01*
X379547Y175658D01*
X378587Y175366D01*
X377702Y174893D01*
X376927Y174257D01*
X376290Y173481D01*
X375817Y172596D01*
X375526Y171636D01*
X375428Y170638D01*
X375526Y169639D01*
X375817Y168679D01*
X376290Y167794D01*
X376927Y167019D01*
X377702Y166382D01*
X378587Y165909D01*
X379547Y165618D01*
X380546Y165520D01*
X381544Y165618D01*
X382505Y165909D01*
X383389Y166382D01*
X384165Y167019D01*
X384802Y167794D01*
X385274Y168679D01*
X385566Y169639D01*
X385664Y170638D01*
X476346Y139732D02*
X476252Y140692D01*
X475972Y141616D01*
X475517Y142466D01*
X474905Y143212D01*
X474159Y143824D01*
X473309Y144279D01*
X472385Y144559D01*
X471425Y144653D01*
X472409Y38650D02*
X473428Y38784D01*
X474378Y39177D01*
X475193Y39803D01*
X475819Y40618D01*
X476212Y41568D01*
X476346Y42587D01*
X464535Y199476D02*
X464401Y200495D01*
X464008Y201445D01*
X463382Y202260D01*
X462567Y202886D01*
X461617Y203279D01*
X460598Y203413D01*
X464535Y149575D02*
X464630Y148615D01*
X464910Y147692D01*
X465365Y146841D01*
X465977Y146095D01*
X466723Y145483D01*
X467573Y145028D01*
X468497Y144748D01*
X469457Y144653D01*
X330679Y142329D02*
X331650Y142410D01*
X332596Y142649D01*
X333489Y143041D01*
X334306Y143575D01*
X335023Y144235D01*
X335622Y145005D01*
X336087Y145863D01*
X336403Y146785D01*
X336564Y147747D01*
Y148723D01*
X336403Y149685D01*
X336087Y150607D01*
X335622Y151465D01*
X335023Y152234D01*
X334306Y152895D01*
X333489Y153428D01*
X332596Y153820D01*
X331650Y154060D01*
X330679Y154140D01*
X308236Y170638D02*
X308138Y171636D01*
X307847Y172596D01*
X307374Y173481D01*
X306737Y174257D01*
X305962Y174893D01*
X305077Y175366D01*
X304117Y175658D01*
X303118Y175756D01*
X302120Y175658D01*
X301160Y175366D01*
X300275Y174893D01*
X299499Y174257D01*
X298863Y173481D01*
X298390Y172596D01*
X298098Y171636D01*
X298000Y170638D01*
X298098Y169639D01*
X298390Y168679D01*
X298863Y167794D01*
X299499Y167019D01*
X300275Y166382D01*
X301160Y165909D01*
X302120Y165618D01*
X303118Y165520D01*
X304117Y165618D01*
X305077Y165909D01*
X305962Y166382D01*
X306737Y167019D01*
X307374Y167794D01*
X307847Y168679D01*
X308138Y169639D01*
X308236Y170638D01*
X275560Y154140D02*
X274588Y154060D01*
X273643Y153820D01*
X272750Y153428D01*
X271933Y152895D01*
X271216Y152234D01*
X270617Y151465D01*
X270152Y150607D01*
X269836Y149685D01*
X269675Y148723D01*
Y147747D01*
X269836Y146785D01*
X270152Y145863D01*
X270617Y145005D01*
X271216Y144235D01*
X271933Y143575D01*
X272750Y143041D01*
X273643Y142649D01*
X274588Y142410D01*
X275560Y142329D01*
X66110Y124673D02*
X66244Y123654D01*
X66638Y122705D01*
X67263Y121889D01*
X68079Y121264D01*
X69028Y120870D01*
X70047Y120736D01*
Y203413D02*
X69028Y203279D01*
X68079Y202886D01*
X67263Y202260D01*
X66638Y201445D01*
X66244Y200495D01*
X66110Y199476D01*
X160598Y101051D02*
X160573Y102048D01*
X160497Y103043D01*
X160371Y104032D01*
X160196Y105014D01*
X159970Y105985D01*
X159696Y106944D01*
X159373Y107888D01*
X159003Y108814D01*
X158587Y109720D01*
X158125Y110604D01*
X157619Y111464D01*
X157070Y112297D01*
X156480Y113101D01*
X155850Y113874D01*
X155181Y114613D01*
X154476Y115319D01*
X153736Y115987D01*
X152963Y116618D01*
X152159Y117208D01*
X151326Y117757D01*
X150467Y118263D01*
X149583Y118725D01*
X148676Y119141D01*
X147750Y119511D01*
X146806Y119834D01*
X145847Y120108D01*
X144876Y120333D01*
X143894Y120509D01*
X142905Y120635D01*
X141910Y120711D01*
X140913Y120736D01*
X230808Y170638D02*
X230710Y171636D01*
X230419Y172596D01*
X229946Y173481D01*
X229309Y174257D01*
X228534Y174893D01*
X227649Y175366D01*
X226689Y175658D01*
X225690Y175756D01*
X224692Y175658D01*
X223732Y175366D01*
X222847Y174893D01*
X222071Y174257D01*
X221435Y173481D01*
X220962Y172596D01*
X220671Y171636D01*
X220572Y170638D01*
X220671Y169639D01*
X220962Y168679D01*
X221435Y167794D01*
X222071Y167019D01*
X222847Y166382D01*
X223732Y165909D01*
X224692Y165618D01*
X225690Y165520D01*
X226689Y165618D01*
X227649Y165909D01*
X228534Y166382D01*
X229309Y167019D01*
X229946Y167794D01*
X230419Y168679D01*
X230710Y169639D01*
X230808Y170638D01*
X160598Y42587D02*
X160733Y41568D01*
X161126Y40618D01*
X161751Y39803D01*
X162567Y39177D01*
X163516Y38784D01*
X164535Y38650D01*
X469457Y144653D02*
X471425D01*
X476346Y42587D02*
Y139732D01*
X464535Y149575D02*
Y199476D01*
X70047Y203413D02*
X460598D01*
X275560Y142329D02*
X330679D01*
X275560Y154140D02*
X330679D01*
X70047Y120736D02*
X140913D01*
X66110Y124673D02*
Y199476D01*
X164535Y38650D02*
X472409D01*
X160598Y42587D02*
Y101051D01*
M02*
