M48
;Layer_Color=9474304
;FILE_FORMAT=2:4
INCH,TZ
;TYPE=PLATED
T1F00S00C0.0118
T2F00S00C0.0197
T4F00S00C0.0315
T5F00S00C0.0339
%
T01
X7343Y12323
X7598Y13366
Y14744
X8878Y13701
X9677Y15134
X9315Y15495
X10038
X10399Y15134
X10760Y15495
X12343Y15354
X12697Y15118
X13189Y15020
X15217
X15610Y15591
X14744Y14075
X11886Y14203
X11535Y14468
X11102Y13484
X12067Y13504
X12106Y12400
X11576Y12415
X13106Y12400
X16555Y12421
X17008Y12815
X17382Y11358
X16378Y10020
X18661Y9626
X19193Y8563
X19173Y6535
X17835Y6811
X16378Y6850
X16594Y4390
X19724Y4252
X23386Y4350
X22008Y6693
X23661Y7972
X25512Y7933
X26929Y8091
X26457Y9665
X27087Y10138
X25387Y10400
X24469Y11457
X24843Y13169
X24823Y14823
X22959Y14189
X23091Y13091
X21594Y13032
X20886Y12165
X21654Y10630
X21063Y14724
X18937Y15315
X18150Y14173
X15689Y14488
X26850Y12461
X28760Y13110
X30591Y13150
X29921Y8150
X29173Y7894
X30912Y7795
X29593Y6398
X28176Y6319
X27441Y4370
X31614
X32874Y5256
X32408Y6398
X31331Y6480
X31476Y8130
X32369Y8268
X33425Y7436
X34950Y7000
X35433Y5748
X34783Y5256
X36909Y6004
X36850Y4331
X38799Y4862
X40591Y4252
X39941Y7303
X38050Y7050
X37874Y8854
X36161Y9075
X35984Y10768
X38244Y11024
X38898Y11977
Y12421
X37461Y12382
X37449Y13808
X37657Y14134
X38051Y14522
X36142Y13524
X34606Y13091
X34193Y11949
X33622Y12441
X32382Y13130
X31299
X33268Y10492
X34252Y9508
X39390Y10138
X40807Y9665
X40486Y11181
X39783Y11634
X40315Y13287
X42165Y13406
X41789Y12752
X42244Y12047
X42028Y11693
X42894Y11732
Y10866
X43957Y11772
X44508Y11398
X44961Y11594
X46476
X44547Y9882
X42835Y8681
X41890Y8031
X42854Y6122
X45512Y6654
X45295Y4331
X44547Y13346
X44508Y13780
X44670Y15131
X45768Y15295
X42972Y15512
Y13780
X43602Y12913
X34764Y15138
X46968Y14016
X47126Y10256
X46929Y6220
X45748Y15827
X44685Y15669
X44744Y17913
X45413Y18209
X43996Y18268
X43465Y17441
X41594Y17657
Y15630
X40315Y16831
X39508Y18045
X38996Y17795
X39035Y19468
X35925Y19055
X32776Y20059
X32028Y18228
X31850Y17539
X42559Y19862
X43720Y19390
X44134Y20039
X44803Y19193
X29350Y18819
X27598Y19252
X27461Y18386
X29429Y16024
X23268Y16063
X23839Y17303
X22913Y18287
X21280Y16516
X20019Y18957
X19449Y18445
X18130Y18346
X16201Y18366
X16929Y16772
X18448Y20020
X18925Y19685
X13996Y19370
X13602Y20079
X12547Y18964
X11516Y18996
X10945Y19022
X10512Y18976
X9567Y18543
X8819Y18406
X8085Y18982
X7598Y19034
X7106Y18898
X7815Y16299
X9315Y16218
X9677Y16579
Y15856
X10399
X10038Y16218
X10399Y16579
X10760Y16218
X11960Y15810
X12815Y16417
X13189Y16457
X13228Y17953
X12815Y17972
X12224Y17382
X14783Y17539
X14803Y18268
X14823Y16457
T02
X46184Y11316
Y12891
T04
X43999Y4959
Y5959
Y6959
X45999
Y4959
T05
X45197Y15551
Y16339
M30
