M48
;Layer_Color=9474304
;FILE_FORMAT=2:4
INCH,TZ
;TYPE=PLATED
T3F00S00C0.0236
T6F00S00C0.0394
%
G90
G05
T03
G00X47156Y10991
M15
G01X46920
M16
G00X47156Y13215
M15
G01X46920
M16
T06
G00X32510Y16178
M15
G01X32825
M16
G00X32510Y17950
M15
G01X32825
M16
G00X35541Y17950
M15
G01X35856
M16
G00X35541Y16178
M15
G01X35856
M16
G00X40253Y16178
M15
G01X40568
M16
G00X40253Y17950
M15
G01X40568
M16
G00X43284Y17950
M15
G01X43599
M16
G00X43284Y16178
M15
G01X43599
M16
G00X27799Y16178
M15
G01X28114
M16
G00X27799Y17950
M15
G01X28114
M16
G00X24767Y17950
M15
G01X25082
M16
G00X24767Y16178
M15
G01X25082
M16
G00X20056Y16178
M15
G01X20371
M16
G00X20056Y17950
M15
G01X20371
M16
G00X17024Y17950
M15
G01X17339
M16
G00X17024Y16178
M15
G01X17339
M16
M17
M30
